<svg width="59" height="48" viewBox="0 0 59 48" fill="none" xmlns="http://www.w3.org/2000/svg">
<rect x="8.99969" y="38.9995" width="8.8" height="9" fill="#405779"/>
<rect x="43.9997" y="38.9995" width="8.8" height="9" fill="#405779"/>
<g filter="url(#filter0_d_179_74)">
<path d="M8.99975 22H52.9998C54.9784 28.4934 54.9077 32.2114 52.9998 39H8.99975C6.67344 32.3604 6.76501 28.6424 8.99975 22Z" fill="#405779"/>
</g>
<path d="M9.83156 22.5L17.8003 7.5H46.1632L52.2569 22.5H30.9998H9.83156Z" fill="white" stroke="#405779"/>
<ellipse cx="17.5198" cy="30.5" rx="3.52" ry="3.5" fill="white"/>
<ellipse cx="45.5198" cy="30.5" rx="3.52" ry="3.5" fill="white"/>
<path d="M9.30691 0.5H8.80691V1V7.46653L1.99871 7.48414L1.49858 7.48544L1.5 7.98557L1.51734 14.0725L1.51876 14.5724L2.01863 14.5711L8.80691 14.5535V21V21.5H9.30691H15.693H16.193V21V14.5344L23.0013 14.5168L23.5014 14.5155L23.5 14.0154L23.4827 7.92843L23.4812 7.42856L22.9814 7.42985L16.193 7.44742V1V0.5H15.693H9.30691Z" fill="white" stroke="#283D5B"/>
<defs>
<filter id="filter0_d_179_74" x="3.28918" y="22" width="55.1682" height="25" filterUnits="userSpaceOnUse" color-interpolation-filters="sRGB">
<feFlood flood-opacity="0" result="BackgroundImageFix"/>
<feColorMatrix in="SourceAlpha" type="matrix" values="0 0 0 0 0 0 0 0 0 0 0 0 0 0 0 0 0 0 127 0" result="hardAlpha"/>
<feOffset dy="4"/>
<feGaussianBlur stdDeviation="2"/>
<feComposite in2="hardAlpha" operator="out"/>
<feColorMatrix type="matrix" values="0 0 0 0 0 0 0 0 0 0 0 0 0 0 0 0 0 0 0.25 0"/>
<feBlend mode="normal" in2="BackgroundImageFix" result="effect1_dropShadow_179_74"/>
<feBlend mode="normal" in="SourceGraphic" in2="effect1_dropShadow_179_74" result="shape"/>
</filter>
</defs>
</svg>
