<svg width="128" height="128" viewBox="0 0 128 128" fill="none" xmlns="http://www.w3.org/2000/svg">
<path fill-rule="evenodd" clip-rule="evenodd" d="M102.754 35.5333L80.0431 46.1574C76.0948 43.5416 71.2438 42.0001 66 42.0001C52.7452 42.0001 42 51.8498 42 64.0001C42 76.1503 52.7452 86.0001 66 86.0001C72.5261 86.0001 78.4438 83.6123 82.7702 79.7379L104.403 89.1059C96.1724 101.695 82.0456 110 66 110C40.5949 110 20 89.1812 20 63.5C20 37.8188 40.5949 17 66 17C81.0199 17 94.3585 24.2769 102.754 35.5333Z" fill="url(#paint0_linear_266_311)"/>
<path d="M83.7362 76.4833C84.1274 76.8375 84.0098 76.4798 84.5081 75.9547C85.2452 75.1779 85.6632 74.2857 86.5443 73.6052C87.06 73.2069 87.4672 72.7746 87.912 72.2965C88.6141 71.542 88.9242 71.7948 89.6187 72.1815C89.7746 72.2683 90.2192 72.5068 90.2612 72.7207C90.2793 72.8132 90.0653 73.0668 90.0159 73.1514C89.8276 73.4744 89.6749 73.7946 89.6413 74.139C89.5773 74.7962 89.7431 75.6968 90.3547 75.9272C90.8852 76.127 92.1999 74.2574 92.7718 74.0409C94.9665 74.3317 95.0825 71.4079 95.9051 71.3604C96.6426 71.3177 95.7895 74.9804 96.5058 74.6711C98.8898 69.8394 98.3883 73.9313 99.182 73.0784C99.3246 72.9251 99.4635 72.7639 99.6119 72.6163C99.9621 72.268 101.552 68.2477 101.875 68.3184C102.391 68.4317 101.988 73.1668 101.752 73.8087C101.541 74.381 100.893 75.0524 100.55 75.608C100.127 76.2906 100.595 76.8032 101.17 76.9355C101.631 77.0416 102.078 76.6669 102.532 76.4737C103.383 76.1123 105.573 72.3181 106.386 72.3066C106.499 72.305 107.105 75.4209 107.074 75.641C107.033 75.9437 106.142 76.9995 105.995 77.2889C105.75 77.7716 105.434 78.2233 105.121 78.6758C104.62 79.4013 104.224 79.9947 103.503 80.5523C103.007 80.936 102.313 81.1026 101.885 81.5632C101.283 82.2099 102.735 83.6512 103.39 83.5151C103.812 83.4273 105.806 82.4779 106.183 82.5987C106.46 82.6873 109.554 80.7968 109.735 81.0055C109.956 81.2595 108.915 84.2811 108.722 84.5566C108.993 86.8036 104.144 85.5082 103.512 85.8964C103.441 85.9401 103.321 86.073 103.245 86.0942C103.225 86.0998 103.203 86.0824 103.186 86.0977C102.222 87.005 107.398 87.875 106.501 88.8321C105.564 89.8311 110.569 90.0248 107.413 90.427C106.918 90.4901 101.321 90.0623 102.436 92.4107C102.203 92.7672 99.2572 92.1818 98.8662 92.0993C99.3362 92.2252 101.102 93.258 101.443 93.4689C101.671 93.6098 100.038 94.0152 100.234 94.1933C100.602 94.5258 99.8444 95.5749 99.4442 96.005C99.1909 96.2772 99.0344 96.3719 98.8027 96.6571C98.4479 97.0939 97.897 96.4405 97.4519 96.7135C96.9314 97.0327 96.3876 97.7667 95.9891 98.2199C95.6582 98.5962 95.7572 98.7731 95.6654 99.1826L95.6599 99.2072C95.5628 99.6409 95.4822 100 95.1103 100.34C94.5645 100.839 94.0651 100.227 93.7418 100.002C93.4823 99.8219 92.8074 100.548 92.556 100.447C92.389 100.38 92.2332 100.481 92.0529 100.438C91.8813 100.398 91.736 100.344 91.5686 100.326C89.876 100.149 90.5159 97.8693 89.8112 96.8903C88.9299 95.6663 88.2084 94.3012 87.3471 93.0558C86.6554 92.0557 85.8877 91.1168 85.3316 90.0107C84.817 88.9868 84.4412 87.8736 83.9411 86.8431C83.1621 85.2379 81.6913 88.0057 81.148 86.2589C80.9588 85.6504 79.4508 81.6939 79.6762 80.9968C79.9103 80.2728 82.5328 78.1757 82.7397 77.4612C82.9137 76.8603 83.8303 77.0321 83.7362 76.4833Z" fill="white"/>
<path d="M83.7362 76.4833C84.1274 76.8375 84.0098 76.4798 84.5081 75.9547C85.2452 75.1779 85.6632 74.2857 86.5443 73.6052C87.06 73.2069 87.4672 72.7746 87.912 72.2965C88.6141 71.542 88.9242 71.7948 89.6187 72.1815C89.7746 72.2683 90.2192 72.5068 90.2612 72.7207C90.2793 72.8132 90.0653 73.0668 90.0159 73.1514C89.8276 73.4744 89.6749 73.7946 89.6413 74.139C89.5773 74.7962 89.7431 75.6968 90.3547 75.9272C90.8852 76.127 92.1999 74.2574 92.7718 74.0409C94.9665 74.3317 95.0825 71.4079 95.9051 71.3604C96.6426 71.3177 95.7895 74.9804 96.5058 74.6711C98.8898 69.8394 98.3883 73.9313 99.182 73.0784C99.3246 72.9251 99.4635 72.7639 99.6119 72.6163C99.9621 72.268 101.552 68.2477 101.875 68.3184C102.391 68.4317 101.988 73.1668 101.752 73.8087C101.541 74.381 100.893 75.0524 100.55 75.608C100.127 76.2906 100.595 76.8032 101.17 76.9355C101.631 77.0416 102.078 76.6669 102.532 76.4737C103.383 76.1123 105.573 72.3181 106.386 72.3066C106.499 72.305 107.105 75.4209 107.074 75.641C107.033 75.9437 106.142 76.9995 105.995 77.2889C105.75 77.7716 105.434 78.2233 105.121 78.6758C104.62 79.4013 104.224 79.9947 103.503 80.5523C103.007 80.936 102.313 81.1026 101.885 81.5632C101.283 82.2099 102.735 83.6512 103.39 83.5151C103.812 83.4273 105.806 82.4779 106.183 82.5987C106.46 82.6873 109.554 80.7968 109.735 81.0055C109.956 81.2595 108.915 84.2811 108.722 84.5566C108.993 86.8036 104.144 85.5082 103.512 85.8964C103.441 85.9401 103.321 86.073 103.245 86.0942C103.225 86.0998 103.203 86.0824 103.186 86.0977C102.222 87.005 107.398 87.875 106.501 88.8321C105.564 89.8311 110.569 90.0248 107.413 90.427C106.918 90.4901 101.321 90.0623 102.436 92.4107C102.18 92.802 98.657 92.0587 98.8296 92.0908C99.2355 92.1663 101.092 93.2521 101.443 93.4689C101.671 93.6098 100.038 94.0152 100.234 94.1933C100.602 94.5258 99.8444 95.5749 99.4442 96.005C99.1909 96.2772 99.0344 96.3719 98.8027 96.6571C98.4479 97.0939 97.897 96.4405 97.4519 96.7135C96.9314 97.0327 96.3876 97.7667 95.9891 98.2199C95.6582 98.5962 95.7572 98.7731 95.6654 99.1826C95.5657 99.6273 95.4893 99.9941 95.1103 100.34C94.5645 100.839 94.0651 100.227 93.7418 100.002C93.4823 99.8219 92.8074 100.548 92.556 100.447C92.389 100.38 92.2332 100.481 92.0529 100.438C91.8813 100.398 91.736 100.344 91.5686 100.326C89.876 100.149 90.5159 97.8693 89.8112 96.8903C88.9299 95.6663 88.2084 94.3012 87.3471 93.0558C86.6554 92.0557 85.8877 91.1168 85.3316 90.0107C84.817 88.9868 84.4412 87.8736 83.9411 86.8431C83.1621 85.2379 81.6913 88.0057 81.148 86.2589C80.9588 85.6504 79.4508 81.6939 79.6762 80.9968C79.9103 80.2728 82.5328 78.1757 82.7397 77.4612C82.9137 76.8603 83.8303 77.0321 83.7362 76.4833Z" stroke="#0085FF" stroke-linecap="round"/>
<path d="M42.9092 94.2964C42.7491 93.1627 41.9562 92.1393 42.0019 90.9795C42.0317 90.2231 43.2638 90.0274 43.8669 89.4773C44.0957 89.2687 45.4936 89.2657 45.858 89.3732C46.4385 89.5445 46.9922 90.1153 46.9922 90.4441C46.9922 90.9508 46.6259 91.1809 46.5385 91.6191C46.4729 91.9482 45.2052 92.1344 44.9003 92.4223C44.5144 92.7867 43.7268 92.9355 43.4133 93.285C43.1575 93.5702 42.8238 94.0964 42.6824 94.4303" stroke="white" stroke-width="0.5" stroke-linecap="round"/>
<path d="M58.508 93.6984C58.8652 94.4828 58.4791 95.8383 59.0734 96.4316C59.461 96.8186 60.8989 95.6962 61.816 95.397C62.1638 95.2836 63.6926 93.8895 64.0402 93.4665C64.5941 92.7925 64.931 91.9252 64.7767 91.7441C64.5389 91.465 64.0308 91.704 63.7296 91.5498C63.5035 91.434 62.0311 92.5971 61.5629 92.7429C60.9703 92.9275 60.04 93.6319 59.5334 93.7523C59.12 93.8507 58.5086 93.8939 58.1974 93.8512" stroke="white" stroke-width="0.5" stroke-linecap="round"/>
<path d="M46.5385 89.3435C47.0491 89.3059 47.5405 88.6286 47.9247 88.4362C48.5926 88.1018 47.7184 87.7013 47.4963 87.4099C47.2978 87.1497 47.4458 86.6885 47.4458 86.3985C47.4458 86.0457 48.0061 86.082 48.1137 85.7961C48.2707 85.3792 47.5047 85.1242 46.8788 85.0673C45.6501 84.9558 45.4546 85.2742 45.0641 85.93C44.7118 86.5219 43.7008 87.4667 42.9092 86.5324" stroke="white" stroke-width="0.5" stroke-linecap="round"/>
<path d="M74.2417 106.352C74.3169 105.938 73.8991 105.214 73.8302 104.819C73.7105 104.133 73.2263 104.604 72.9583 104.627C72.7189 104.648 72.3964 104.299 72.1746 104.151C71.9049 103.972 72.0467 103.557 71.85 103.329C71.5632 102.995 71.2123 103.457 71.0413 103.911C70.706 104.803 70.9096 105.116 71.3316 105.752C71.7124 106.325 72.229 107.587 71.3535 107.723" stroke="white" stroke-width="0.5" stroke-linecap="round"/>
<path d="M64.7715 92.8669C65.3827 92.3414 66.2399 92.1516 66.7687 91.837C67.6879 91.2902 66.8368 92.419 66.7001 92.7993C66.578 93.1391 66.9442 93.2086 67.066 93.3515C67.2141 93.5254 67.8521 92.9106 68.0976 92.9368C68.4558 92.975 67.6697 93.9169 66.9637 94.6119C65.5779 95.9761 65.2163 96.0275 64.4856 96.1203C63.8263 96.2041 62.2508 96.8156 61.7201 98.1196" stroke="white" stroke-width="0.5" stroke-linecap="round"/>
<path d="M80.6477 94.0663C80.3703 93.3267 80.3996 92.5681 80.2667 91.9995C80.0358 91.0111 80.7256 92.2433 80.9886 92.5426C81.2235 92.8099 81.3512 92.5625 81.4853 92.5413C81.6484 92.5155 81.3082 91.7096 81.3782 91.5334C81.4803 91.2762 82.0405 92.363 82.4282 93.2622C83.1892 95.0272 83.1549 95.3326 83.0771 95.9441C83.0069 96.496 83.1538 98.0241 84.0428 99.098" stroke="white" stroke-width="0.5" stroke-linecap="round"/>
<path d="M42.0019 85.1938C42.1748 83.4587 46.6802 83.6706 46.3117 81.7133C46.2618 81.4485 44.6072 81.5794 44.2702 81.5794C43.7509 81.5794 43.5713 81.8431 43.2369 82.0405C42.6224 82.4031 42.7957 81.0105 43.5897 80.7762" stroke="white" stroke-width="0.5" stroke-linecap="round"/>
<path d="M70.1454 107.742C68.8539 106.724 69.9331 103.353 68.3615 102.641C68.1488 102.544 67.9121 103.889 67.8435 104.149C67.7378 104.55 67.9028 104.823 67.9857 105.182C68.1379 105.841 67.1083 104.998 67.0908 104.265" stroke="white" stroke-width="0.5" stroke-linecap="round"/>
<path d="M61.6627 99.4755C62.7984 100.411 67.6472 95.7384 68.3073 97.361C68.3965 97.5805 66.5021 99.1628 66.1308 99.5022C65.5586 100.025 65.217 100.037 64.741 100.248C63.8665 100.635 64.8159 101.351 65.8184 100.701" stroke="white" stroke-width="0.5" stroke-linecap="round"/>
<path d="M85.0678 99.8328C86.0143 99.4323 83.4287 93.308 84.8037 93.6247C84.9897 93.6676 85.8139 95.9365 85.9979 96.396C86.2811 97.1041 86.2207 97.3741 86.2851 97.8491C86.403 98.7215 87.1438 98.353 86.8508 97.2478" stroke="white" stroke-width="0.5" stroke-linecap="round"/>
<path d="M45.858 79.973C47.1569 79.973 48.4144 78.9816 49.3361 78.5154C50.2997 78.028 50.4649 77.1805 50.1174 76.4628C49.7266 75.6556 47.6237 76.5035 47.4206 77.0429C47.2135 77.5929 46.9922 77.9267 46.9922 78.5005" stroke="white" stroke-width="0.5" stroke-linecap="round"/>
<path d="M66.9384 102.105C67.2028 101.102 66.7007 99.6255 66.5319 98.6763C66.3554 97.684 65.741 97.1247 65.1215 97.0275C64.4247 96.9182 64.6449 98.974 65.016 99.4056C65.3944 99.8456 65.6046 100.187 66.0433 100.479" stroke="white" stroke-width="0.5" stroke-linecap="round"/>
<path d="M68.1595 98.5617C69.5599 97.2819 71.3814 96.5893 72.5941 95.9382C73.8619 95.2574 74.438 95.5617 74.4004 96.2998C74.3581 97.1298 71.6926 98.7344 71.2203 98.6372C70.7388 98.5381 70.3433 98.5722 70.0739 98.2559" stroke="white" stroke-width="0.5" stroke-linecap="round"/>
<path d="M85.6917 94.3504C84.9983 92.6172 84.8395 90.8578 84.5885 89.5897C84.3261 88.2639 84.676 87.974 85.2327 88.379C85.8587 88.8344 86.543 91.71 86.3726 92.0252C86.1988 92.3466 86.1443 92.6694 85.8476 92.7163" stroke="white" stroke-width="0.5" stroke-linecap="round"/>
<path d="M51.7556 77.6974C51.7556 76.2807 52.9743 74.9533 55.4731 74.4996C55.6953 74.4592 56.9604 74.6293 56.9727 74.7524C57.0176 75.2029 56.9197 75.3064 56.1914 75.4292C55.4349 75.5568 54.6247 76.0042 54.0239 76.3588" stroke="#118DFF" stroke-width="0.5" stroke-linecap="round"/>
<path d="M56.5191 78.3666C56.5191 77.7001 56.2988 76.8722 56.9979 76.2992C57.7368 75.6936 59.1523 75.5382 60.0475 75.02C60.7153 74.6335 61.2858 74.1913 62.089 73.8896C62.5598 73.7128 65.5806 73.6831 64.7606 74.0979C63.5363 74.7171 62.1519 75.068 60.9675 75.6894C60.5592 75.9036 60.8288 76.9719 60.8288 77.2957" stroke="#118DFF" stroke-width="0.5" stroke-linecap="round"/>
<path d="M58.1069 80.3747C59.8464 80.3747 60.1056 80.4381 61.0431 79.5045C61.2007 79.3476 62.3712 78.4238 61.6984 78.3741C61.1577 78.3342 60.5814 78.3667 60.0349 78.3667C57.8349 78.3667 58.3337 80.2454 58.3337 81.044" stroke="#118DFF" stroke-width="0.5" stroke-linecap="round"/>
<path d="M67.522 81.5462C69.2615 81.5462 69.5207 81.6096 70.4582 80.676C70.6158 80.5191 71.7863 79.5953 71.1135 79.5456C70.5728 79.5058 69.9965 79.5382 69.45 79.5382C67.25 79.5382 67.7488 81.4169 67.7488 82.2155" stroke="#118DFF" stroke-width="0.5" stroke-linecap="round"/>
<path d="M78.4326 81.5462C80.1721 81.5462 80.4313 81.6096 81.3687 80.676C81.5264 80.5191 82.6969 79.5953 82.024 79.5456C81.4834 79.5058 80.9071 79.5382 80.3606 79.5382C78.1605 79.5382 78.6594 81.4169 78.6594 82.2155" stroke="#118DFF" stroke-width="0.5" stroke-linecap="round"/>
<path d="M53.7971 81.4456C53.189 81.4007 53.6526 80.0923 53.8979 79.9061C54.3871 79.535 55.6411 79.5472 56.015 79.0658C56.666 78.2275 56.5191 79.3824 56.5191 79.7648C56.5191 80.1912 56.5191 80.6176 56.5191 81.044" stroke="#118DFF" stroke-width="0.5" stroke-linecap="round"/>
<path d="M63.2122 82.6171C62.6041 82.5722 63.0677 81.2638 63.313 81.0777C63.8022 80.7065 65.0562 80.7187 65.4301 80.2373C66.0811 79.399 65.9342 80.5539 65.9342 80.9364C65.9342 81.3627 65.9342 81.7891 65.9342 82.2155" stroke="#118DFF" stroke-width="0.5" stroke-linecap="round"/>
<path d="M74.1228 82.6171C73.5147 82.5722 73.9783 81.2638 74.2236 81.0777C74.7127 80.7065 75.9668 80.7187 76.3407 80.2373C76.9917 79.399 76.8448 80.5539 76.8448 80.9364C76.8448 81.3627 76.8448 81.7891 76.8448 82.2155" stroke="#118DFF" stroke-width="0.5" stroke-linecap="round"/>
<path d="M64.0045 80.7763C64.6978 80.2949 65.0387 79.5623 65.5167 78.9914C66.1211 78.2695 67.0873 77.4803 67.3565 76.686C67.6082 75.9433 68.8711 77.5452 68.9821 77.9056C69.1417 78.4234 68.5834 78.4373 67.848 78.5675C66.8291 78.7479 66.0809 79.0294 65.1512 79.3037C64.6134 79.4625 64.1229 79.9569 64.0171 80.3003C63.8449 80.8593 63.1909 81.2287 62.6435 81.7133" stroke="#118DFF" stroke-width="0.5" stroke-linecap="round"/>
<path d="M73.4196 81.9478C74.1129 81.4664 74.4539 80.7338 74.9318 80.1629C75.5362 79.441 76.5025 78.6518 76.7717 77.8575C77.0234 77.1149 78.2863 78.7167 78.3973 79.0771C78.5568 79.5949 77.9986 79.6088 77.2632 79.739C76.2442 79.9194 75.4961 80.2009 74.5664 80.4753C74.0285 80.634 73.538 81.1284 73.4322 81.4718C73.26 82.0308 72.6061 82.4002 72.0587 82.8848" stroke="#118DFF" stroke-width="0.5" stroke-linecap="round"/>
<path d="M62.6435 76.4926C64.0871 76.0917 65.4945 75.6354 66.9029 75.1837C67.7774 74.9032 68.5238 74.9567 69.4484 74.8788C70.2623 74.8101 71.1862 74.4 72.0444 74.492C72.6832 74.5606 72.624 75.1388 72.624 75.4216C72.624 75.7307 71.8738 76.0183 71.3765 76.0835C70.6222 76.1824 70.1394 75.6989 69.398 75.6894C68.4804 75.6776 66.7479 75.6641 66.2728 76.2248" stroke="#118DFF" stroke-width="0.5" stroke-linecap="round"/>
<path d="M72.0587 77.6641C73.5022 77.2632 74.9096 76.8069 76.318 76.3552C77.1926 76.0747 77.939 76.1282 78.8636 76.0503C79.6775 75.9816 80.6014 75.5715 81.4595 75.6635C82.0983 75.7321 82.0392 76.3103 82.0392 76.5932C82.0392 76.9022 81.289 77.1898 80.7916 77.255C80.0374 77.354 79.5546 76.8704 78.8132 76.8609C77.8956 76.8491 76.163 76.8356 75.6879 77.3963" stroke="#118DFF" stroke-width="0.5" stroke-linecap="round"/>
<path d="M61.5094 81.8472C62.7302 81.8472 64.7531 81.4992 65.8443 81.2076C66.8874 80.9288 66.9533 81.3036 66.9533 81.9141C66.9533 82.3717 64.0643 82.9976 63.4374 82.7098C62.3198 82.1969 60.3257 82.186 59.0142 82.6504" stroke="#118DFF" stroke-width="0.5" stroke-linecap="round"/>
<path d="M70.9245 83.0186C72.1453 83.0186 74.1682 82.6706 75.2594 82.379C76.3025 82.1002 76.3684 82.475 76.3684 83.0855C76.3684 83.5431 73.4794 84.169 72.8525 83.8812C71.7349 83.3682 69.7408 83.3574 68.4293 83.8217" stroke="#118DFF" stroke-width="0.5" stroke-linecap="round"/>
<path d="M81.835 83.0186C83.0559 83.0186 85.0788 82.6706 86.17 82.379C87.2131 82.1002 87.279 82.475 87.279 83.0855C87.279 83.5431 84.39 84.169 83.7631 83.8812C82.6455 83.3682 80.6514 83.3574 79.3399 83.8217" stroke="#118DFF" stroke-width="0.5" stroke-linecap="round"/>
<path d="M50.3947 88.4065C50.7731 87.8482 50.4312 87.2867 50.6593 86.7257C51.019 85.8413 52.7196 85.3688 54.0744 85.2235C55.0069 85.1234 58.0291 85.7793 56.1789 86.2646C54.9161 86.5959 53.1847 86.0921 52.0959 86.5919C51.6215 86.8096 51.1045 86.9474 50.6215 87.1719C50.1898 87.3727 49.9424 87.7815 49.4874 87.871" stroke="white" stroke-width="0.5" stroke-linecap="round"/>
<path d="M49.0245 96.3245C49.1695 95.6659 48.6441 95.2707 48.6484 94.6652C48.6553 93.7104 50.0604 92.6422 51.2652 92.0059C52.0945 91.5678 55.1449 91.0589 53.6056 92.1944C52.555 92.9694 50.7601 93.1421 49.9335 94.0092C49.5733 94.3871 49.144 94.7064 48.7784 95.0937C48.4516 95.44 48.3731 95.9113 47.9835 96.1628" stroke="white" stroke-width="0.5" stroke-linecap="round"/>
<path d="M55.0245 95.3245C55.1695 94.6659 54.6441 94.2707 54.6484 93.6652C54.6553 92.7104 56.0604 91.6422 57.2652 91.0059C58.0945 90.5678 61.1449 90.0589 59.6056 91.1944C58.555 91.9694 56.7601 92.1421 55.9335 93.0092C55.5733 93.3871 55.144 93.7064 54.7784 94.0937C54.4516 94.44 54.3731 94.9113 53.9835 95.1628" stroke="white" stroke-width="0.5" stroke-linecap="round"/>
<path d="M49.2605 83.989C49.3913 83.217 51.0767 82.5327 52.2597 82.5165C52.9843 82.5065 54.281 82.0957 54.9313 82.2785C55.4981 82.4378 55.385 83.0887 55.385 83.3866C55.385 84.0714 53.2835 83.8551 52.5496 83.8551C50.5904 83.8551 49.9098 83.8928 48.3532 84.6583" stroke="white" stroke-width="0.5" stroke-linecap="round"/>
<path d="M58.1069 86.1308C58.2716 84.8188 60.4422 84.7922 62.1268 84.7922C62.9456 84.7922 63.96 84.6425 64.0045 85.2979C64.0207 85.5377 63.9406 85.6848 63.5382 85.7887C63.2599 85.8606 62.1458 85.9977 62.215 85.9895C63.0513 85.8908 63.9719 85.1938 62.6435 85.1938" stroke="white" stroke-width="0.5" stroke-linecap="round"/>
<path d="M54.2508 89.3435C56.1897 88.8015 58.3232 88.2726 60.4886 88.2726C60.8798 88.2726 62.0742 88.1075 61.9126 87.7669C61.6926 87.3032 60.1184 87.2017 59.4679 87.2017C57.1477 87.2017 55.5629 87.3853 53.6837 88.2726C53.0006 88.5951 52.8898 89.2719 52.8898 89.7451C52.8898 89.8965 52.8898 90.794 52.8898 90.2805" stroke="white" stroke-width="0.5" stroke-linecap="round"/>
<path d="M55.6117 84.6583C55.6117 84.2456 55.4287 83.6642 55.6243 83.2602C55.7144 83.074 57.3149 83.1858 57.6532 83.1858C58.15 83.1858 59.9757 83.0096 60.3247 83.2156C61.2613 83.7683 58.0053 84.3726 57.4012 84.398C56.0427 84.4553 54.6271 84.4393 54.2507 85.3276" stroke="#B7DDFF" stroke-width="0.5" stroke-linecap="round"/>
<path d="M50.6215 80.3746C51.0086 79.3181 50.7768 78.8105 52.3606 78.441C53.0756 78.2741 54.4607 77.7138 54.2382 78.5674C54.1485 78.9116 54.0796 79.3073 53.5451 79.5044C52.7071 79.8135 50.6215 79.4884 50.6215 80.3746Z" stroke="#B7DDFF" stroke-width="0.5" stroke-linecap="round"/>
<path d="M65.1386 85.0598C65.2849 84.1963 69.3379 81.8382 69.2216 83.6915C69.1756 84.4235 66.986 84.5127 66.1846 84.6583C65.1783 84.841 65.1386 85.1816 65.1386 85.7292" stroke="#B7DDFF" stroke-width="0.5" stroke-linecap="round"/>
<path d="M82.9692 77.6641C84.4128 77.2632 85.8202 76.8069 87.2286 76.3552C88.1032 76.0747 88.8496 76.1282 89.7742 76.0503C90.5881 75.9816 91.512 75.5715 92.3701 75.6635C93.0089 75.7321 92.9498 76.3103 92.9498 76.5932C92.9498 76.9022 92.1995 77.1898 91.7022 77.255C90.948 77.354 90.4652 76.8704 89.7237 76.8609C88.8062 76.8491 87.0736 76.8356 86.5985 77.3963" stroke="#118DFF" stroke-width="0.5" stroke-linecap="round"/>
<path d="M84.3302 81.9478C85.0235 81.4664 85.3644 80.7338 85.8424 80.1629C86.4468 79.441 87.4131 78.6518 87.6823 77.8575C87.9339 77.1149 89.1968 78.7167 89.3079 79.0771C89.4674 79.5949 88.9092 79.6088 88.1737 79.739C87.1548 79.9194 86.4067 80.2009 85.477 80.4753C84.9391 80.634 84.4486 81.1284 84.3428 81.4718C84.1706 82.0308 83.5166 82.4002 82.9692 82.8848" stroke="#118DFF" stroke-width="0.5" stroke-linecap="round"/>
<path d="M82.0504 92.387C81.8809 91.9725 81.9999 91.3727 82.0599 90.9295C82.1524 90.2465 83.6976 90.3439 84.2028 90.3021C84.8471 90.2488 86.1912 90.8248 86.7003 90.3501C86.9621 90.1059 86.4639 91.0438 86.1759 91.2612C85.6362 91.6687 85.102 92.0798 84.5368 92.4078C84.1095 92.6557 83.9553 92.6838 83.7326 93.1418C83.5801 93.4553 83.1094 93.228 82.8714 93.4077" stroke="#EEF3F7" stroke-linecap="round"/>
<path d="M77.014 101.54C76.3874 102.124 76.6011 99.9128 76.5858 99.8619C76.3505 99.0787 78.4474 98.7711 78.9031 98.5916C79.4989 98.3569 84.1582 96.8926 83.301 98.8451C83.0579 99.399 82.8616 100.275 82.1193 100.205C81.7265 100.168 81.1573 100.066 80.8177 100.34C80.1432 100.884 79.8235 102.083 79.4596 102.832" stroke="#EEF3F7" stroke-linecap="round"/>
<path d="M72.0074 97.9472C71.0146 98.1701 73.1393 95.3913 73.4126 95.1759C73.8852 94.8032 76.8563 94.3901 76.9118 95.1972C76.9732 96.0904 74.9962 96.5489 74.3865 96.7816C73.4701 97.1312 73.2386 97.5449 72.8467 98.3508C72.4185 99.2313 72.238 98.8584 71.4256 99.1435" stroke="white" stroke-width="0.5" stroke-linecap="round"/>
<path d="M78.0799 91.3898C78.5427 90.1486 77.9118 88.9527 78.5767 87.7063C79.2508 86.4426 83.0766 85.2041 82.0317 87.5226C81.3975 88.9299 80.4401 88.0235 79.3882 88.8178C78.5428 89.4561 78.0504 90.0935 77.316 90.8312" stroke="white" stroke-width="0.5" stroke-linecap="round"/>
<path d="M80.4781 95.5089C80.691 95.0711 81.0775 92.3266 81.6162 92.3995C82.3542 92.4993 85.1012 93.1036 85.1572 93.7841C85.3235 95.8055 82.7471 94.7769 81.8503 94.4026C81.4187 94.2225 80.4219 93.5627 79.8965 93.7471C79.1826 93.9977 78.5191 94.3775 77.7985 94.6304" stroke="white" stroke-width="0.5" stroke-linecap="round"/>
<path d="M83.5808 89.1285C83.2165 87.1733 83.345 85.4143 85.7971 85.8428C86.5182 85.9688 86.5932 85.8062 86.531 86.5222C86.4361 87.6154 83.5183 87.651 82.6773 87.792" stroke="white" stroke-width="0.5" stroke-linecap="round"/>
<path d="M76.6607 87.9193C77.133 86.9482 77.6052 85.9771 78.0774 85.0061C78.4295 84.2821 78.8305 83.5647 79.1386 82.824C79.4412 82.0963 77.0521 82.025 76.6449 82.0364C75.5539 82.0668 74.5724 83.0777 74.1871 83.9554C73.9094 84.5879 77.049 85.3611 77.609 85.4369" stroke="white" stroke-width="0.5" stroke-linecap="round"/>
<path d="M84.5 69.75C85.1904 69.75 85.75 69.1904 85.75 68.5C85.75 67.8096 85.1904 67.25 84.5 67.25C83.8096 67.25 83.25 67.8096 83.25 68.5C83.25 69.1904 83.8096 69.75 84.5 69.75Z" fill="white" stroke="#118DFF" stroke-width="0.5"/>
<path d="M89.5 72.75C90.1904 72.75 90.75 72.1904 90.75 71.5C90.75 70.8096 90.1904 70.25 89.5 70.25C88.8096 70.25 88.25 70.8096 88.25 71.5C88.25 72.1904 88.8096 72.75 89.5 72.75Z" fill="white" stroke="#118DFF" stroke-width="0.5"/>
<path d="M81 79.75C81.9665 79.75 82.75 78.9665 82.75 78C82.75 77.0335 81.9665 76.25 81 76.25C80.0335 76.25 79.25 77.0335 79.25 78C79.25 78.9665 80.0335 79.75 81 79.75Z" fill="white" stroke="#0056A5" stroke-width="0.5"/>
<path d="M78 69.75C78.4142 69.75 78.75 69.4142 78.75 69C78.75 68.5858 78.4142 68.25 78 68.25C77.5858 68.25 77.25 68.5858 77.25 69C77.25 69.4142 77.5858 69.75 78 69.75Z" fill="white" stroke="#118DFF" stroke-width="0.5"/>
<path d="M80 72.75C80.4142 72.75 80.75 72.4142 80.75 72C80.75 71.5858 80.4142 71.25 80 71.25C79.5858 71.25 79.25 71.5858 79.25 72C79.25 72.4142 79.5858 72.75 80 72.75Z" fill="white" stroke="#118DFF" stroke-width="0.5"/>
<path d="M88 65.75C88.4142 65.75 88.75 65.4142 88.75 65C88.75 64.5858 88.4142 64.25 88 64.25C87.5858 64.25 87.25 64.5858 87.25 65C87.25 65.4142 87.5858 65.75 88 65.75Z" fill="white" stroke="#118DFF" stroke-width="0.5"/>
<path d="M75.3421 74.5914C75.3421 74.719 75.4023 74.8457 75.4042 74.978C75.4065 75.139 75.4042 75.3002 75.4042 75.4613C75.4042 75.6477 75.4042 75.8341 75.4042 76.0205" stroke="white" stroke-width="0.5" stroke-linecap="round"/>
<path d="M65.1983 89.9204C64.9876 89.7799 64.8843 88.6902 65.1096 88.4517C65.6414 87.8886 66.4786 87.6414 67.224 87.5349C67.9688 87.4285 68.0293 88.4122 68.7174 88.4122C68.9508 88.4122 69.4322 88.5204 69.5947 88.3137C69.7644 88.0976 69.9211 87.7179 70.1467 87.5645C70.3379 87.4345 70.7858 87.5125 70.8958 87.7025C71.2645 88.3394 70.3063 89.1979 69.6784 89.2945C68.9959 89.3995 68.3188 88.826 67.6577 88.7227C66.6611 88.567 65.5885 88.6784 64.5773 88.6784" stroke="white" stroke-width="0.5" stroke-linecap="round"/>
<path d="M61.3836 88.4123C61.3836 88.1055 61.4705 87.8636 61.561 87.5695C61.6615 87.243 61.7578 87.2927 62.0243 87.1308C62.4181 86.8918 62.8076 86.6691 63.1973 86.4211C63.3461 86.3264 63.5059 86.3223 63.6409 86.1944C63.7525 86.0887 63.8483 85.903 63.9958 85.8494C64.2658 85.7512 64.646 85.8304 64.8435 86.017C64.96 86.127 65.2105 86.5058 64.8829 86.5443C64.1584 86.6296 63.6847 86.852 63.0692 87.2787C62.6499 87.5693 62.194 87.832 61.7927 88.1461C61.4617 88.4051 61.4999 88.7353 61.4723 89.122" stroke="white" stroke-width="0.5" stroke-linecap="round"/>
<path d="M66.2629 86.4606C66.62 85.6302 66.8557 84.6673 67.8598 84.6863C68.124 84.6912 68.3904 84.7684 68.6139 84.913C68.9616 85.138 69.2573 85.1298 69.6637 85.1298C69.8582 85.1298 71.2171 84.1612 71.0338 83.9962C70.9085 83.8834 70.3457 83.975 70.2009 83.9815C69.7956 83.9995 69.4 84.0718 68.9934 84.0652C68.5926 84.0588 68.1837 83.985 67.8253 83.7991C67.6523 83.7094 67.481 83.533 67.2782 83.533C66.3529 83.533 65.6419 84.6797 65.6419 85.4847" stroke="#4CA9FF" stroke-width="0.5" stroke-linecap="round"/>
<path d="M70.4325 92.5818C70.4325 92.0344 70.0973 90.0364 70.817 89.7873C71.5761 89.5246 72.0766 89.6282 72.6701 89.0135C72.9471 88.7266 73.2189 88.3163 73.5277 88.8952C73.7798 89.3679 74.0072 90.2394 73.5819 90.6646C73.3049 90.9417 73.2714 91.0342 73.2714 91.4286C73.2714 91.6201 73.4546 92.0948 73.3059 92.227C72.8394 92.6416 72.111 92.5526 71.5464 92.6903C70.8468 92.8609 70.0167 93.091 69.4567 93.5577" stroke="#98B9D7" stroke-width="0.5" stroke-linecap="round"/>
<path d="M66.1742 93.3802C66.1142 93.1201 65.6794 92.7902 65.7356 92.5374C65.8365 92.0831 67.1345 91.5599 67.5296 91.3989C67.814 91.2831 68.9409 91.1915 69.1018 91.3792C69.623 91.9873 67.9951 92.6705 67.5591 92.6705C67.0157 92.6705 67.1702 93.4528 67.1451 93.8041C67.1177 94.1879 66.5521 94.0936 66.2826 94.09C65.7433 94.0828 65.5991 93.674 65.4645 93.2028" stroke="#3FA3FF" stroke-width="0.5" stroke-linecap="round"/>
<path d="M72.0294 84.8637C72.304 84.8026 72.3613 84.04 72.3842 83.7991C72.4262 83.3587 72.7988 83.3555 73.1827 83.3555C73.6899 83.3555 73.5439 83.1737 73.7692 82.8232C74.0196 82.4337 74.4614 82.2762 73.9614 81.8671C73.6914 81.6461 73.3359 82.4036 73.2024 82.5176C72.8939 82.781 72.6522 82.7345 72.2512 82.7345C71.8002 82.7345 71.4078 82.3789 71.1964 83.0598C70.9994 83.6946 71.304 84.5871 71.8519 84.9524" stroke="#3FA3FF" stroke-width="0.5" stroke-linecap="round"/>
<defs>
<linearGradient id="paint0_linear_266_311" x1="62.2017" y1="17" x2="62.2017" y2="110" gradientUnits="userSpaceOnUse">
<stop offset="0.357481" stop-color="#FF971C"/>
<stop offset="0.9999" stop-color="#008DFF"/>
<stop offset="1" stop-color="#50ABFF" stop-opacity="0"/>
</linearGradient>
</defs>
</svg>
