<svg width="128" height="128" viewBox="0 0 128 128" fill="none" xmlns="http://www.w3.org/2000/svg">
<path fill-rule="evenodd" clip-rule="evenodd" d="M102.754 35.5333L80.0431 46.1574C76.0948 43.5416 71.2438 42.0001 66 42.0001C52.7452 42.0001 42 51.8498 42 64.0001C42 76.1503 52.7452 86.0001 66 86.0001C72.5261 86.0001 78.4438 83.6123 82.7702 79.7379L104.403 89.1059C96.1724 101.695 82.0456 110 66 110C40.5949 110 20 89.1812 20 63.5C20 37.8188 40.5949 17 66 17C81.0199 17 94.3585 24.2769 102.754 35.5333Z" fill="#1C77FF"/>
<path d="M42.9092 94.2964C42.7491 93.1627 41.9562 92.1393 42.0019 90.9795C42.0317 90.2231 43.2638 90.0274 43.8669 89.4773C44.0957 89.2687 45.4936 89.2657 45.858 89.3732C46.4385 89.5445 46.9922 90.1153 46.9922 90.4441C46.9922 90.9508 46.6259 91.1809 46.5385 91.6191C46.4729 91.9482 45.2052 92.1344 44.9003 92.4223C44.5144 92.7867 43.7268 92.9355 43.4133 93.285C43.1575 93.5702 42.8238 94.0964 42.6824 94.4303" stroke="white" stroke-width="0.5" stroke-linecap="round"/>
<path d="M58.508 93.6985C58.8652 94.4829 58.4791 95.8384 59.0734 96.4317C59.461 96.8187 60.8989 95.6963 61.816 95.3971C62.1638 95.2837 63.6926 93.8896 64.0402 93.4666C64.5941 92.7926 64.931 91.9253 64.7767 91.7442C64.5389 91.4651 64.0308 91.7041 63.7296 91.5499C63.5035 91.4341 62.0311 92.5972 61.5629 92.743C60.9703 92.9276 60.04 93.632 59.5334 93.7524C59.12 93.8508 58.5086 93.894 58.1974 93.8513" stroke="white" stroke-width="0.5" stroke-linecap="round"/>
<path d="M46.5385 89.3435C47.0491 89.3059 47.5405 88.6286 47.9247 88.4362C48.5926 88.1018 47.7184 87.7013 47.4963 87.4099C47.2978 87.1497 47.4458 86.6885 47.4458 86.3985C47.4458 86.0457 48.0061 86.082 48.1137 85.7961C48.2707 85.3792 47.5047 85.1242 46.8788 85.0673C45.6501 84.9558 45.4546 85.2742 45.0641 85.93C44.7118 86.5219 43.7008 87.4667 42.9092 86.5324" stroke="white" stroke-width="0.5" stroke-linecap="round"/>
<path d="M64.7715 92.8669C65.3827 92.3414 66.2399 92.1516 66.7687 91.837C67.6879 91.2902 66.8368 92.419 66.7001 92.7993C66.578 93.1391 66.9442 93.2086 67.066 93.3515C67.2141 93.5254 67.8521 92.9106 68.0976 92.9368C68.4558 92.975 67.6697 93.9169 66.9637 94.6119C65.5779 95.9761 65.2163 96.0275 64.4856 96.1203C63.8263 96.2041 62.2508 96.8156 61.7201 98.1196" stroke="white" stroke-width="0.5" stroke-linecap="round"/>
<path d="M42.0019 85.1938C42.1748 83.4587 46.6802 83.6706 46.3117 81.7133C46.2618 81.4485 44.6072 81.5794 44.2702 81.5794C43.7509 81.5794 43.5713 81.8431 43.2369 82.0405C42.6224 82.4031 42.7957 81.0105 43.5897 80.7762" stroke="white" stroke-width="0.5" stroke-linecap="round"/>
<path d="M61.6627 99.4755C62.7984 100.411 67.6472 95.7385 68.3073 97.3611C68.3965 97.5806 66.5021 99.1629 66.1308 99.5023C65.5586 100.025 65.217 100.037 64.741 100.248C63.8665 100.635 64.8159 101.351 65.8184 100.701" stroke="white" stroke-width="0.5" stroke-linecap="round"/>
<path d="M45.858 79.973C47.1569 79.973 48.4144 78.9816 49.3361 78.5154C50.2997 78.028 50.4649 77.1805 50.1174 76.4628C49.7266 75.6556 47.6237 76.5035 47.4206 77.0429C47.2135 77.5929 46.9922 77.9267 46.9922 78.5005" stroke="white" stroke-width="0.5" stroke-linecap="round"/>
<path d="M68.1595 98.5617C69.5599 97.2819 71.3814 96.5893 72.5941 95.9382C73.8619 95.2574 74.438 95.5617 74.4004 96.2998C74.3581 97.1298 71.6926 98.7344 71.2203 98.6372C70.7388 98.5381 70.3433 98.5722 70.0739 98.2559" stroke="white" stroke-width="0.5" stroke-linecap="round"/>
<path d="M51.7556 77.6974C51.7556 76.2807 52.9743 74.9533 55.4731 74.4996C55.6953 74.4592 56.9604 74.6293 56.9727 74.7524C57.0176 75.2029 56.9197 75.3064 56.1914 75.4292C55.4349 75.5568 54.6247 76.0042 54.0239 76.3588" stroke="#118DFF" stroke-width="0.5" stroke-linecap="round"/>
<path d="M56.5191 78.3666C56.5191 77.7001 56.2988 76.8722 56.9979 76.2992C57.7368 75.6936 59.1523 75.5382 60.0475 75.02C60.7153 74.6335 61.2858 74.1913 62.089 73.8896C62.5598 73.7128 65.5806 73.6831 64.7606 74.0979C63.5363 74.7171 62.1519 75.068 60.9675 75.6894C60.5592 75.9036 60.8288 76.9719 60.8288 77.2957" stroke="#118DFF" stroke-width="0.5" stroke-linecap="round"/>
<path d="M58.1069 80.3747C59.8464 80.3747 60.1056 80.4381 61.0431 79.5045C61.2007 79.3476 62.3712 78.4238 61.6984 78.3741C61.1577 78.3342 60.5814 78.3667 60.0349 78.3667C57.8349 78.3667 58.3337 80.2454 58.3337 81.044" stroke="#118DFF" stroke-width="0.5" stroke-linecap="round"/>
<path d="M67.522 81.5462C69.2615 81.5462 69.5207 81.6096 70.4582 80.676C70.6158 80.5191 71.7863 79.5953 71.1135 79.5456C70.5728 79.5058 69.9965 79.5382 69.45 79.5382C67.25 79.5382 67.7488 81.4169 67.7488 82.2155" stroke="#118DFF" stroke-width="0.5" stroke-linecap="round"/>
<path d="M78.4326 81.5462C80.1721 81.5462 80.4313 81.6096 81.3687 80.676C81.5264 80.5191 82.6969 79.5953 82.024 79.5456C81.4834 79.5058 80.9071 79.5382 80.3606 79.5382C78.1605 79.5382 78.6594 81.4169 78.6594 82.2155" stroke="#118DFF" stroke-width="0.5" stroke-linecap="round"/>
<path d="M53.7971 81.4456C53.189 81.4007 53.6526 80.0923 53.8979 79.9061C54.3871 79.535 55.6411 79.5472 56.015 79.0658C56.666 78.2275 56.5191 79.3824 56.5191 79.7648C56.5191 80.1912 56.5191 80.6176 56.5191 81.044" stroke="#118DFF" stroke-width="0.5" stroke-linecap="round"/>
<path d="M63.2122 82.6171C62.6041 82.5722 63.0677 81.2638 63.313 81.0777C63.8022 80.7065 65.0562 80.7187 65.4301 80.2373C66.0811 79.399 65.9342 80.5539 65.9342 80.9364C65.9342 81.3627 65.9342 81.7891 65.9342 82.2155" stroke="#118DFF" stroke-width="0.5" stroke-linecap="round"/>
<path d="M74.1228 82.6171C73.5147 82.5722 73.9783 81.2638 74.2236 81.0777C74.7127 80.7065 75.9668 80.7187 76.3407 80.2373C76.9917 79.399 76.8448 80.5539 76.8448 80.9364C76.8448 81.3627 76.8448 81.7891 76.8448 82.2155" stroke="#118DFF" stroke-width="0.5" stroke-linecap="round"/>
<path d="M89.7203 76.7897C89.3159 77.1098 89.4065 77.4253 89.0966 77.0543C89.1665 77.5199 88.434 77.185 88.2885 77.6359C88.1155 78.1719 85.9936 79.3155 85.7987 79.8535C85.6111 80.3714 86.7789 83.9052 86.9243 84.4396C87.3417 85.9737 88.548 84.04 89.1556 85.5093C89.5457 86.4526 89.8354 87.4366 90.2373 88.3776C90.6714 89.3942 91.2768 90.3201 91.8208 91.2796C92.498 92.4743 93.0621 93.7365 93.7556 94.9182C94.3102 95.8632 93.7744 97.5781 95.1284 98.0825C95.2623 98.1324 95.3781 98.2072 95.5152 98.2768C95.6592 98.3499 95.785 98.3007 95.9181 98.391C96.1184 98.5269 96.6664 98.0809 96.8725 98.2827C97.1291 98.534 97.523 99.1374 97.9652 98.8488C98.2666 98.6522 98.3348 98.3774 98.4169 98.046L98.4216 98.0272C98.4993 97.7143 98.4218 97.5496 98.6907 97.3146C99.0145 97.0316 99.4575 96.5515 99.8777 96.4033C100.237 96.2765 100.538 96.281 100.827 96.002C101.015 95.8198 101.177 95.6361 101.382 95.4691C101.707 95.2052 101.992 95.0408 101.701 94.6925C101.545 94.506 101.398 94.2988 101.216 94.1359C100.938 93.8851 100.606 93.8721 100.282 93.7243C100.144 93.6614 99.2875 93.2103 99.4964 92.9471C99.553 92.8757 99.6665 92.7892 99.7508 92.7549C100.701 92.368 101.567 91.423 102.327 90.8115C103.055 90.2256 103.797 89.5376 104.579 89.0065C104.592 88.9975 104.61 89.0164 104.626 89.0162C104.687 89.0152 104.785 88.9329 104.842 88.9126C105.352 88.7321 105.732 88.7286 106.104 88.2955C106.261 88.1128 106.625 87.8065 106.451 87.5533C106.308 87.3452 106.121 87.1241 105.9 86.9931C105.599 86.8146 105.107 86.9717 104.768 86.953C104.242 86.9239 103.094 85.4441 103.582 85.0474C103.93 84.7647 104.487 84.7773 104.889 84.5715C105.472 84.2725 105.795 83.8751 106.204 83.3929C106.459 83.0922 106.717 82.7929 106.918 82.4532C107.039 82.2495 107.305 81.9286 107.342 81.6917C107.368 81.5195 106.324 81.4104 106.234 81.3877C105.582 81.2238 104.838 80.941 104.153 81.0531C103.786 81.1131 103.425 81.3221 103.056 81.1376C102.597 80.9076 102.228 80.3918 102.573 79.9276C102.854 79.5497 103.38 79.1427 103.554 78.7229C103.75 78.2522 103.512 77.8125 103.099 77.6104C102.841 77.4842 102.137 77.0905 101.853 77.2987C101.732 77.3869 101.619 77.4882 101.503 77.5822C100.859 78.1055 100.132 78.1704 99.3436 78.3049C98.7667 78.4033 98.2311 78.492 97.6399 78.3693C96.9805 78.2326 96.5991 77.9432 95.9022 78.0248C95.442 78.0786 94.8267 78.2889 94.4038 78.0136C93.9163 77.6961 93.7926 76.9296 93.8506 76.4096C93.8809 76.1372 94.0065 75.9097 94.1607 75.6876C94.201 75.6295 94.3751 75.4692 94.3615 75.3902C94.33 75.2076 93.9763 74.9192 93.8523 74.8155C93.2999 74.3535 93.0541 74.0821 92.4841 74.5451C92.1229 74.8384 91.7924 75.1027 91.3752 75.3161C90.6625 75.6807 90.3187 76.3161 89.7203 76.7897Z" fill="white" stroke="#0085FF" stroke-linecap="round"/>
<path d="M64.0045 80.7763C64.6978 80.2949 65.0387 79.5623 65.5167 78.9914C66.1211 78.2695 67.0873 77.4803 67.3565 76.686C67.6082 75.9433 68.8711 77.5452 68.9821 77.9056C69.1417 78.4234 68.5834 78.4373 67.848 78.5675C66.8291 78.7479 66.0809 79.0294 65.1512 79.3037C64.6134 79.4625 64.1229 79.9569 64.0171 80.3003C63.8449 80.8593 63.1909 81.2287 62.6435 81.7133" stroke="#118DFF" stroke-width="0.5" stroke-linecap="round"/>
<path d="M73.4196 81.9478C74.1129 81.4664 74.4539 80.7338 74.9318 80.1629C75.5362 79.441 76.5025 78.6518 76.7717 77.8575C77.0234 77.1149 78.2863 78.7167 78.3973 79.0771C78.5568 79.5949 77.9986 79.6088 77.2632 79.739C76.2442 79.9194 75.4961 80.2009 74.5664 80.4753C74.0285 80.634 73.538 81.1284 73.4322 81.4718C73.26 82.0308 72.6061 82.4002 72.0587 82.8848" stroke="#118DFF" stroke-width="0.5" stroke-linecap="round"/>
<path d="M62.6435 76.4926C64.0871 76.0917 65.4945 75.6354 66.9029 75.1837C67.7774 74.9032 68.5238 74.9567 69.4484 74.8788C70.2623 74.8101 71.1862 74.4 72.0444 74.492C72.6832 74.5606 72.624 75.1388 72.624 75.4216C72.624 75.7307 71.8738 76.0183 71.3765 76.0835C70.6222 76.1824 70.1394 75.6989 69.398 75.6894C68.4804 75.6776 66.7479 75.6641 66.2728 76.2248" stroke="#118DFF" stroke-width="0.5" stroke-linecap="round"/>
<path d="M72.0587 77.6641C73.5022 77.2632 74.9096 76.8069 76.318 76.3552C77.1926 76.0747 77.939 76.1282 78.8636 76.0503C79.6775 75.9816 80.6014 75.5715 81.4595 75.6635C82.0983 75.7321 82.0392 76.3103 82.0392 76.5932C82.0392 76.9022 81.289 77.1898 80.7916 77.255C80.0374 77.354 79.5546 76.8704 78.8132 76.8609C77.8956 76.8491 76.163 76.8356 75.6879 77.3963" stroke="#118DFF" stroke-width="0.5" stroke-linecap="round"/>
<path d="M61.5094 81.8472C62.7302 81.8472 64.7531 81.4992 65.8443 81.2076C66.8874 80.9288 66.9533 81.3036 66.9533 81.9141C66.9533 82.3717 64.0643 82.9976 63.4374 82.7098C62.3198 82.1969 60.3257 82.186 59.0142 82.6504" stroke="#118DFF" stroke-width="0.5" stroke-linecap="round"/>
<path d="M70.9245 83.0186C72.1453 83.0186 74.1682 82.6706 75.2594 82.379C76.3025 82.1002 76.3684 82.475 76.3684 83.0855C76.3684 83.5431 73.4794 84.169 72.8525 83.8812C71.7349 83.3682 69.7408 83.3574 68.4293 83.8217" stroke="#118DFF" stroke-width="0.5" stroke-linecap="round"/>
<path d="M81.835 83.0186C83.0559 83.0186 85.0788 82.6706 86.17 82.379C87.2131 82.1002 87.279 82.475 87.279 83.0855C87.279 83.5431 84.39 84.169 83.7631 83.8812C82.6455 83.3682 80.6514 83.3574 79.3399 83.8217" stroke="#118DFF" stroke-width="0.5" stroke-linecap="round"/>
<path d="M50.3947 88.4065C50.7731 87.8482 50.4312 87.2867 50.6593 86.7257C51.019 85.8413 52.7196 85.3688 54.0744 85.2235C55.0069 85.1234 58.0291 85.7793 56.1789 86.2646C54.9161 86.5959 53.1847 86.0921 52.0959 86.5919C51.6215 86.8096 51.1045 86.9474 50.6215 87.1719C50.1898 87.3727 49.9424 87.7815 49.4874 87.871" stroke="white" stroke-width="0.5" stroke-linecap="round"/>
<path d="M49.2605 83.989C49.3913 83.217 51.0767 82.5327 52.2597 82.5165C52.9843 82.5065 54.281 82.0957 54.9313 82.2785C55.4981 82.4378 55.385 83.0887 55.385 83.3866C55.385 84.0714 53.2835 83.8551 52.5496 83.8551C50.5904 83.8551 49.9098 83.8928 48.3532 84.6583" stroke="white" stroke-width="0.5" stroke-linecap="round"/>
<path d="M58.1069 86.1308C58.2716 84.8188 60.4422 84.7922 62.1268 84.7922C62.9456 84.7922 63.96 84.6425 64.0045 85.2979C64.0207 85.5377 63.9406 85.6848 63.5382 85.7887C63.2599 85.8606 62.1458 85.9977 62.215 85.9895C63.0513 85.8908 63.9719 85.1938 62.6435 85.1938" stroke="white" stroke-width="0.5" stroke-linecap="round"/>
<path d="M54.2508 89.3435C56.1897 88.8015 58.3232 88.2726 60.4886 88.2726C60.8798 88.2726 62.0742 88.1075 61.9126 87.7669C61.6926 87.3032 60.1184 87.2017 59.4679 87.2017C57.1477 87.2017 55.5629 87.3853 53.6837 88.2726C53.0006 88.5951 52.8898 89.2719 52.8898 89.7451C52.8898 89.8965 52.8898 90.794 52.8898 90.2805" stroke="white" stroke-width="0.5" stroke-linecap="round"/>
<path d="M55.6117 84.6583C55.6117 84.2456 55.4287 83.6642 55.6243 83.2602C55.7144 83.074 57.3149 83.1858 57.6532 83.1858C58.15 83.1858 59.9757 83.0096 60.3247 83.2156C61.2613 83.7683 58.0053 84.3726 57.4012 84.398C56.0427 84.4553 54.6271 84.4393 54.2507 85.3276" stroke="#B7DDFF" stroke-width="0.5" stroke-linecap="round"/>
<path d="M50.6215 80.3746C51.0086 79.3181 50.7768 78.8105 52.3606 78.441C53.0756 78.2741 54.4607 77.7138 54.2382 78.5674C54.1485 78.9116 54.0796 79.3073 53.5451 79.5044C52.7071 79.8135 50.6215 79.4884 50.6215 80.3746Z" stroke="#B7DDFF" stroke-width="0.5" stroke-linecap="round"/>
<path d="M65.1386 85.0598C65.2849 84.1963 69.3379 81.8382 69.2216 83.6915C69.1756 84.4235 66.986 84.5127 66.1846 84.6583C65.1783 84.841 65.1386 85.1816 65.1386 85.7292" stroke="#B7DDFF" stroke-width="0.5" stroke-linecap="round"/>
<path d="M82.9692 77.6641C84.4128 77.2632 85.8202 76.8069 87.2286 76.3552C88.1032 76.0747 88.8496 76.1282 89.7742 76.0503C90.5881 75.9816 91.512 75.5715 92.3701 75.6635C93.0089 75.7321 92.9498 76.3103 92.9498 76.5932C92.9498 76.9022 92.1995 77.1898 91.7022 77.255C90.948 77.354 90.4652 76.8704 89.7237 76.8609C88.8062 76.8491 87.0736 76.8356 86.5985 77.3963" stroke="#118DFF" stroke-width="0.5" stroke-linecap="round"/>
<path d="M84.3302 81.9478C85.0235 81.4664 85.3644 80.7338 85.8424 80.1629C86.4468 79.441 87.4131 78.6518 87.6823 77.8575C87.9339 77.1149 89.1968 78.7167 89.3079 79.0771C89.4674 79.5949 88.9092 79.6088 88.1737 79.739C87.1548 79.9194 86.4067 80.2009 85.477 80.4753C84.9391 80.634 84.4486 81.1284 84.3428 81.4718C84.1706 82.0308 83.5166 82.4002 82.9692 82.8848" stroke="#118DFF" stroke-width="0.5" stroke-linecap="round"/>
<path d="M82.0504 92.387C81.8809 91.9725 81.9999 91.3727 82.0599 90.9295C82.1524 90.2465 83.6976 90.3439 84.2028 90.3021C84.8471 90.2488 86.1912 90.8248 86.7003 90.3501C86.9621 90.1059 86.4639 91.0438 86.1759 91.2612C85.6362 91.6687 85.102 92.0798 84.5368 92.4078C84.1095 92.6557 83.9553 92.6838 83.7326 93.1418C83.5801 93.4553 83.1094 93.228 82.8714 93.4077" stroke="#EEF3F7" stroke-linecap="round"/>
<path d="M77.014 101.54C76.3874 102.124 76.6011 99.9128 76.5858 99.8619C76.3505 99.0787 78.4474 98.7711 78.9031 98.5916C79.4989 98.3569 84.1582 96.8926 83.301 98.8451C83.0579 99.399 82.8616 100.275 82.1193 100.205C81.7265 100.168 81.1573 100.066 80.8177 100.34C80.1432 100.884 79.8235 102.083 79.4596 102.832" stroke="#EEF3F7" stroke-linecap="round"/>
<path d="M72.0074 97.9472C71.0146 98.1701 73.1393 95.3913 73.4126 95.1759C73.8852 94.8032 76.8563 94.3901 76.9118 95.1972C76.9732 96.0904 74.9962 96.5489 74.3865 96.7816C73.4701 97.1312 73.2386 97.5449 72.8467 98.3508C72.4185 99.2313 72.238 98.8584 71.4256 99.1435" stroke="white" stroke-width="0.5" stroke-linecap="round"/>
<path d="M78.0799 91.3898C78.5427 90.1486 77.9118 88.9527 78.5767 87.7063C79.2508 86.4426 83.0766 85.2041 82.0317 87.5226C81.3975 88.9299 80.4401 88.0235 79.3882 88.8178C78.5428 89.4561 78.0504 90.0935 77.316 90.8312" stroke="white" stroke-width="0.5" stroke-linecap="round"/>
<path d="M80.4781 95.5089C80.691 95.0711 81.0775 92.3266 81.6162 92.3995C82.3542 92.4993 85.1012 93.1036 85.1572 93.7841C85.3235 95.8055 82.7471 94.7769 81.8503 94.4026C81.4187 94.2225 80.4219 93.5627 79.8965 93.7471C79.1826 93.9977 78.5191 94.3775 77.7985 94.6304" stroke="white" stroke-width="0.5" stroke-linecap="round"/>
<path d="M83.5808 89.1285C83.2165 87.1733 83.345 85.4143 85.7971 85.8428C86.5182 85.9688 86.5932 85.8062 86.531 86.5222C86.4361 87.6154 83.5183 87.651 82.6773 87.792" stroke="white" stroke-width="0.5" stroke-linecap="round"/>
<path d="M76.6607 87.9194C77.133 86.9483 77.6052 85.9772 78.0774 85.0062C78.4295 84.2822 78.8305 83.5648 79.1386 82.8241C79.4412 82.0964 77.0521 82.0251 76.6449 82.0365C75.5539 82.0669 74.5724 83.0778 74.1871 83.9555C73.9094 84.588 77.049 85.3612 77.609 85.437" stroke="white" stroke-width="0.5" stroke-linecap="round"/>
<circle cx="84.5" cy="68.5" r="1.25" fill="white" stroke="#118DFF" stroke-width="0.5"/>
<circle cx="81" cy="78" r="1.75" fill="white" stroke="#0056A5" stroke-width="0.5"/>
<circle cx="78" cy="69" r="0.75" fill="white" stroke="#118DFF" stroke-width="0.5"/>
<circle cx="80" cy="72" r="0.75" fill="white" stroke="#118DFF" stroke-width="0.5"/>
<circle cx="88" cy="65" r="0.75" fill="white" stroke="#118DFF" stroke-width="0.5"/>
<path d="M75.3421 74.5914C75.3421 74.719 75.4023 74.8457 75.4042 74.978C75.4065 75.139 75.4042 75.3002 75.4042 75.4613C75.4042 75.6477 75.4042 75.8341 75.4042 76.0205" stroke="white" stroke-width="0.5" stroke-linecap="round"/>
<path d="M65.1983 89.9204C64.9876 89.7799 64.8843 88.6902 65.1096 88.4517C65.6414 87.8886 66.4786 87.6414 67.224 87.5349C67.9688 87.4285 68.0293 88.4122 68.7174 88.4122C68.9508 88.4122 69.4322 88.5204 69.5947 88.3137C69.7644 88.0976 69.9211 87.7179 70.1467 87.5645C70.3379 87.4345 70.7858 87.5125 70.8958 87.7025C71.2645 88.3394 70.3063 89.1979 69.6784 89.2945C68.9959 89.3995 68.3188 88.826 67.6577 88.7227C66.6611 88.567 65.5885 88.6784 64.5773 88.6784" stroke="white" stroke-width="0.5" stroke-linecap="round"/>
<path d="M61.3836 88.4123C61.3836 88.1055 61.4705 87.8636 61.561 87.5695C61.6615 87.243 61.7578 87.2927 62.0243 87.1308C62.4181 86.8918 62.8076 86.6691 63.1973 86.4211C63.3461 86.3264 63.5059 86.3223 63.6409 86.1944C63.7525 86.0887 63.8483 85.903 63.9958 85.8494C64.2658 85.7512 64.646 85.8304 64.8435 86.017C64.96 86.127 65.2105 86.5058 64.8829 86.5443C64.1584 86.6296 63.6847 86.852 63.0692 87.2787C62.6499 87.5693 62.194 87.832 61.7927 88.1461C61.4617 88.4051 61.4999 88.7353 61.4723 89.122" stroke="white" stroke-width="0.5" stroke-linecap="round"/>
<path d="M66.2629 86.4606C66.62 85.6302 66.8557 84.6673 67.8598 84.6863C68.124 84.6912 68.3904 84.7684 68.6139 84.913C68.9616 85.138 69.2573 85.1298 69.6637 85.1298C69.8582 85.1298 71.2171 84.1612 71.0338 83.9962C70.9085 83.8834 70.3457 83.975 70.2009 83.9815C69.7956 83.9995 69.4 84.0718 68.9934 84.0652C68.5926 84.0588 68.1837 83.985 67.8253 83.7991C67.6523 83.7094 67.481 83.533 67.2782 83.533C66.3529 83.533 65.6419 84.6797 65.6419 85.4847" stroke="#4CA9FF" stroke-width="0.5" stroke-linecap="round"/>
<path d="M70.4325 92.5818C70.4325 92.0344 70.0973 90.0364 70.817 89.7873C71.5761 89.5246 72.0766 89.6282 72.6701 89.0135C72.9471 88.7266 73.2189 88.3163 73.5277 88.8952C73.7798 89.3679 74.0072 90.2394 73.5819 90.6646C73.3049 90.9417 73.2714 91.0342 73.2714 91.4286C73.2714 91.6201 73.4546 92.0948 73.3059 92.227C72.8394 92.6416 72.111 92.5526 71.5464 92.6903C70.8468 92.8609 70.0167 93.091 69.4567 93.5577" stroke="#98B9D7" stroke-width="0.5" stroke-linecap="round"/>
<path d="M66.1742 93.3802C66.1142 93.1201 65.6794 92.7902 65.7356 92.5374C65.8365 92.0831 67.1345 91.5599 67.5296 91.3989C67.814 91.2831 68.9409 91.1915 69.1018 91.3792C69.623 91.9873 67.9951 92.6705 67.5591 92.6705C67.0157 92.6705 67.1702 93.4528 67.1451 93.8041C67.1177 94.1879 66.5521 94.0936 66.2826 94.09C65.7433 94.0828 65.5991 93.674 65.4645 93.2028" stroke="#3FA3FF" stroke-width="0.5" stroke-linecap="round"/>
<path d="M72.0294 84.8637C72.304 84.8026 72.3613 84.04 72.3842 83.7991C72.4262 83.3587 72.7988 83.3555 73.1827 83.3555C73.6899 83.3555 73.5439 83.1737 73.7692 82.8232C74.0196 82.4337 74.4614 82.2762 73.9614 81.8671C73.6914 81.6461 73.3359 82.4036 73.2024 82.5176C72.8939 82.781 72.6522 82.7345 72.2512 82.7345C71.8002 82.7345 71.4078 82.3789 71.1964 83.0598C70.9994 83.6946 71.304 84.5871 71.8519 84.9524" stroke="#3FA3FF" stroke-width="0.5" stroke-linecap="round"/>
</svg>
