<svg width="258" height="70" viewBox="0 0 258 70" fill="none" xmlns="http://www.w3.org/2000/svg">
<rect width="258" height="70" rx="9" fill="black"/>
<rect x="8.5" y="10.5" width="136" height="48" fill="black" stroke="white"/>
<rect x="145" y="10" width="104" height="49" fill="white"/>
<path d="M28.8594 41.5312C29.0052 40.3229 29.2656 39.1771 29.6406 38.0938C30.0156 36.9896 30.474 35.9271 31.0156 34.9062C31.5573 33.8646 32.1615 32.8438 32.8281 31.8438C33.4948 30.8438 34.2031 29.8333 34.9531 28.8125C35.3906 28.25 35.8698 27.6771 36.3906 27.0938C36.9115 26.5104 37.474 25.9792 38.0781 25.5C38.6823 25.0208 39.3281 24.6354 40.0156 24.3438C40.724 24.0312 41.4635 23.875 42.2344 23.875C42.651 23.875 42.974 23.9062 43.2031 23.9688C43.4323 24.0104 43.599 24.1146 43.7031 24.2812C43.8281 24.4271 43.901 24.6458 43.9219 24.9375C43.9427 25.2292 43.9427 25.6042 43.9219 26.0625C43.9219 26.5833 43.8281 27.1146 43.6406 27.6562C43.4531 28.1979 43.1927 28.7083 42.8594 29.1875C42.526 29.6667 42.1302 30.0938 41.6719 30.4688C41.2135 30.8229 40.724 31.0833 40.2031 31.25V30.8125C40.2031 30.375 40.2969 29.9583 40.4844 29.5625C40.6927 29.1667 40.9219 28.7708 41.1719 28.375C41.4219 27.9583 41.6406 27.5312 41.8281 27.0938C42.0365 26.6562 42.1406 26.1875 42.1406 25.6875C41.9115 25.6875 41.7135 25.6771 41.5469 25.6562C41.3802 25.6146 41.224 25.5938 41.0781 25.5938C40.9531 25.5729 40.8177 25.5938 40.6719 25.6562C40.5469 25.6979 40.3906 25.8021 40.2031 25.9688C39.1823 26.8021 38.1302 27.7812 37.0469 28.9062C35.9844 30.0104 35.0156 31.2083 34.1406 32.5C33.2656 33.7917 32.5469 35.1458 31.9844 36.5625C31.4427 37.9583 31.1719 39.3646 31.1719 40.7812C31.1719 40.8438 31.1719 40.9479 31.1719 41.0938C31.1927 41.2396 31.2031 41.3854 31.2031 41.5312C31.224 41.6771 31.2448 41.8125 31.2656 41.9375C31.2865 42.0625 31.2969 42.1354 31.2969 42.1562C31.526 42.3854 31.7969 42.5208 32.1094 42.5625C32.4427 42.6042 32.6927 42.625 32.8594 42.625C33.7552 42.625 34.5885 42.4688 35.3594 42.1562C36.151 41.8438 36.9219 41.5104 37.6719 41.1562C38.4219 40.7812 39.1719 40.4375 39.9219 40.125C40.6927 39.8125 41.5052 39.6562 42.3594 39.6562C42.3594 39.9896 42.1615 40.3646 41.7656 40.7812C41.3906 41.1771 40.8906 41.5729 40.2656 41.9688C39.6615 42.3646 38.9844 42.75 38.2344 43.125C37.4844 43.4792 36.7448 43.8021 36.0156 44.0938C35.3073 44.3854 34.651 44.6146 34.0469 44.7812C33.4635 44.9479 33.0156 45.0312 32.7031 45.0312C32.2448 45.0312 31.7865 44.9479 31.3281 44.7812C30.8698 44.5938 30.4531 44.3438 30.0781 44.0312C29.724 43.7188 29.4323 43.3542 29.2031 42.9375C28.974 42.5 28.8594 42.0312 28.8594 41.5312ZM42.8281 42.9688C43.0156 41.7812 43.3698 40.6875 43.8906 39.6875C44.4115 38.6875 45.0052 37.8229 45.6719 37.0938C46.3594 36.3438 47.099 35.7292 47.8906 35.25C48.6823 34.7708 49.4531 34.4688 50.2031 34.3438C50.9531 34.1979 51.6406 34.2292 52.2656 34.4375C52.9115 34.6458 53.4323 35.0625 53.8281 35.6875C53.8281 36.1667 53.7135 36.625 53.4844 37.0625C53.276 37.5 53.0365 37.9375 52.7656 38.375C52.5156 38.8125 52.276 39.2604 52.0469 39.7188C51.8385 40.1771 51.7344 40.6667 51.7344 41.1875C51.7344 41.7292 51.849 42.1667 52.0781 42.5C52.3281 42.8125 52.7552 42.9688 53.3594 42.9688C53.8594 42.9688 54.3385 42.8958 54.7969 42.75C55.276 42.6042 55.7552 42.5312 56.2344 42.5312C56.3177 42.5312 56.4531 42.5417 56.6406 42.5625C56.849 42.5625 56.9844 42.5625 57.0469 42.5625C56.7969 42.9167 56.474 43.2188 56.0781 43.4688C55.6823 43.7188 55.2656 43.9375 54.8281 44.125C54.3906 44.2917 53.9323 44.4167 53.4531 44.5C52.9948 44.5833 52.5677 44.625 52.1719 44.625C51.7969 44.625 51.4635 44.5417 51.1719 44.375C50.8802 44.2083 50.6302 43.9896 50.4219 43.7188C50.2135 43.4479 50.0469 43.1458 49.9219 42.8125C49.8177 42.4583 49.7656 42.1146 49.7656 41.7812C49.4531 42.1354 49.1094 42.5104 48.7344 42.9062C48.3802 43.2812 47.9948 43.625 47.5781 43.9375C47.1823 44.25 46.7448 44.5104 46.2656 44.7188C45.8073 44.9271 45.3281 45.0312 44.8281 45.0312C44.2865 45.0312 43.8177 44.8333 43.4219 44.4375C43.026 44.0208 42.8281 43.5312 42.8281 42.9688ZM44.8906 42C44.8906 42.1667 44.8906 42.3542 44.8906 42.5625C44.9115 42.7708 45.0469 42.9062 45.2969 42.9688C45.8177 42.8438 46.4115 42.5729 47.0781 42.1562C47.7448 41.7188 48.3698 41.2188 48.9531 40.6562C49.5365 40.0729 50.026 39.4583 50.4219 38.8125C50.8177 38.1458 51.0156 37.5104 51.0156 36.9062C51.0156 36.8646 51.0052 36.8021 50.9844 36.7188C50.9844 36.6146 50.9844 36.5417 50.9844 36.5C50.276 36.5 49.5573 36.6458 48.8281 36.9375C48.099 37.2292 47.4427 37.6354 46.8594 38.1562C46.276 38.6562 45.7969 39.2396 45.4219 39.9062C45.0677 40.5729 44.8906 41.2708 44.8906 42ZM63.0156 42.5938C63.0156 41.9688 63.1406 41.3958 63.3906 40.875C63.6615 40.3333 63.9531 39.8229 64.2656 39.3438C64.5781 38.8646 64.8594 38.3854 65.1094 37.9062C65.3802 37.4271 65.5156 36.9167 65.5156 36.375C65.5156 36.25 65.5052 36.1042 65.4844 35.9375C65.4844 35.75 65.4635 35.5729 65.4219 35.4062C65.401 35.2396 65.3385 35.1042 65.2344 35C65.151 34.875 65.0365 34.8125 64.8906 34.8125C64.8698 34.8125 64.8281 34.8229 64.7656 34.8438C64.724 34.8438 64.7031 34.8542 64.7031 34.875C64.4115 35.2708 64.0573 35.7188 63.6406 36.2188C63.2448 36.6979 62.8177 37.1771 62.3594 37.6562C61.901 38.1354 61.4531 38.5938 61.0156 39.0312C60.5781 39.4688 60.1823 39.8333 59.8281 40.125C59.5781 40.3542 59.2344 40.6667 58.7969 41.0625C58.3802 41.4583 57.9531 41.8542 57.5156 42.25C57.099 42.625 56.724 42.9583 56.3906 43.25C56.0781 43.5417 55.901 43.6875 55.8594 43.6875L54.4219 42.4688C54.6094 42.4688 54.7969 42.4271 54.9844 42.3438C55.151 42.2604 55.3177 42.1667 55.4844 42.0625C56.7344 41.2292 57.8594 40.2708 58.8594 39.1875C59.8802 38.1042 60.8802 36.9375 61.8594 35.6875C61.901 35.625 62.0052 35.4479 62.1719 35.1562C62.3594 34.8438 62.5573 34.5 62.7656 34.125C62.974 33.7292 63.1823 33.3438 63.3906 32.9688C63.599 32.5729 63.7552 32.2604 63.8594 32.0312C63.9844 31.7604 64.0573 31.5417 64.0781 31.375C64.1198 31.2083 64.151 31.0833 64.1719 31C64.2135 30.8958 64.276 30.8229 64.3594 30.7812C64.4427 30.7396 64.6198 30.7188 64.8906 30.7188C64.9323 30.7188 65.026 30.7292 65.1719 30.75C65.3385 30.7708 65.4427 30.7917 65.4844 30.8125C65.7552 31.375 65.9948 31.875 66.2031 32.3125C66.4115 32.75 66.5885 33.1667 66.7344 33.5625C66.8802 33.9375 66.9844 34.3229 67.0469 34.7188C67.1302 35.1146 67.1719 35.5521 67.1719 36.0312C66.901 36.7188 66.599 37.4271 66.2656 38.1562C65.9323 38.8646 65.651 39.5417 65.4219 40.1875C65.1927 40.8333 65.0469 41.4167 64.9844 41.9375C64.9427 42.4583 65.0573 42.875 65.3281 43.1875C65.6198 43.4792 66.099 43.6354 66.7656 43.6562C67.4531 43.6771 68.4219 43.5 69.6719 43.125C70.0052 43.2917 70.0365 43.5 69.7656 43.75C69.4948 43.9792 69.0781 44.1979 68.5156 44.4062C67.974 44.6146 67.3698 44.7917 66.7031 44.9375C66.0573 45.0625 65.5156 45.0938 65.0781 45.0312C64.6823 45.0312 64.349 44.9688 64.0781 44.8438C63.8281 44.6979 63.6198 44.5104 63.4531 44.2812C63.3073 44.0521 63.1927 43.7917 63.1094 43.5C63.0469 43.2083 63.0156 42.9062 63.0156 42.5938ZM69.0781 43.2188C69.0781 43.0938 69.0885 42.8958 69.1094 42.625C69.1302 42.3542 69.1406 42.1979 69.1406 42.1562C69.5573 40.4688 69.901 39.0208 70.1719 37.8125C70.4635 36.6042 70.7031 35.5833 70.8906 34.75C71.0781 33.9167 71.224 33.25 71.3281 32.75C71.4323 32.25 71.5052 31.8646 71.5469 31.5938C71.5885 31.3021 71.6094 31.1042 71.6094 31C71.6302 30.875 71.6406 30.7812 71.6406 30.7188C71.6406 30.5938 71.6406 30.375 71.6406 30.0625C71.6615 29.75 71.651 29.4375 71.6094 29.125C71.5677 28.7917 71.4844 28.5104 71.3594 28.2812C71.2552 28.0312 71.0677 27.9062 70.7969 27.9062C70.526 27.9062 70.2969 28 70.1094 28.1875C69.9427 28.3542 69.776 28.5312 69.6094 28.7188C69.4427 28.8854 69.2552 29.0312 69.0469 29.1562C68.8594 29.2812 68.6198 29.2917 68.3281 29.1875C68.6198 28.3125 68.9844 27.6875 69.4219 27.3125C69.8802 26.9375 70.5469 26.75 71.4219 26.75C71.9427 26.75 72.3281 26.8542 72.5781 27.0625C72.849 27.25 73.026 27.5104 73.1094 27.8438C73.2135 28.1562 73.2656 28.5208 73.2656 28.9375C73.2656 29.3542 73.2656 29.7812 73.2656 30.2188C73.2656 31.0104 73.1927 31.7917 73.0469 32.5625C72.9219 33.3333 72.776 34.1042 72.6094 34.875C72.4427 35.6458 72.2865 36.4167 72.1406 37.1875C72.0156 37.9583 71.9531 38.7396 71.9531 39.5312C71.9531 39.5729 71.9531 39.6771 71.9531 39.8438C71.974 39.9896 71.9844 40.0833 71.9844 40.125L72.3906 39.7188C74.099 37.2812 75.4635 35.3021 76.4844 33.7812C77.526 32.2604 78.349 31.0729 78.9531 30.2188C79.5573 29.3438 80.026 28.75 80.3594 28.4375C80.6927 28.125 81.0052 27.9688 81.2969 27.9688C81.5677 27.9688 81.776 28.0417 81.9219 28.1875C82.0885 28.3333 82.2135 28.5104 82.2969 28.7188C82.3802 28.9271 82.4323 29.1562 82.4531 29.4062C82.4948 29.6354 82.5156 29.8438 82.5156 30.0312V39.7188H82.9219L93.8281 23.125C94.3906 22.2917 94.974 21.75 95.5781 21.5C96.1823 21.2292 96.9531 21.2292 97.8906 21.5L94.6719 24.75C92.9219 27.4375 91.4427 29.7708 90.2344 31.75C89.0469 33.7083 88.0469 35.3854 87.2344 36.7812C86.4427 38.1562 85.7969 39.2812 85.2969 40.1562C84.8177 41.0104 84.4115 41.6875 84.0781 42.1875C83.7448 42.6667 83.4531 43 83.2031 43.1875C82.9531 43.3542 82.6615 43.4375 82.3281 43.4375C81.7656 43.4375 81.349 43.2604 81.0781 42.9062C80.8281 42.5521 80.651 42.1354 80.5469 41.6562C80.4635 41.1562 80.4219 40.6458 80.4219 40.125C80.4427 39.6042 80.4531 39.1771 80.4531 38.8438C80.4531 38.0938 80.4531 37.4167 80.4531 36.8125C80.474 36.1875 80.4948 35.5729 80.5156 34.9688C80.5573 34.3646 80.599 33.7396 80.6406 33.0938C80.7031 32.4271 80.7865 31.6667 80.8906 30.8125C79.0156 33.6667 77.474 35.9792 76.2656 37.75C75.0781 39.5208 74.1094 40.8958 73.3594 41.875C72.6094 42.8542 72.0156 43.5208 71.5781 43.875C71.1615 44.2083 70.776 44.375 70.4219 44.375C69.8594 44.375 69.4948 44.2917 69.3281 44.125C69.1615 43.9375 69.0781 43.6354 69.0781 43.2188ZM90.0156 42.9688C90.2031 41.7812 90.5573 40.6875 91.0781 39.6875C91.599 38.6875 92.1927 37.8229 92.8594 37.0938C93.5469 36.3438 94.2865 35.7292 95.0781 35.25C95.8698 34.7708 96.6406 34.4688 97.3906 34.3438C98.1406 34.1979 98.8281 34.2292 99.4531 34.4375C100.099 34.6458 100.62 35.0625 101.016 35.6875C101.016 36.1667 100.901 36.625 100.672 37.0625C100.464 37.5 100.224 37.9375 99.9531 38.375C99.7031 38.8125 99.4635 39.2604 99.2344 39.7188C99.026 40.1771 98.9219 40.6667 98.9219 41.1875C98.9219 41.7292 99.0365 42.1667 99.2656 42.5C99.5156 42.8125 99.9427 42.9688 100.547 42.9688C101.047 42.9688 101.526 42.8958 101.984 42.75C102.464 42.6042 102.943 42.5312 103.422 42.5312C103.505 42.5312 103.641 42.5417 103.828 42.5625C104.036 42.5625 104.172 42.5625 104.234 42.5625C103.984 42.9167 103.661 43.2188 103.266 43.4688C102.87 43.7188 102.453 43.9375 102.016 44.125C101.578 44.2917 101.12 44.4167 100.641 44.5C100.182 44.5833 99.7552 44.625 99.3594 44.625C98.9844 44.625 98.651 44.5417 98.3594 44.375C98.0677 44.2083 97.8177 43.9896 97.6094 43.7188C97.401 43.4479 97.2344 43.1458 97.1094 42.8125C97.0052 42.4583 96.9531 42.1146 96.9531 41.7812C96.6406 42.1354 96.2969 42.5104 95.9219 42.9062C95.5677 43.2812 95.1823 43.625 94.7656 43.9375C94.3698 44.25 93.9323 44.5104 93.4531 44.7188C92.9948 44.9271 92.5156 45.0312 92.0156 45.0312C91.474 45.0312 91.0052 44.8333 90.6094 44.4375C90.2135 44.0208 90.0156 43.5312 90.0156 42.9688ZM92.0781 42C92.0781 42.1667 92.0781 42.3542 92.0781 42.5625C92.099 42.7708 92.2344 42.9062 92.4844 42.9688C93.0052 42.8438 93.599 42.5729 94.2656 42.1562C94.9323 41.7188 95.5573 41.2188 96.1406 40.6562C96.724 40.0729 97.2135 39.4583 97.6094 38.8125C98.0052 38.1458 98.2031 37.5104 98.2031 36.9062C98.2031 36.8646 98.1927 36.8021 98.1719 36.7188C98.1719 36.6146 98.1719 36.5417 98.1719 36.5C97.4635 36.5 96.7448 36.6458 96.0156 36.9375C95.2865 37.2292 94.6302 37.6354 94.0469 38.1562C93.4635 38.6562 92.9844 39.2396 92.6094 39.9062C92.2552 40.5729 92.0781 41.2708 92.0781 42ZM103.328 41.5312C103.328 41.1354 103.38 40.7917 103.484 40.5C103.609 40.2083 103.911 40.0625 104.391 40.0625C104.432 40.0625 104.526 40.0729 104.672 40.0938C104.839 40.0938 104.953 40.1042 105.016 40.125C104.995 41.1042 105.151 41.8438 105.484 42.3438C105.818 42.8229 106.443 43.0625 107.359 43.0625C108.109 43.0625 108.849 42.9479 109.578 42.7188C110.307 42.4896 110.964 42.1562 111.547 41.7188C112.151 41.2604 112.63 40.7083 112.984 40.0625C113.359 39.4167 113.547 38.6875 113.547 37.875C113.547 37.375 113.37 37.0208 113.016 36.8125C112.682 36.6042 112.307 36.4375 111.891 36.3125C111.474 36.1875 111.089 36.0521 110.734 35.9062C110.401 35.7396 110.234 35.4583 110.234 35.0625C110.234 34.5833 110.526 34.125 111.109 33.6875C111.693 33.25 112.38 32.8646 113.172 32.5312C113.964 32.1771 114.745 31.9062 115.516 31.7188C116.307 31.5104 116.911 31.4062 117.328 31.4062C117.328 32.0104 117.193 32.4375 116.922 32.6875C116.672 32.9375 116.359 33.1354 115.984 33.2812C115.609 33.4271 115.224 33.5729 114.828 33.7188C114.453 33.8438 114.141 34.0938 113.891 34.4688C114.224 34.7396 114.495 34.9896 114.703 35.2188C114.932 35.4271 115.109 35.6562 115.234 35.9062C115.359 36.1562 115.443 36.4375 115.484 36.75C115.526 37.0417 115.547 37.3958 115.547 37.8125C115.547 38.8958 115.307 39.8854 114.828 40.7812C114.37 41.6562 113.766 42.4167 113.016 43.0625C112.266 43.6875 111.411 44.1771 110.453 44.5312C109.495 44.8646 108.516 45.0312 107.516 45.0312C106.974 45.0312 106.443 44.9688 105.922 44.8438C105.422 44.6979 104.974 44.4792 104.578 44.1875C104.203 43.8958 103.901 43.5312 103.672 43.0938C103.443 42.6562 103.328 42.1354 103.328 41.5312ZM128.984 45.0312C128.464 45.1146 127.984 45.0312 127.547 44.7812C127.13 44.5104 126.797 44.1667 126.547 43.75C126.297 43.3125 126.151 42.8438 126.109 42.3438C126.068 41.8229 126.172 41.3542 126.422 40.9375C127.339 39.75 127.964 38.8125 128.297 38.125C128.63 37.4167 128.745 36.9271 128.641 36.6562C128.557 36.3646 128.297 36.25 127.859 36.3125C127.443 36.3542 126.932 36.5417 126.328 36.875C125.724 37.1875 125.068 37.6042 124.359 38.125C123.672 38.6458 123.026 39.2188 122.422 39.8438C121.818 40.4688 121.286 41.125 120.828 41.8125C120.391 42.4792 120.109 43.1354 119.984 43.7812C119.776 43.9062 119.599 44.0104 119.453 44.0938C119.307 44.1562 119.141 44.1875 118.953 44.1875C118.641 44.1875 118.453 44.0833 118.391 43.875C118.328 43.6667 118.297 43.4479 118.297 43.2188C118.297 42.6979 118.453 42.1667 118.766 41.625C119.099 41.0625 119.474 40.5417 119.891 40.0625C120.328 39.5625 120.745 39.1146 121.141 38.7188C121.536 38.3021 121.818 37.9688 121.984 37.7188C122.505 36.8646 123.026 35.9479 123.547 34.9688C124.068 33.9688 124.589 32.9583 125.109 31.9375C125.63 30.8958 126.161 29.875 126.703 28.875C127.266 27.8542 127.849 26.8854 128.453 25.9688C128.557 25.8021 128.641 25.6875 128.703 25.625C128.786 25.5625 128.901 25.5312 129.047 25.5312C129.214 25.5312 129.339 25.5625 129.422 25.625C129.505 25.6875 129.589 25.8021 129.672 25.9688C129.672 26.0521 129.651 26.1875 129.609 26.375C129.589 26.5625 129.557 26.7708 129.516 27C129.495 27.2083 129.453 27.4062 129.391 27.5938C129.349 27.7812 129.318 27.9062 129.297 27.9688C129.172 28.2188 128.964 28.6562 128.672 29.2812C128.38 29.9062 128.057 30.5729 127.703 31.2812C127.37 31.9896 127.047 32.6875 126.734 33.375C126.422 34.0417 126.193 34.5417 126.047 34.875C126.359 34.6667 126.641 34.5104 126.891 34.4062C127.141 34.2812 127.38 34.1979 127.609 34.1562C127.859 34.0938 128.109 34.0625 128.359 34.0625C128.63 34.0417 128.922 34.0312 129.234 34.0312C129.984 34.2188 130.474 34.5 130.703 34.875C130.953 35.25 131.026 35.6875 130.922 36.1875C130.839 36.6667 130.641 37.1979 130.328 37.7812C130.016 38.3646 129.682 38.9583 129.328 39.5625C128.995 40.1458 128.693 40.7188 128.422 41.2812C128.151 41.8229 128.026 42.3229 128.047 42.7812C128.047 42.9688 128.089 43.1042 128.172 43.1875C128.255 43.2708 128.359 43.3333 128.484 43.375C128.609 43.4167 128.745 43.4375 128.891 43.4375C129.036 43.4375 129.172 43.4375 129.297 43.4375C129.734 43.4375 130.151 43.375 130.547 43.25C130.964 43.1042 131.37 42.9479 131.766 42.7812C132.161 42.6146 132.557 42.4688 132.953 42.3438C133.37 42.1979 133.797 42.125 134.234 42.125C134.234 42.5208 134.036 42.8958 133.641 43.25C133.245 43.6042 132.766 43.9167 132.203 44.1875C131.661 44.4375 131.089 44.6458 130.484 44.8125C129.88 44.9583 129.38 45.0312 128.984 45.0312Z" fill="white"/>
<path d="M148.859 38.0938C148.859 37.7604 148.88 37.3958 148.922 37C148.964 36.5833 149.057 36.2083 149.203 35.875C149.349 35.5417 149.557 35.2604 149.828 35.0312C150.12 34.8021 150.505 34.6875 150.984 34.6875C150.984 34.9583 150.953 35.2083 150.891 35.4375C150.849 35.6667 150.786 35.8958 150.703 36.125C150.641 36.3542 150.578 36.6042 150.516 36.875C150.474 37.125 150.453 37.4062 150.453 37.7188C150.453 38.5104 150.557 39.25 150.766 39.9375C150.974 40.625 151.286 41.2292 151.703 41.75C152.141 42.25 152.672 42.6458 153.297 42.9375C153.943 43.2292 154.703 43.375 155.578 43.375C155.953 43.375 156.411 43.2917 156.953 43.125C157.495 42.9583 158.036 42.7604 158.578 42.5312C159.12 42.3021 159.62 42.0729 160.078 41.8438C160.536 41.6146 160.859 41.4479 161.047 41.3438C161.505 41.0938 161.87 40.75 162.141 40.3125C162.411 39.8542 162.62 39.3646 162.766 38.8438C162.911 38.3021 163.005 37.7604 163.047 37.2188C163.089 36.6562 163.109 36.1562 163.109 35.7188C163.109 35.0104 163.036 34.3229 162.891 33.6562C162.766 32.9688 162.62 32.2917 162.453 31.625C162.307 30.9583 162.161 30.2917 162.016 29.625C161.891 28.9583 161.828 28.2812 161.828 27.5938C162.057 26.9479 162.411 26.3646 162.891 25.8438C163.391 25.3021 163.953 24.8438 164.578 24.4688C165.224 24.0729 165.911 23.7604 166.641 23.5312C167.37 23.3021 168.078 23.1667 168.766 23.125C169.328 23.2708 169.755 23.4583 170.047 23.6875C170.339 23.8958 170.536 24.125 170.641 24.375C170.766 24.625 170.797 24.8646 170.734 25.0938C170.672 25.3229 170.568 25.5312 170.422 25.7188C170.193 25.2188 169.891 24.8854 169.516 24.7188C169.161 24.5521 168.755 24.5 168.297 24.5625C167.859 24.625 167.411 24.7812 166.953 25.0312C166.495 25.2812 166.057 25.5625 165.641 25.875C165.224 26.1875 164.859 26.5208 164.547 26.875C164.234 27.2083 164.005 27.5 163.859 27.75C163.859 28.375 163.922 28.9896 164.047 29.5938C164.193 30.1771 164.339 30.7708 164.484 31.375C164.651 31.9583 164.797 32.5521 164.922 33.1562C165.068 33.7396 165.141 34.3438 165.141 34.9688C165.141 36.4688 164.901 37.8438 164.422 39.0938C163.964 40.3229 163.286 41.3854 162.391 42.2812C161.516 43.1562 160.443 43.8333 159.172 44.3125C157.922 44.7917 156.516 45.0312 154.953 45.0312C153.974 45.0312 153.099 44.8333 152.328 44.4375C151.578 44.0417 150.943 43.5208 150.422 42.875C149.922 42.2083 149.536 41.4583 149.266 40.625C148.995 39.7917 148.859 38.9479 148.859 38.0938ZM167.266 42.9688C167.266 42.6771 167.297 42.4271 167.359 42.2188C167.422 41.9896 167.536 41.6979 167.703 41.3438C167.849 41.1354 168.109 40.7396 168.484 40.1562C168.88 39.5729 169.286 38.9583 169.703 38.3125C170.141 37.6667 170.547 37.0625 170.922 36.5C171.318 35.9167 171.589 35.5104 171.734 35.2812C171.922 35.0104 172.068 34.8646 172.172 34.8438C172.276 34.8229 172.474 34.8125 172.766 34.8125C172.953 34.8125 173.151 34.8229 173.359 34.8438C173.589 34.8646 173.734 35.0104 173.797 35.2812C173.505 35.9896 173.109 36.6667 172.609 37.3125C172.13 37.9375 171.651 38.5625 171.172 39.1875C170.714 39.8125 170.307 40.4583 169.953 41.125C169.599 41.7708 169.422 42.4688 169.422 43.2188C169.505 43.2188 169.63 43.2292 169.797 43.25C169.984 43.2708 170.182 43.2917 170.391 43.3125C170.599 43.3333 170.786 43.3542 170.953 43.375C171.141 43.3958 171.276 43.3958 171.359 43.375C171.484 43.3542 171.693 43.3125 171.984 43.25C172.297 43.1667 172.62 43.0833 172.953 43C173.307 42.9167 173.641 42.8333 173.953 42.75C174.266 42.6667 174.484 42.6042 174.609 42.5625C174.609 42.6042 174.609 42.6771 174.609 42.7812C174.63 42.8646 174.641 42.9271 174.641 42.9688C174.641 43.3854 174.443 43.7292 174.047 44C173.672 44.2708 173.224 44.4896 172.703 44.6562C172.203 44.8021 171.682 44.9062 171.141 44.9688C170.62 45.0104 170.214 45.0312 169.922 45.0312C169.609 45.0312 169.286 45 168.953 44.9375C168.641 44.8542 168.359 44.7292 168.109 44.5625C167.859 44.3958 167.651 44.1875 167.484 43.9375C167.339 43.6667 167.266 43.3438 167.266 42.9688ZM176.359 24.6562C176.63 24.6562 176.88 24.6667 177.109 24.6875C177.339 24.7083 177.536 24.7604 177.703 24.8438C177.87 24.9271 178.005 25.0521 178.109 25.2188C178.214 25.3854 178.266 25.6146 178.266 25.9062C178.266 26.0312 178.266 26.1667 178.266 26.3125C178.266 26.4583 178.245 26.6042 178.203 26.75C178.182 26.875 178.13 26.9896 178.047 27.0938C177.964 27.1771 177.828 27.2188 177.641 27.2188C177.349 27.2188 177.109 27.1146 176.922 26.9062C176.755 26.6979 176.63 26.4583 176.547 26.1875C176.464 25.8958 176.411 25.6042 176.391 25.3125C176.37 25.0208 176.359 24.8021 176.359 24.6562ZM189.922 45.0312C189.526 45.0312 189.161 44.9583 188.828 44.8125C188.516 44.6667 188.255 44.4583 188.047 44.1875C187.839 43.9167 187.693 43.6146 187.609 43.2812C187.526 42.9271 187.536 42.5521 187.641 42.1562C187.641 41.4896 187.755 40.875 187.984 40.3125C188.234 39.7292 188.505 39.1771 188.797 38.6562C189.109 38.1146 189.38 37.5833 189.609 37.0625C189.859 36.5208 189.984 35.9479 189.984 35.3438C189.526 35.3438 189.036 35.4896 188.516 35.7812C187.995 36.0729 187.464 36.4583 186.922 36.9375C186.401 37.4167 185.88 37.9583 185.359 38.5625C184.859 39.1458 184.38 39.7396 183.922 40.3438C183.484 40.9271 183.099 41.4896 182.766 42.0312C182.453 42.5729 182.214 43.0208 182.047 43.375C182.005 43.3958 181.901 43.4167 181.734 43.4375C181.568 43.4375 181.464 43.4375 181.422 43.4375C181.089 43.6042 180.88 43.6042 180.797 43.4375C180.734 43.25 180.734 42.9688 180.797 42.5938C180.88 42.2188 181.005 41.8021 181.172 41.3438C181.339 40.8646 181.495 40.4167 181.641 40C181.807 39.5625 181.932 39.2083 182.016 38.9375C182.099 38.6458 182.109 38.5 182.047 38.5C182.109 38.4167 182.182 38.2812 182.266 38.0938C182.349 37.9062 182.432 37.7083 182.516 37.5C182.599 37.2917 182.672 37.1042 182.734 36.9375C182.797 36.75 182.828 36.6042 182.828 36.5C182.828 36.3125 182.755 36.1979 182.609 36.1562C182.484 36.0938 182.359 36.0625 182.234 36.0625C181.859 35.8542 181.453 35.9792 181.016 36.4375C180.599 36.875 180.141 37.5104 179.641 38.3438C179.161 39.1562 178.63 40.0938 178.047 41.1562C177.484 42.1979 176.859 43.2083 176.172 44.1875C175.693 44.1875 175.328 44.125 175.078 44C174.828 43.875 174.703 43.5625 174.703 43.0625C174.87 42.8333 175.12 42.4062 175.453 41.7812C175.786 41.1354 176.161 40.4271 176.578 39.6562C176.995 38.8854 177.432 38.1042 177.891 37.3125C178.37 36.5208 178.818 35.8542 179.234 35.3125C179.672 34.75 180.057 34.375 180.391 34.1875C180.745 33.9792 181.026 34.0729 181.234 34.4688C181.589 34.2396 181.974 34.0417 182.391 33.875C182.828 33.7083 183.266 33.625 183.703 33.625C183.995 33.625 184.234 33.7188 184.422 33.9062C184.63 34.0729 184.786 34.2917 184.891 34.5625C185.016 34.8125 185.109 35.0833 185.172 35.375C185.234 35.6458 185.266 35.8854 185.266 36.0938C185.495 35.9479 185.87 35.6979 186.391 35.3438C186.932 34.9688 187.505 34.5938 188.109 34.2188C188.734 33.8438 189.339 33.5208 189.922 33.25C190.526 32.9583 191.016 32.8125 191.391 32.8125C191.724 32.8125 192.005 32.9375 192.234 33.1875C192.484 33.4167 192.609 33.7083 192.609 34.0625C191.859 35.8958 191.266 37.3646 190.828 38.4688C190.411 39.5729 190.13 40.4375 189.984 41.0625C189.859 41.6667 189.859 42.1042 189.984 42.375C190.13 42.625 190.38 42.8229 190.734 42.9688C191.297 42.9688 191.839 42.875 192.359 42.6875C192.88 42.5 193.391 42.2917 193.891 42.0625C194.411 41.8333 194.932 41.625 195.453 41.4375C195.974 41.25 196.526 41.1562 197.109 41.1562C197.109 41.3854 197.047 41.6042 196.922 41.8125C196.818 42 196.651 42.1458 196.422 42.25C196.255 42.3542 195.953 42.5208 195.516 42.75C195.099 42.9583 194.641 43.1875 194.141 43.4375C193.641 43.6667 193.161 43.8958 192.703 44.125C192.266 44.3542 191.953 44.5104 191.766 44.5938C191.349 44.7812 191.026 44.9062 190.797 44.9688C190.589 45.0104 190.297 45.0312 189.922 45.0312ZM192.359 53.75C192.359 53.7292 192.37 53.6875 192.391 53.625C192.391 53.5625 192.391 53.5208 192.391 53.5C192.411 53.4375 192.443 53.3438 192.484 53.2188C192.526 53.1146 192.568 53 192.609 52.875C192.651 52.75 192.693 52.625 192.734 52.5C192.776 52.3958 192.807 52.3229 192.828 52.2812C192.953 51.9896 193.161 51.5208 193.453 50.875C193.745 50.25 194.078 49.5312 194.453 48.7188C194.828 47.9271 195.224 47.0938 195.641 46.2188C196.036 45.3438 196.422 44.5104 196.797 43.7188C197.172 42.9062 197.505 42.1875 197.797 41.5625C198.109 40.9167 198.339 40.4375 198.484 40.125C198.755 39.6875 199.13 39.1771 199.609 38.5938C200.109 38.0104 200.661 37.4167 201.266 36.8125C201.87 36.2083 202.516 35.625 203.203 35.0625C203.911 34.4792 204.599 33.9688 205.266 33.5312C205.953 33.0729 206.62 32.7083 207.266 32.4375C207.911 32.1458 208.484 32 208.984 32C209.734 32 210.266 32.1354 210.578 32.4062C210.891 32.6771 211.047 33.2292 211.047 34.0625C211.047 34.9583 210.87 35.8542 210.516 36.75C210.182 37.625 209.724 38.4583 209.141 39.25C208.557 40.0417 207.87 40.7604 207.078 41.4062C206.307 42.0521 205.484 42.5833 204.609 43C203.755 43.4167 202.87 43.7083 201.953 43.875C201.036 44.0208 200.151 43.9896 199.297 43.7812L198.891 44.1875L194.828 54.3125C194.766 54.5 194.589 54.6146 194.297 54.6562C194.005 54.7188 193.766 54.75 193.578 54.75C193.307 54.75 193.036 54.6562 192.766 54.4688C192.495 54.3021 192.359 54.0625 192.359 53.75ZM206.984 38.5312C207.964 37.4896 208.599 36.6667 208.891 36.0625C209.182 35.4375 209.245 35 209.078 34.75C208.911 34.5 208.578 34.4062 208.078 34.4688C207.578 34.5312 207.016 34.7083 206.391 35C205.766 35.2917 205.13 35.6771 204.484 36.1562C203.859 36.6354 203.339 37.1562 202.922 37.7188C202.734 37.9271 202.505 38.2083 202.234 38.5625C201.964 38.8958 201.693 39.2396 201.422 39.5938C201.172 39.9271 200.953 40.2292 200.766 40.5C200.578 40.7708 200.484 40.9271 200.484 40.9688V41.625C201.922 41.625 203.151 41.4167 204.172 41C205.193 40.5625 206.13 39.7396 206.984 38.5312ZM212.047 42.1562C212.047 42.0104 212.057 41.7917 212.078 41.5C212.12 41.1875 212.161 40.8854 212.203 40.5938C212.245 40.3021 212.286 40.0417 212.328 39.8125C212.37 39.5625 212.411 39.4062 212.453 39.3438L218.141 27.9688C218.224 27.8021 218.38 27.5729 218.609 27.2812C218.859 26.9688 219.12 26.6562 219.391 26.3438C219.682 26.0104 219.964 25.7083 220.234 25.4375C220.526 25.1458 220.766 24.9167 220.953 24.75C221.099 24.7917 221.203 24.8646 221.266 24.9688C221.328 25.0729 221.37 25.1979 221.391 25.3438C221.411 25.4688 221.411 25.5938 221.391 25.7188C221.391 25.8438 221.391 25.9479 221.391 26.0312C221.391 26.1354 221.391 26.2812 221.391 26.4688C221.391 26.6562 221.38 26.75 221.359 26.75C221.151 27.3125 220.828 27.9792 220.391 28.75C219.953 29.5208 219.464 30.3438 218.922 31.2188C218.38 32.0938 217.818 33.0104 217.234 33.9688C216.672 34.9062 216.151 35.8438 215.672 36.7812C215.214 37.6979 214.828 38.5833 214.516 39.4375C214.224 40.2917 214.078 41.0729 214.078 41.7812C214.078 42.1562 214.182 42.4583 214.391 42.6875C214.62 42.8958 214.859 43.0833 215.109 43.25C215.359 43.4167 215.589 43.5833 215.797 43.75C216.026 43.9167 216.141 44.1458 216.141 44.4375C216.141 44.625 216.057 44.7708 215.891 44.875C215.724 44.9583 215.526 45 215.297 45C214.422 45 213.661 44.7604 213.016 44.2812C212.37 43.7812 212.047 43.0729 212.047 42.1562ZM220.328 43.375C219.974 42.5833 219.818 41.8125 219.859 41.0625C219.901 40.2917 220.068 39.5729 220.359 38.9062C220.672 38.2188 221.068 37.6042 221.547 37.0625C222.047 36.5 222.578 36.0208 223.141 35.625C223.703 35.2083 224.266 34.8958 224.828 34.6875C225.411 34.4792 225.922 34.3958 226.359 34.4375C226.797 34.4583 227.141 34.6146 227.391 34.9062C227.641 35.1979 227.724 35.6458 227.641 36.25C227.641 37.0625 227.38 37.7708 226.859 38.375C226.359 38.9792 225.797 39.5208 225.172 40C224.568 40.4792 224.005 40.9167 223.484 41.3125C222.984 41.6875 222.734 42.0417 222.734 42.375C222.734 42.5625 222.839 42.7083 223.047 42.8125C223.276 42.9167 223.536 43 223.828 43.0625C224.12 43.1042 224.411 43.1354 224.703 43.1562C224.995 43.1771 225.203 43.1979 225.328 43.2188C227.286 42.8021 228.755 42.5521 229.734 42.4688C230.714 42.3646 231.328 42.375 231.578 42.5C231.828 42.6042 231.776 42.7812 231.422 43.0312C231.089 43.2604 230.568 43.5104 229.859 43.7812C229.151 44.0312 228.328 44.2604 227.391 44.4688C226.453 44.6771 225.526 44.8021 224.609 44.8438C223.693 44.8646 222.839 44.7708 222.047 44.5625C221.276 44.3542 220.703 43.9583 220.328 43.375ZM225.797 36.25C225.38 36.25 224.984 36.3646 224.609 36.5938C224.234 36.8229 223.891 37.1146 223.578 37.4688C223.286 37.8021 223.036 38.1771 222.828 38.5938C222.62 38.9896 222.464 39.3646 222.359 39.7188C222.401 39.7396 222.432 39.75 222.453 39.75H222.547C222.839 39.75 223.172 39.625 223.547 39.375C223.922 39.125 224.276 38.8229 224.609 38.4688C224.943 38.0938 225.224 37.7083 225.453 37.3125C225.682 36.9167 225.797 36.5625 225.797 36.25Z" fill="black"/>
</svg>
