<svg width="175" height="63" viewBox="0 0 175 63" fill="none" xmlns="http://www.w3.org/2000/svg">
<path d="M18.8379 40.5188C29.2379 44.9188 43.3379 28.8523 48.8379 20.519C61.3379 17.519 69.3379 29.519 77.8379 37.519C88.3379 44.019 98.3379 41.019 102.338 37.519C120.738 18.719 132.338 18.6856 135.838 21.0188C144.238 37.0188 155.436 40.4359 160.103 40.2693C175.703 39.0691 172.5 24.5 168.265 17.7504C138.265 -14.2496 104.838 6.68555 91.8379 21.0188C82.3379 10.0188 66.3379 0.518833 48.3379 1.01883C33.9379 1.41883 20.3379 12.8522 15.3379 18.5188C12.1712 24.0188 8.43788 36.1188 18.8379 40.5188Z" fill="url(#paint0_linear_23_44)" stroke="black"/>
<path d="M14.3203 48.1846H16.5615L16.3374 49.2554C17.2118 48.4032 18.1304 47.9771 19.0933 47.9771C19.7573 47.9771 20.2692 48.1154 20.6289 48.3921C20.9886 48.6688 21.2183 49.0506 21.3179 49.5376C21.6222 49.0949 22.0594 48.7241 22.6294 48.4253C23.1994 48.1265 23.7915 47.9771 24.4058 47.9771C25.1086 47.9771 25.6564 48.1652 26.0493 48.5415C26.4422 48.9178 26.6387 49.4159 26.6387 50.0356C26.6387 50.34 26.5612 50.8657 26.4062 51.6128L25.2773 57H22.895L24.0239 51.6128C24.1623 50.9377 24.2314 50.5558 24.2314 50.4673C24.2314 50.2238 24.1567 50.0329 24.0073 49.8945C23.8634 49.7507 23.6449 49.6787 23.3516 49.6787C22.7594 49.6787 22.231 49.9914 21.7661 50.6167C21.4285 51.0649 21.1408 51.859 20.9028 52.999L20.0645 57H17.6821L18.7944 51.6709C18.9217 51.0566 18.9854 50.6582 18.9854 50.4756C18.9854 50.2432 18.9051 50.0522 18.7446 49.9028C18.5897 49.7534 18.3739 49.6787 18.0972 49.6787C17.8371 49.6787 17.5687 49.7562 17.292 49.9111C17.0153 50.0661 16.7718 50.2791 16.5615 50.5503C16.3568 50.8215 16.1797 51.1701 16.0303 51.5962C15.9639 51.7954 15.856 52.2464 15.7065 52.9492L14.8599 57H12.4775L14.3203 48.1846ZM36.2593 53.3311H30.2827C30.2772 53.4251 30.2744 53.4971 30.2744 53.5469C30.2744 54.1335 30.4404 54.6066 30.7725 54.9663C31.11 55.326 31.5195 55.5059 32.001 55.5059C32.7923 55.5059 33.4093 55.0964 33.8521 54.2773L35.9854 54.6343C35.5703 55.492 35.0142 56.1367 34.3169 56.5684C33.6252 56.9945 32.8477 57.2075 31.9844 57.2075C30.8001 57.2075 29.8372 56.834 29.0957 56.0869C28.3542 55.3343 27.9834 54.341 27.9834 53.1069C27.9834 51.9006 28.3182 50.827 28.9878 49.8862C29.9009 48.6134 31.2041 47.9771 32.8975 47.9771C33.9766 47.9771 34.8343 48.3118 35.4707 48.9814C36.1071 49.6455 36.4253 50.578 36.4253 51.7788C36.4253 52.3543 36.37 52.8717 36.2593 53.3311ZM34.2505 51.8784C34.256 51.7733 34.2588 51.693 34.2588 51.6377C34.2588 50.9847 34.1121 50.495 33.8188 50.1685C33.5256 49.842 33.1326 49.6787 32.6401 49.6787C32.1476 49.6787 31.7049 49.8641 31.312 50.2349C30.9246 50.6056 30.6618 51.1535 30.5234 51.8784H34.2505ZM37.0146 57.4648L39.5298 57.8301C39.5298 58.0846 39.5713 58.2756 39.6543 58.4028C39.7373 58.5356 39.8701 58.6463 40.0527 58.7349C40.2409 58.8289 40.4954 58.876 40.8164 58.876C41.32 58.876 41.724 58.7764 42.0283 58.5771C42.2552 58.4222 42.4406 58.1732 42.5845 57.8301C42.673 57.6143 42.7865 57.1439 42.9248 56.4189L43.0078 56.0039C42.1833 56.6901 41.3311 57.0332 40.4512 57.0332C39.5879 57.0332 38.8796 56.7288 38.3262 56.1201C37.7728 55.5114 37.4961 54.6204 37.4961 53.4473C37.4961 52.4124 37.6842 51.4634 38.0605 50.6001C38.4368 49.7368 38.9653 49.0838 39.646 48.6411C40.3267 48.1984 41.0212 47.9771 41.7295 47.9771C42.3161 47.9771 42.8529 48.132 43.3398 48.4419C43.8268 48.7518 44.2059 49.1862 44.4771 49.7451L44.8091 48.1846H47.042L45.5146 55.5308C45.2656 56.7095 45.0553 57.5506 44.8838 58.0542C44.7122 58.5578 44.5158 58.959 44.2944 59.2578C44.0731 59.5566 43.7936 59.8057 43.4561 60.0049C43.1185 60.2096 42.7201 60.3563 42.2607 60.4448C41.8014 60.5334 41.3034 60.5776 40.7666 60.5776C39.5215 60.5776 38.5807 60.3646 37.9443 59.9385C37.3079 59.5124 36.9897 58.804 36.9897 57.8135C36.9897 57.7083 36.998 57.5921 37.0146 57.4648ZM39.8203 53.2065C39.8203 53.8761 39.9697 54.388 40.2686 54.7422C40.5729 55.0908 40.952 55.2651 41.4058 55.2651C41.8208 55.2651 42.222 55.1074 42.6094 54.792C43.0023 54.4766 43.3011 54.0283 43.5059 53.4473C43.7161 52.8662 43.8213 52.3045 43.8213 51.7622C43.8213 51.1369 43.6525 50.6333 43.3149 50.2515C42.9774 49.8696 42.5872 49.6787 42.1445 49.6787C41.7184 49.6787 41.3255 49.8475 40.9658 50.1851C40.6117 50.5226 40.3184 51.0428 40.0859 51.7456C39.9089 52.2879 39.8203 52.7749 39.8203 53.2065ZM50.8936 50.6831L48.5693 50.4839C48.835 49.6981 49.297 49.0838 49.9556 48.6411C50.6196 48.1984 51.4967 47.9771 52.5869 47.9771C53.7214 47.9771 54.5597 48.2067 55.1021 48.666C55.6444 49.1198 55.9155 49.6759 55.9155 50.3345C55.9155 50.6001 55.8906 50.8823 55.8408 51.1812C55.7965 51.48 55.6333 52.2658 55.3511 53.5386C55.1187 54.59 55.0024 55.326 55.0024 55.7466C55.0024 56.1229 55.0688 56.5407 55.2017 57H52.8857C52.7917 56.679 52.7336 56.347 52.7114 56.0039C52.3628 56.3913 51.9616 56.6901 51.5078 56.9004C51.054 57.1051 50.5975 57.2075 50.1382 57.2075C49.4077 57.2075 48.8045 56.9696 48.3286 56.4937C47.8527 56.0122 47.6147 55.3952 47.6147 54.6426C47.6147 53.8014 47.8748 53.1291 48.395 52.6255C48.9207 52.1219 49.856 51.8175 51.2007 51.7124C52.3351 51.6183 53.0933 51.5049 53.4751 51.3721C53.5747 51.04 53.6245 50.7744 53.6245 50.5752C53.6245 50.3206 53.5221 50.1076 53.3174 49.936C53.1126 49.7645 52.8083 49.6787 52.4043 49.6787C51.9782 49.6787 51.6406 49.7673 51.3916 49.9443C51.1481 50.1159 50.9821 50.3621 50.8936 50.6831ZM53.1597 52.8911C53.0158 52.9299 52.8249 52.9658 52.5869 52.999C51.3916 53.1429 50.6113 53.3532 50.2461 53.6299C49.986 53.8291 49.856 54.0975 49.856 54.4351C49.856 54.7118 49.9556 54.9469 50.1548 55.1406C50.354 55.3288 50.6169 55.4229 50.9434 55.4229C51.3031 55.4229 51.6406 55.3371 51.9561 55.1655C52.277 54.9884 52.515 54.7643 52.6699 54.4932C52.8304 54.2165 52.9715 53.7876 53.0933 53.2065L53.1597 52.8911ZM61.6016 57L63.4443 48.1846H64.9468L64.6396 49.6372C65.1986 49.0119 65.6966 48.5802 66.1338 48.3423C66.5765 48.1043 67.0552 47.9854 67.5698 47.9854C68.1177 47.9854 68.5742 48.132 68.9395 48.4253C69.3102 48.7131 69.5537 49.117 69.6699 49.6372C70.1182 49.0838 70.5885 48.6715 71.0811 48.4004C71.5791 48.1237 72.1021 47.9854 72.6499 47.9854C73.3859 47.9854 73.9365 48.1597 74.3018 48.5083C74.6725 48.8569 74.8579 49.3467 74.8579 49.9775C74.8579 50.2487 74.7943 50.6969 74.667 51.3223L73.48 57H71.9775L73.1895 51.1729C73.2946 50.6969 73.3472 50.3566 73.3472 50.1519C73.3472 49.8641 73.2559 49.6372 73.0732 49.4712C72.8906 49.3052 72.6333 49.2222 72.3013 49.2222C71.853 49.2222 71.3965 49.3577 70.9316 49.6289C70.4668 49.9001 70.1043 50.257 69.8442 50.6997C69.5897 51.1369 69.3656 51.812 69.1719 52.7251L68.2754 57H66.7729L68.0181 51.0483C68.1066 50.6444 68.1509 50.3566 68.1509 50.1851C68.1509 49.8973 68.0596 49.6649 67.877 49.4878C67.6999 49.3107 67.4674 49.2222 67.1797 49.2222C66.7536 49.2222 66.3053 49.3577 65.835 49.6289C65.3701 49.9001 64.991 50.2791 64.6978 50.7661C64.4045 51.2476 64.1637 51.9365 63.9756 52.833L63.104 57H61.6016ZM81.7891 55.4062C80.7321 56.6016 79.6502 57.1992 78.5435 57.1992C77.8628 57.1992 77.3122 57.0055 76.8916 56.6182C76.4766 56.2253 76.269 55.7466 76.269 55.1821C76.269 54.8114 76.3631 54.175 76.5513 53.2729L77.6138 48.1846H79.1162L77.9375 53.8208C77.8379 54.2912 77.7881 54.6564 77.7881 54.9165C77.7881 55.2485 77.8877 55.5086 78.0869 55.6968C78.2917 55.8794 78.5905 55.9707 78.9834 55.9707C79.404 55.9707 79.8135 55.8683 80.2119 55.6636C80.6159 55.4588 80.9618 55.1821 81.2495 54.8335C81.5428 54.4849 81.7808 54.0726 81.9634 53.5967C82.0851 53.2923 82.2262 52.7583 82.3867 51.9946L83.1836 48.1846H84.686L82.8433 57H81.457L81.7891 55.4062ZM85.1177 57L87.6577 44.8311H89.1602L86.6201 57H85.1177ZM92.5303 55.7798L92.2812 57.0083C91.9215 57.1024 91.5729 57.1494 91.2354 57.1494C90.6377 57.1494 90.1618 57.0028 89.8076 56.7095C89.542 56.4881 89.4092 56.1865 89.4092 55.8047C89.4092 55.611 89.4811 55.1655 89.625 54.4683L90.6958 49.3467H89.5088L89.7495 48.1846H90.9365L91.3931 46.0181L93.1113 44.9805L92.439 48.1846H93.9165L93.6675 49.3467H92.1982L91.1772 54.2192C91.05 54.839 90.9863 55.2098 90.9863 55.3315C90.9863 55.5086 91.0361 55.6442 91.1357 55.7383C91.2409 55.8324 91.4097 55.8794 91.6421 55.8794C91.9741 55.8794 92.2702 55.8462 92.5303 55.7798ZM95.8838 46.5327L96.2407 44.8311H97.7349L97.3779 46.5327H95.8838ZM93.6924 57L95.5352 48.1846H97.0376L95.1948 57H93.6924ZM97.6768 53.9868L99.1792 53.8955C99.1792 54.3271 99.2456 54.6951 99.3784 54.9995C99.5112 55.3039 99.7547 55.5529 100.109 55.7466C100.469 55.9403 100.886 56.0371 101.362 56.0371C102.026 56.0371 102.524 55.9043 102.856 55.6387C103.188 55.373 103.354 55.0604 103.354 54.7007C103.354 54.4406 103.255 54.1943 103.056 53.9619C102.851 53.7295 102.35 53.4445 101.553 53.1069C100.762 52.7638 100.256 52.5231 100.034 52.3848C99.6634 52.1579 99.384 51.8923 99.1958 51.5879C99.0076 51.278 98.9136 50.9238 98.9136 50.5254C98.9136 49.8281 99.1903 49.2305 99.7437 48.7324C100.297 48.2344 101.072 47.9854 102.068 47.9854C103.175 47.9854 104.016 48.2427 104.591 48.7573C105.172 49.2664 105.474 49.9388 105.496 50.7744L104.027 50.874C104.005 50.3428 103.817 49.9222 103.462 49.6123C103.108 49.3024 102.607 49.1475 101.96 49.1475C101.44 49.1475 101.036 49.2664 100.748 49.5044C100.46 49.7424 100.316 49.9997 100.316 50.2764C100.316 50.5531 100.441 50.7965 100.69 51.0068C100.856 51.1507 101.285 51.3721 101.977 51.6709C103.128 52.1689 103.853 52.5618 104.151 52.8496C104.627 53.3089 104.865 53.8678 104.865 54.5264C104.865 54.9635 104.73 55.3924 104.458 55.813C104.193 56.2336 103.783 56.5711 103.23 56.8257C102.682 57.0747 102.035 57.1992 101.288 57.1992C100.269 57.1992 99.4033 56.9474 98.6895 56.4438C97.9756 55.9403 97.638 55.1213 97.6768 53.9868ZM112.51 54.0034L113.971 54.1528C113.761 54.8778 113.277 55.5667 112.519 56.2197C111.766 56.8727 110.867 57.1992 109.821 57.1992C109.168 57.1992 108.567 57.0498 108.02 56.751C107.477 56.4466 107.062 56.0067 106.774 55.4312C106.492 54.8556 106.351 54.1999 106.351 53.4639C106.351 52.501 106.572 51.5685 107.015 50.6665C107.463 49.759 108.042 49.0866 108.75 48.6494C109.458 48.2067 110.225 47.9854 111.049 47.9854C112.101 47.9854 112.939 48.3118 113.564 48.9648C114.195 49.6178 114.511 50.5088 114.511 51.6377C114.511 52.0693 114.472 52.512 114.395 52.9658H107.903C107.881 53.1374 107.87 53.2923 107.87 53.4307C107.87 54.2552 108.058 54.8861 108.435 55.3232C108.816 55.7549 109.281 55.9707 109.829 55.9707C110.344 55.9707 110.85 55.8019 111.348 55.4644C111.846 55.1268 112.234 54.6398 112.51 54.0034ZM108.144 51.8203H113.091C113.097 51.6654 113.1 51.5547 113.1 51.4883C113.1 50.7357 112.911 50.1602 112.535 49.7617C112.159 49.3577 111.675 49.1558 111.083 49.1558C110.441 49.1558 109.854 49.3771 109.323 49.8198C108.797 50.2625 108.404 50.9294 108.144 51.8203ZM115.499 57L117.341 48.1846H118.669L118.296 49.9858C118.75 49.3052 119.192 48.8016 119.624 48.4751C120.061 48.1486 120.507 47.9854 120.96 47.9854C121.259 47.9854 121.627 48.0933 122.064 48.3091L121.45 49.7036C121.19 49.5155 120.905 49.4214 120.595 49.4214C120.069 49.4214 119.53 49.7147 118.977 50.3013C118.423 50.8879 117.989 51.9421 117.673 53.4639L116.926 57H115.499ZM123.384 57L121.94 48.1846H123.401L124.156 53.0405C124.239 53.5718 124.342 54.4378 124.463 55.6387C124.751 55.0133 125.119 54.2967 125.567 53.4888L128.514 48.1846H130.1L125.053 57H123.384ZM131.793 46.5327L132.15 44.8311H133.644L133.287 46.5327H131.793ZM129.602 57L131.444 48.1846H132.947L131.104 57H129.602ZM139.529 53.7876L141.032 53.9453C140.655 55.0465 140.119 55.8656 139.421 56.4023C138.73 56.9336 137.941 57.1992 137.056 57.1992C136.098 57.1992 135.321 56.8893 134.723 56.2695C134.131 55.6497 133.835 54.7837 133.835 53.6714C133.835 52.7085 134.026 51.7622 134.408 50.8325C134.79 49.9028 135.335 49.1973 136.043 48.7158C136.757 48.2288 137.57 47.9854 138.483 47.9854C139.43 47.9854 140.18 48.2537 140.733 48.7905C141.286 49.3218 141.563 50.0273 141.563 50.9072L140.085 51.0068C140.08 50.4479 139.917 50.0107 139.596 49.6953C139.28 49.3799 138.862 49.2222 138.342 49.2222C137.739 49.2222 137.216 49.4131 136.773 49.7949C136.331 50.1768 135.982 50.7578 135.728 51.5381C135.479 52.3128 135.354 53.0599 135.354 53.7793C135.354 54.5319 135.52 55.0964 135.852 55.4727C136.184 55.849 136.594 56.0371 137.081 56.0371C137.568 56.0371 138.032 55.8517 138.475 55.481C138.923 55.1102 139.275 54.5457 139.529 53.7876ZM144.078 46.5327L144.435 44.8311H145.929L145.572 46.5327H144.078ZM141.887 57L143.729 48.1846H145.232L143.389 57H141.887ZM145.996 53.6548C145.996 51.9338 146.502 50.5088 147.515 49.3799C148.35 48.4502 149.446 47.9854 150.802 47.9854C151.864 47.9854 152.719 48.3174 153.367 48.9814C154.02 49.6455 154.346 50.542 154.346 51.6709C154.346 52.6836 154.141 53.6271 153.732 54.5015C153.322 55.3703 152.739 56.0371 151.98 56.502C151.228 56.9668 150.434 57.1992 149.598 57.1992C148.912 57.1992 148.287 57.0526 147.722 56.7593C147.163 56.466 146.734 56.0509 146.436 55.5142C146.142 54.9774 145.996 54.3576 145.996 53.6548ZM147.498 53.5054C147.498 54.3354 147.697 54.9663 148.096 55.3979C148.494 55.8241 149 56.0371 149.615 56.0371C149.936 56.0371 150.254 55.9735 150.569 55.8462C150.885 55.7134 151.178 55.5142 151.449 55.2485C151.72 54.9829 151.95 54.6813 152.138 54.3438C152.332 54.0007 152.487 53.6326 152.603 53.2397C152.775 52.6919 152.86 52.1662 152.86 51.6626C152.86 50.8657 152.658 50.2487 152.254 49.8115C151.856 49.3688 151.352 49.1475 150.744 49.1475C150.273 49.1475 149.844 49.2609 149.457 49.4878C149.07 49.7091 148.718 50.0356 148.403 50.4673C148.093 50.8989 147.863 51.4025 147.714 51.978C147.57 52.548 147.498 53.0571 147.498 53.5054ZM155.334 53.9868L156.836 53.8955C156.836 54.3271 156.903 54.6951 157.036 54.9995C157.168 55.3039 157.412 55.5529 157.766 55.7466C158.126 55.9403 158.544 56.0371 159.02 56.0371C159.684 56.0371 160.182 55.9043 160.514 55.6387C160.846 55.373 161.012 55.0604 161.012 54.7007C161.012 54.4406 160.912 54.1943 160.713 53.9619C160.508 53.7295 160.007 53.4445 159.21 53.1069C158.419 52.7638 157.913 52.5231 157.691 52.3848C157.321 52.1579 157.041 51.8923 156.853 51.5879C156.665 51.278 156.571 50.9238 156.571 50.5254C156.571 49.8281 156.847 49.2305 157.401 48.7324C157.954 48.2344 158.729 47.9854 159.725 47.9854C160.832 47.9854 161.673 48.2427 162.249 48.7573C162.83 49.2664 163.131 49.9388 163.153 50.7744L161.684 50.874C161.662 50.3428 161.474 49.9222 161.12 49.6123C160.765 49.3024 160.265 49.1475 159.617 49.1475C159.097 49.1475 158.693 49.2664 158.405 49.5044C158.118 49.7424 157.974 49.9997 157.974 50.2764C157.974 50.5531 158.098 50.7965 158.347 51.0068C158.513 51.1507 158.942 51.3721 159.634 51.6709C160.785 52.1689 161.51 52.5618 161.809 52.8496C162.285 53.3089 162.522 53.8678 162.522 54.5264C162.522 54.9635 162.387 55.3924 162.116 55.813C161.85 56.2336 161.441 56.5711 160.887 56.8257C160.339 57.0747 159.692 57.1992 158.945 57.1992C157.927 57.1992 157.061 56.9474 156.347 56.4438C155.633 55.9403 155.295 55.1213 155.334 53.9868Z" fill="#070707"/>
<defs>
<linearGradient id="paint0_linear_23_44" x1="91.8576" y1="1" x2="91.8576" y2="41.35" gradientUnits="userSpaceOnUse">
<stop stop-color="#FF8A00"/>
<stop offset="1" stop-color="#FF9213" stop-opacity="0"/>
</linearGradient>
</defs>
</svg>
