<svg width="175" height="63" viewBox="0 0 175 63" fill="none" xmlns="http://www.w3.org/2000/svg">
<path d="M18.8379 40.5188C29.2379 44.9188 43.3379 28.8523 48.8379 20.519C61.3379 17.519 69.3379 29.519 77.8379 37.519C88.3379 44.019 98.3379 41.019 102.338 37.519C120.738 18.719 132.338 18.6856 135.838 21.0188C144.238 37.0188 155.436 40.4359 160.103 40.2693C175.703 39.0691 172.5 24.5 168.265 17.7504C138.265 -14.2496 104.838 6.68554 91.8379 21.0188C82.3379 10.0188 66.3379 0.518819 48.3379 1.01882C33.9379 1.41882 20.3379 12.8522 15.3379 18.5188C12.1712 24.0188 8.43788 36.1188 18.8379 40.5188Z" fill="url(#paint0_linear_53_2)" stroke="black"/>
<path d="M18.8428 47.3535H21.084L20.8599 48.4243C21.7343 47.5721 22.6529 47.146 23.6158 47.146C24.2798 47.146 24.7917 47.2843 25.1514 47.561C25.5111 47.8377 25.7408 48.2195 25.8404 48.7065C26.1447 48.2638 26.5819 47.893 27.1519 47.5942C27.7219 47.2954 28.314 47.146 28.9283 47.146C29.6311 47.146 30.1789 47.3341 30.5718 47.7104C30.9647 48.0867 31.1612 48.5848 31.1612 49.2045C31.1612 49.5089 31.0837 50.0346 30.9287 50.7817L29.7998 56.1689H27.4175L28.5464 50.7817C28.6848 50.1066 28.7539 49.7247 28.7539 49.6362C28.7539 49.3927 28.6792 49.2018 28.5298 49.0634C28.3859 48.9196 28.1674 48.8476 27.8741 48.8476C27.2819 48.8476 26.7535 49.1603 26.2886 49.7856C25.951 50.2338 25.6633 51.0279 25.4253 52.1679L24.587 56.1689H22.2046L23.3169 50.8398C23.4442 50.2255 23.5079 49.8271 23.5079 49.6445C23.5079 49.4121 23.4276 49.2211 23.2671 49.0717C23.1122 48.9223 22.8964 48.8476 22.6197 48.8476C22.3596 48.8476 22.0912 48.9251 21.8145 49.08C21.5378 49.235 21.2943 49.448 21.084 49.7192C20.8793 49.9904 20.7022 50.339 20.5528 50.7651C20.4864 50.9643 20.3785 51.4153 20.229 52.1181L19.3824 56.1689H17L18.8428 47.3535ZM40.7818 52.5H34.8052C34.7997 52.594 34.7969 52.666 34.7969 52.7158C34.7969 53.3024 34.9629 53.7755 35.295 54.1352C35.6325 54.4949 36.042 54.6748 36.5235 54.6748C37.3148 54.6748 37.9318 54.2653 38.3746 53.4462L40.5079 53.8032C40.0928 54.6609 39.5367 55.3056 38.8394 55.7373C38.1477 56.1634 37.3702 56.3764 36.5069 56.3764C35.3226 56.3764 34.3597 56.0029 33.6182 55.2558C32.8767 54.5032 32.5059 53.5099 32.5059 52.2758C32.5059 51.0695 32.8407 49.9959 33.5103 49.0551C34.4234 47.7823 35.7266 47.146 37.42 47.146C38.4991 47.146 39.3568 47.4807 39.9932 48.1503C40.6296 48.8144 40.9478 49.7469 40.9478 50.9477C40.9478 51.5232 40.8925 52.0406 40.7818 52.5ZM38.773 51.0473C38.7785 50.9422 38.7813 50.8619 38.7813 50.8066C38.7813 50.1536 38.6346 49.6639 38.3413 49.3374C38.0481 49.0109 37.6551 48.8476 37.1626 48.8476C36.6701 48.8476 36.2274 49.033 35.8345 49.4038C35.4471 49.7745 35.1843 50.3224 35.0459 51.0473H38.773ZM41.5371 56.6337L44.0523 56.999C44.0523 57.2535 44.0938 57.4445 44.1768 57.5717C44.2598 57.7045 44.3926 57.8152 44.5752 57.9038C44.7634 57.9978 45.0179 58.0449 45.3389 58.0449C45.8425 58.0449 46.2465 57.9453 46.5508 57.746C46.7777 57.5911 46.9631 57.3421 47.107 56.999C47.1955 56.7832 47.309 56.3128 47.4473 55.5878L47.5303 55.1728C46.7058 55.859 45.8536 56.2021 44.9737 56.2021C44.1104 56.2021 43.4021 55.8977 42.8487 55.289C42.2953 54.6803 42.0186 53.7893 42.0186 52.6162C42.0186 51.5813 42.2067 50.6323 42.583 49.769C42.9593 48.9057 43.4878 48.2527 44.1685 47.81C44.8492 47.3673 45.5437 47.146 46.252 47.146C46.8386 47.146 47.3754 47.3009 47.8623 47.6108C48.3493 47.9207 48.7284 48.3551 48.9996 48.914L49.3316 47.3535H51.5645L50.0371 54.6997C49.7881 55.8784 49.5778 56.7195 49.4063 57.2231C49.2347 57.7267 49.0383 58.1279 48.8169 58.4267C48.5956 58.7255 48.3161 58.9746 47.9786 59.1738C47.641 59.3785 47.2426 59.5252 46.7832 59.6137C46.3239 59.7023 45.8259 59.7465 45.2891 59.7465C44.044 59.7465 43.1032 59.5335 42.4668 59.1074C41.8304 58.6813 41.5122 57.9729 41.5122 56.9824C41.5122 56.8772 41.5205 56.761 41.5371 56.6337ZM44.3428 52.3754C44.3428 53.045 44.4922 53.5569 44.7911 53.9111C45.0954 54.2597 45.4745 54.434 45.9283 54.434C46.3433 54.434 46.7445 54.2763 47.1319 53.9609C47.5248 53.6455 47.8236 53.1972 48.0284 52.6162C48.2386 52.0351 48.3438 51.4734 48.3438 50.9311C48.3438 50.3058 48.175 49.8022 47.8374 49.4204C47.4999 49.0385 47.1097 48.8476 46.667 48.8476C46.2409 48.8476 45.848 49.0164 45.4883 49.354C45.1342 49.6915 44.8409 50.2117 44.6084 50.9145C44.4314 51.4568 44.3428 51.9438 44.3428 52.3754ZM55.4161 49.852L53.0918 49.6528C53.3575 48.867 53.8195 48.2527 54.4781 47.81C55.1421 47.3673 56.0192 47.146 57.1094 47.146C58.2439 47.146 59.0822 47.3756 59.6246 47.8349C60.1669 48.2887 60.438 48.8448 60.438 49.5034C60.438 49.769 60.4131 50.0512 60.3633 50.3501C60.319 50.6489 60.1558 51.4347 59.8736 52.7075C59.6412 53.7589 59.5249 54.4949 59.5249 54.9155C59.5249 55.2918 59.5913 55.7096 59.7242 56.1689H57.4082C57.3142 55.8479 57.2561 55.5159 57.2339 55.1728C56.8853 55.5602 56.4841 55.859 56.0303 56.0693C55.5765 56.274 55.12 56.3764 54.6607 56.3764C53.9302 56.3764 53.327 56.1385 52.8511 55.6626C52.3752 55.1811 52.1372 54.5641 52.1372 53.8115C52.1372 52.9703 52.3973 52.298 52.9175 51.7944C53.4432 51.2908 54.3785 50.9864 55.7232 50.8813C56.8576 50.7872 57.6158 50.6738 57.9976 50.541C58.0972 50.2089 58.147 49.9433 58.147 49.7441C58.147 49.4895 58.0446 49.2765 57.8399 49.1049C57.6351 48.9334 57.3308 48.8476 56.9268 48.8476C56.5007 48.8476 56.1631 48.9362 55.9141 49.1132C55.6706 49.2848 55.5046 49.531 55.4161 49.852ZM57.6822 52.06C57.5383 52.0988 57.3474 52.1347 57.1094 52.1679C55.9141 52.3118 55.1338 52.5221 54.7686 52.7988C54.5085 52.998 54.3785 53.2664 54.3785 53.604C54.3785 53.8807 54.4781 54.1158 54.6773 54.3095C54.8765 54.4977 55.1394 54.5918 55.4659 54.5918C55.8256 54.5918 56.1631 54.506 56.4786 54.3344C56.7995 54.1573 57.0375 53.9332 57.1924 53.6621C57.3529 53.3854 57.494 52.9565 57.6158 52.3754L57.6822 52.06ZM66.1241 56.1689L67.9668 47.3535H69.4693L69.1621 48.8061C69.7211 48.1808 70.2191 47.7491 70.6563 47.5112C71.099 47.2732 71.5777 47.1543 72.0923 47.1543C72.6402 47.1543 73.0967 47.3009 73.462 47.5942C73.8327 47.882 74.0762 48.2859 74.1924 48.8061C74.6407 48.2527 75.111 47.8404 75.6036 47.5693C76.1016 47.2926 76.6246 47.1543 77.1724 47.1543C77.9084 47.1543 78.459 47.3286 78.8243 47.6772C79.195 48.0258 79.3804 48.5156 79.3804 49.1464C79.3804 49.4176 79.3168 49.8658 79.1895 50.4912L78.0025 56.1689H76.5L77.712 50.3418C77.8171 49.8658 77.8697 49.5255 77.8697 49.3208C77.8697 49.033 77.7784 48.8061 77.5957 48.6401C77.4131 48.4741 77.1558 48.3911 76.8238 48.3911C76.3755 48.3911 75.919 48.5266 75.4541 48.7978C74.9893 49.069 74.6268 49.4259 74.3667 49.8686C74.1122 50.3058 73.8881 50.9809 73.6944 51.894L72.7979 56.1689H71.2954L72.5406 50.2172C72.6291 49.8133 72.6734 49.5255 72.6734 49.354C72.6734 49.0662 72.5821 48.8338 72.3995 48.6567C72.2224 48.4796 71.9899 48.3911 71.7022 48.3911C71.2761 48.3911 70.8278 48.5266 70.3575 48.7978C69.8926 49.069 69.5135 49.448 69.2203 49.935C68.927 50.4165 68.6862 51.1054 68.4981 52.0019L67.6265 56.1689H66.1241ZM86.3116 54.5751C85.2546 55.7705 84.1727 56.3681 83.066 56.3681C82.3853 56.3681 81.8347 56.1744 81.4141 55.7871C80.9991 55.3942 80.7915 54.9155 80.7915 54.351C80.7915 53.9803 80.8856 53.3439 81.0738 52.4418L82.1363 47.3535H83.6387L82.46 52.9897C82.3604 53.4601 82.3106 53.8253 82.3106 54.0854C82.3106 54.4174 82.4102 54.6775 82.6094 54.8657C82.8142 55.0483 83.113 55.1396 83.5059 55.1396C83.9265 55.1396 84.336 55.0372 84.7344 54.8325C85.1384 54.6277 85.4843 54.351 85.772 54.0024C86.0653 53.6538 86.3033 53.2415 86.4859 52.7656C86.6076 52.4612 86.7487 51.9272 86.9092 51.1635L87.7061 47.3535H89.2085L87.3658 56.1689H85.9795L86.3116 54.5751ZM89.6402 56.1689L92.1802 44H93.6827L91.1426 56.1689H89.6402ZM97.0528 54.9487L96.8037 56.1772C96.444 56.2713 96.0954 56.3183 95.7579 56.3183C95.1602 56.3183 94.6843 56.1717 94.3301 55.8784C94.0645 55.657 93.9317 55.3554 93.9317 54.9736C93.9317 54.7799 94.0036 54.3344 94.1475 53.6372L95.2183 48.5156H94.0313L94.272 47.3535H95.459L95.9156 45.187L97.6338 44.1494L96.9615 47.3535H98.439L98.19 48.5156H96.7207L95.6997 53.3881C95.5725 54.0079 95.5088 54.3787 95.5088 54.5004C95.5088 54.6775 95.5586 54.8131 95.6582 54.9072C95.7634 55.0013 95.9322 55.0483 96.1646 55.0483C96.4966 55.0483 96.7927 55.0151 97.0528 54.9487ZM100.406 45.7016L100.763 44H102.257L101.9 45.7016H100.406ZM98.2149 56.1689L100.058 47.3535H101.56L99.7173 56.1689H98.2149ZM102.199 53.1557L103.702 53.0644C103.702 53.496 103.768 53.864 103.901 54.1684C104.034 54.4728 104.277 54.7218 104.632 54.9155C104.992 55.1092 105.408 55.206 105.884 55.206C106.548 55.206 107.047 55.0732 107.379 54.8076C107.711 54.5419 107.876 54.2293 107.876 53.8696C107.876 53.6095 107.777 53.3632 107.578 53.1308C107.373 52.8984 106.873 52.6134 106.076 52.2758C105.285 51.9327 104.778 51.692 104.556 51.5537C104.186 51.3268 103.906 51.0612 103.718 50.7568C103.53 50.4469 103.436 50.0927 103.436 49.6943C103.436 48.997 103.713 48.3994 104.266 47.9013C104.819 47.4033 105.594 47.1543 106.59 47.1543C107.697 47.1543 108.539 47.4116 109.114 47.9262C109.695 48.4353 109.997 49.1077 110.019 49.9433L108.549 50.0429C108.527 49.5117 108.339 49.0911 107.984 48.7812C107.63 48.4713 107.129 48.3164 106.482 48.3164C105.962 48.3164 105.559 48.4353 105.271 48.6733C104.983 48.9113 104.839 49.1686 104.839 49.4453C104.839 49.722 104.964 49.9654 105.213 50.1757C105.379 50.3196 105.807 50.541 106.499 50.8398C107.65 51.3378 108.376 51.7307 108.674 52.0185C109.15 52.4778 109.387 53.0367 109.387 53.6953C109.387 54.1324 109.252 54.5613 108.98 54.9819C108.715 55.4025 108.306 55.74 107.753 55.9946C107.205 56.2436 106.558 56.3681 105.811 56.3681C104.792 56.3681 103.926 56.1163 103.212 55.6127C102.498 55.1092 102.161 54.2902 102.199 53.1557ZM117.033 53.1723L118.493 53.3217C118.283 54.0467 117.799 54.7356 117.041 55.3886C116.288 56.0416 115.389 56.3681 114.343 56.3681C113.69 56.3681 113.089 56.2187 112.542 55.9199C111.999 55.6155 111.585 55.1756 111.297 54.6001C111.015 54.0245 110.873 53.3688 110.873 52.6328C110.873 51.6699 111.094 50.7374 111.537 49.8354C111.985 48.9279 112.564 48.2555 113.272 47.8183C113.98 47.3756 114.748 47.1543 115.572 47.1543C116.624 47.1543 117.462 47.4807 118.087 48.1337C118.718 48.7867 119.034 49.6777 119.034 50.8066C119.034 51.2382 118.994 51.6809 118.917 52.1347H112.425C112.403 52.3063 112.393 52.4612 112.393 52.5996C112.393 53.4241 112.58 54.055 112.957 54.4921C113.338 54.9238 113.804 55.1396 114.352 55.1396C114.867 55.1396 115.372 54.9708 115.87 54.6333C116.368 54.2957 116.757 53.8087 117.033 53.1723ZM112.666 50.9892H117.614C117.62 50.8343 117.622 50.7236 117.622 50.6572C117.622 49.9046 117.434 49.3291 117.058 48.9306C116.682 48.5266 116.197 48.3247 115.605 48.3247C114.963 48.3247 114.376 48.546 113.845 48.9887C113.319 49.4314 112.926 50.0983 112.666 50.9892ZM120.021 56.1689L121.864 47.3535H123.191L122.818 49.1547C123.272 48.4741 123.714 47.9705 124.146 47.644C124.583 47.3175 125.029 47.1543 125.482 47.1543C125.781 47.1543 126.15 47.2622 126.587 47.478L125.972 48.8725C125.712 48.6844 125.428 48.5903 125.118 48.5903C124.592 48.5903 124.052 48.8836 123.499 49.4702C122.945 50.0568 122.511 51.111 122.195 52.6328L121.449 56.1689H120.021ZM127.907 56.1689L126.463 47.3535H127.924L128.678 52.2094C128.761 52.7407 128.864 53.6067 128.985 54.8076C129.273 54.1822 129.642 53.4656 130.09 52.6577L133.037 47.3535H134.623L129.576 56.1689H127.907ZM136.315 45.7016L136.672 44H138.166L137.81 45.7016H136.315ZM134.125 56.1689L135.966 47.3535H137.47L135.627 56.1689H134.125ZM144.052 52.9565L145.555 53.1142C145.178 54.2154 144.642 55.0345 143.944 55.5712C143.253 56.1025 142.463 56.3681 141.578 56.3681C140.62 56.3681 139.844 56.0582 139.246 55.4384C138.654 54.8186 138.358 53.9526 138.358 52.8403C138.358 51.8774 138.549 50.9311 138.931 50.0014C139.313 49.0717 139.857 48.3662 140.565 47.8847C141.279 47.3977 142.093 47.1543 143.006 47.1543C143.953 47.1543 144.703 47.4226 145.256 47.9594C145.809 48.4907 146.086 49.1962 146.086 50.0761L144.608 50.1757C144.603 49.6168 144.439 49.1796 144.118 48.8642C143.802 48.5488 143.384 48.3911 142.864 48.3911C142.261 48.3911 141.738 48.582 141.295 48.9638C140.853 49.3457 140.504 49.9267 140.25 50.707C140.001 51.4817 139.877 52.2288 139.877 52.9482C139.877 53.7008 140.043 54.2653 140.375 54.6416C140.707 55.0179 141.116 55.206 141.603 55.206C142.09 55.206 142.555 55.0206 142.998 54.6499C143.446 54.2791 143.798 53.7146 144.052 52.9565ZM148.601 45.7016L148.958 44H150.452L150.095 45.7016H148.601ZM146.41 56.1689L148.252 47.3535H149.755L147.912 56.1689H146.41ZM150.519 52.8237C150.519 51.1027 151.025 49.6777 152.038 48.5488C152.873 47.6191 153.969 47.1543 155.325 47.1543C156.387 47.1543 157.242 47.4863 157.89 48.1503C158.543 48.8144 158.868 49.7109 158.868 50.8398C158.868 51.8525 158.664 52.796 158.255 53.6704C157.845 54.5392 157.262 55.206 156.503 55.6709C155.751 56.1357 154.957 56.3681 154.121 56.3681C153.435 56.3681 152.81 56.2215 152.245 55.9282C151.686 55.6349 151.257 55.2198 150.959 54.6831C150.665 54.1463 150.519 53.5265 150.519 52.8237ZM152.021 52.6743C152.021 53.5043 152.219 54.1352 152.618 54.5668C153.016 54.993 153.523 55.206 154.138 55.206C154.459 55.206 154.777 55.1424 155.092 55.0151C155.408 54.8823 155.701 54.6831 155.972 54.4174C156.243 54.1518 156.473 53.8502 156.661 53.5127C156.855 53.1696 157.01 52.8015 157.126 52.4086C157.298 51.8608 157.383 51.3351 157.383 50.8315C157.383 50.0346 157.181 49.4176 156.777 48.9804C156.379 48.5377 155.875 48.3164 155.267 48.3164C154.796 48.3164 154.367 48.4298 153.98 48.6567C153.593 48.878 153.241 49.2045 152.926 49.6362C152.616 50.0678 152.386 50.5714 152.237 51.1469C152.093 51.7169 152.021 52.226 152.021 52.6743ZM159.857 53.1557L161.359 53.0644C161.359 53.496 161.426 53.864 161.559 54.1684C161.691 54.4728 161.935 54.7218 162.289 54.9155C162.649 55.1092 163.067 55.206 163.543 55.206C164.207 55.206 164.705 55.0732 165.037 54.8076C165.369 54.5419 165.535 54.2293 165.535 53.8696C165.535 53.6095 165.435 53.3632 165.236 53.1308C165.031 52.8984 164.53 52.6134 163.733 52.2758C162.942 51.9327 162.436 51.692 162.214 51.5537C161.844 51.3268 161.564 51.0612 161.376 50.7568C161.188 50.4469 161.094 50.0927 161.094 49.6943C161.094 48.997 161.37 48.3994 161.924 47.9013C162.477 47.4033 163.252 47.1543 164.248 47.1543C165.355 47.1543 166.195 47.4116 166.771 47.9262C167.352 48.4353 167.654 49.1077 167.676 49.9433L166.207 50.0429C166.185 49.5117 165.997 49.0911 165.643 48.7812C165.288 48.4713 164.788 48.3164 164.14 48.3164C163.62 48.3164 163.216 48.4353 162.928 48.6733C162.641 48.9113 162.497 49.1686 162.497 49.4453C162.497 49.722 162.621 49.9654 162.87 50.1757C163.036 50.3196 163.465 50.541 164.157 50.8398C165.308 51.3378 166.033 51.7307 166.332 52.0185C166.808 52.4778 167.045 53.0367 167.045 53.6953C167.045 54.1324 166.91 54.5613 166.639 54.9819C166.373 55.4025 165.964 55.74 165.41 55.9946C164.862 56.2436 164.215 56.3681 163.468 56.3681C162.45 56.3681 161.584 56.1163 160.87 55.6127C160.156 55.1092 159.818 54.2902 159.857 53.1557Z" fill="white"/>
<defs>
<linearGradient id="paint0_linear_53_2" x1="91.8576" y1="0.999986" x2="91.8576" y2="41.35" gradientUnits="userSpaceOnUse">
<stop offset="0.609375" stop-color="#FF8A00"/>
<stop offset="1" stop-color="white"/>
</linearGradient>
</defs>
</svg>
