<svg width="128" height="128" viewBox="0 0 128 128" fill="none" xmlns="http://www.w3.org/2000/svg">
<path fill-rule="evenodd" clip-rule="evenodd" d="M102.754 35.5333L80.0431 46.1574C76.0948 43.5416 71.2438 42.0001 66 42.0001C52.7452 42.0001 42 51.8498 42 64.0001C42 76.1503 52.7452 86.0001 66 86.0001C72.5261 86.0001 78.4438 83.6123 82.7702 79.7379L104.403 89.1059C96.1724 101.695 82.0456 110 66 110C40.5949 110 20 89.1812 20 63.5C20 37.8188 40.5949 17 66 17C81.0199 17 94.3585 24.2769 102.754 35.5333Z" fill="#118DFF"/>
<path d="M42.9092 97.2964C42.7491 96.1627 41.9562 95.1393 42.0019 93.9795C42.0317 93.2231 43.2638 93.0274 43.8669 92.4773C44.0957 92.2687 45.4936 92.2657 45.858 92.3732C46.4385 92.5445 46.9922 93.1153 46.9922 93.4441C46.9922 93.9508 46.6259 94.1809 46.5385 94.6191C46.4729 94.9482 45.2052 95.1344 44.9003 95.4223C44.5144 95.7867 43.7268 95.9355 43.4133 96.285C43.1575 96.5702 42.8238 97.0964 42.6824 97.4303" stroke="white" stroke-width="0.5" stroke-linecap="round"/>
<path d="M58.508 96.6985C58.8652 97.4829 58.4791 98.8384 59.0734 99.4317C59.461 99.8187 60.8989 98.6963 61.816 98.3971C62.1638 98.2837 63.6926 96.8896 64.0402 96.4666C64.5941 95.7926 64.931 94.9253 64.7767 94.7442C64.5389 94.4651 64.0308 94.7041 63.7296 94.5499C63.5035 94.4341 62.0311 95.5972 61.5629 95.743C60.9703 95.9276 60.04 96.632 59.5334 96.7524C59.12 96.8508 58.5086 96.894 58.1974 96.8513" stroke="white" stroke-width="0.5" stroke-linecap="round"/>
<path d="M46.5385 92.3435C47.0491 92.3059 47.5405 91.6286 47.9247 91.4362C48.5926 91.1018 47.7184 90.7013 47.4963 90.4099C47.2978 90.1497 47.4458 89.6885 47.4458 89.3985C47.4458 89.0457 48.0061 89.082 48.1137 88.7961C48.2707 88.3792 47.5047 88.1242 46.8788 88.0673C45.6501 87.9558 45.4546 88.2742 45.0641 88.93C44.7118 89.5219 43.7008 90.4667 42.9092 89.5324" stroke="white" stroke-width="0.5" stroke-linecap="round"/>
<path d="M64.7715 95.8669C65.3827 95.3414 66.2399 95.1516 66.7687 94.837C67.6879 94.2902 66.8368 95.419 66.7001 95.7993C66.578 96.1391 66.9442 96.2086 67.066 96.3515C67.2141 96.5254 67.8521 95.9106 68.0976 95.9368C68.4558 95.975 67.6697 96.9169 66.9637 97.6119C65.5779 98.9761 65.2163 99.0275 64.4856 99.1203C63.8263 99.2041 62.2508 99.8156 61.7201 101.12" stroke="white" stroke-width="0.5" stroke-linecap="round"/>
<path d="M42.0019 88.1938C42.1748 86.4587 46.6802 86.6706 46.3117 84.7133C46.2618 84.4485 44.6072 84.5794 44.2702 84.5794C43.7509 84.5794 43.5713 84.8431 43.2369 85.0405C42.6224 85.4031 42.7957 84.0105 43.5897 83.7762" stroke="white" stroke-width="0.5" stroke-linecap="round"/>
<path d="M61.6627 102.475C62.7984 103.411 67.6472 98.7385 68.3073 100.361C68.3965 100.581 66.5021 102.163 66.1308 102.502C65.5586 103.025 65.217 103.037 64.741 103.248C63.8665 103.635 64.8159 104.351 65.8184 103.701" stroke="white" stroke-width="0.5" stroke-linecap="round"/>
<path d="M45.858 82.973C47.1569 82.973 48.4144 81.9816 49.3361 81.5154C50.2997 81.028 50.4649 80.1805 50.1174 79.4628C49.7266 78.6556 47.6237 79.5035 47.4206 80.0429C47.2135 80.5929 46.9922 80.9267 46.9922 81.5005" stroke="white" stroke-width="0.5" stroke-linecap="round"/>
<path d="M68.1595 101.562C69.5599 100.282 71.3814 99.5892 72.5941 98.938C73.8619 98.2573 74.438 98.5616 74.4004 99.2997C74.3581 100.13 71.6926 101.734 71.2203 101.637C70.7388 101.538 70.3433 101.572 70.0739 101.256" stroke="white" stroke-width="0.5" stroke-linecap="round"/>
<path d="M51.7556 80.6974C51.7556 79.2807 52.9743 77.9533 55.4731 77.4996C55.6953 77.4592 56.9604 77.6293 56.9727 77.7524C57.0176 78.2029 56.9197 78.3064 56.1914 78.4292C55.4349 78.5568 54.6247 79.0042 54.0239 79.3588" stroke="#118DFF" stroke-width="0.5" stroke-linecap="round"/>
<path d="M56.5191 81.3666C56.5191 80.7001 56.2988 79.8722 56.9979 79.2992C57.7368 78.6936 59.1523 78.5382 60.0475 78.02C60.7153 77.6335 61.2858 77.1913 62.089 76.8896C62.5598 76.7128 65.5806 76.6831 64.7606 77.0979C63.5363 77.7171 62.1519 78.068 60.9675 78.6894C60.5592 78.9036 60.8288 79.9719 60.8288 80.2957" stroke="#118DFF" stroke-width="0.5" stroke-linecap="round"/>
<path d="M58.1069 83.3747C59.8464 83.3747 60.1056 83.4381 61.0431 82.5045C61.2007 82.3476 62.3712 81.4238 61.6984 81.3741C61.1577 81.3342 60.5814 81.3667 60.0349 81.3667C57.8349 81.3667 58.3337 83.2454 58.3337 84.044" stroke="#118DFF" stroke-width="0.5" stroke-linecap="round"/>
<path d="M78.4326 84.5462C80.1721 84.5462 80.4313 84.6096 81.3687 83.676C81.5264 83.5191 82.6969 82.5953 82.024 82.5456C81.4834 82.5058 80.9071 82.5382 80.3606 82.5382C78.1605 82.5382 78.6594 84.4169 78.6594 85.2155" stroke="#118DFF" stroke-width="0.5" stroke-linecap="round"/>
<path d="M53.7971 84.4456C53.189 84.4007 53.6526 83.0923 53.8979 82.9061C54.3871 82.535 55.6411 82.5472 56.015 82.0658C56.666 81.2275 56.5191 82.3824 56.5191 82.7648C56.5191 83.1912 56.5191 83.6176 56.5191 84.044" stroke="#118DFF" stroke-width="0.5" stroke-linecap="round"/>
<path d="M74.1228 85.617C73.5147 85.5721 73.9783 84.2637 74.2236 84.0775C74.7127 83.7064 75.9668 83.7186 76.3407 83.2372C76.9917 82.3989 76.8448 83.5538 76.8448 83.9362C76.8448 84.3626 76.8448 84.789 76.8448 85.2154" stroke="#118DFF" stroke-width="0.5" stroke-linecap="round"/>
<path d="M85.3969 76.9028C85.7882 77.2571 85.6706 76.8994 86.1688 76.3743C86.906 75.5974 87.3239 74.7052 88.2051 74.0248C88.7208 73.6265 89.1279 73.1941 89.5728 72.7161C90.2749 71.9615 90.5849 72.2144 91.2794 72.6011C91.4354 72.6879 91.88 72.9263 91.922 73.1402C91.9401 73.2328 91.726 73.4864 91.6767 73.5709C91.4883 73.8939 91.3357 74.2141 91.3021 74.5585C91.238 75.2158 91.4039 76.1163 92.0155 76.3467C92.5459 76.5466 93.8607 74.677 94.4325 74.4605C96.6272 74.7513 96.7433 71.8274 97.5658 71.7799C98.3034 71.7373 97.4502 75.3999 98.1665 75.0906C100.551 70.2589 100.049 74.3508 100.843 73.4979C100.985 73.3446 101.124 73.1835 101.273 73.0358C101.623 72.6875 103.213 68.6672 103.535 68.738C104.052 68.8513 103.649 73.5863 103.412 74.2282C103.202 74.8006 102.554 75.4719 102.21 76.0275C101.788 76.7102 102.255 77.2228 102.83 77.355C103.292 77.4612 103.738 77.0865 104.193 76.8933C105.044 76.5318 107.234 72.7376 108.046 72.7261C108.159 72.7245 108.766 75.8405 108.735 76.0605C108.693 76.3632 107.803 77.4191 107.656 77.7085C107.411 78.1911 107.094 78.6429 106.782 79.0954C106.281 79.8208 105.884 80.4143 105.164 80.9718C104.668 81.3556 103.974 81.5222 103.545 81.9828C102.944 82.6294 104.396 84.0708 105.051 83.9346C105.473 83.8469 107.467 82.8974 107.844 83.0182C108.121 83.1069 111.215 81.2163 111.396 81.425C111.617 81.679 110.576 84.7006 110.383 84.9762C110.653 87.2232 105.805 85.9278 105.173 86.316C105.102 86.3597 104.982 86.4925 104.906 86.5138C104.886 86.5193 104.863 86.5019 104.847 86.5173C103.883 87.4246 109.059 88.2945 108.162 89.2516C107.225 90.2507 112.23 90.4444 109.073 90.8466C108.578 90.9096 102.982 90.4819 104.097 92.8302C103.864 93.1868 100.918 92.6013 100.527 92.5188C100.997 92.6448 102.763 93.6776 103.104 93.8885C103.332 94.0293 101.698 94.4348 101.895 94.6128C102.262 94.9454 101.505 95.9945 101.105 96.4245C100.852 96.6968 100.695 96.7914 100.463 97.0766C100.109 97.5134 99.5578 96.86 99.1127 97.133C98.5922 97.4522 98.0484 98.1863 97.6499 98.6394C97.319 99.0157 97.418 99.1927 97.3262 99.6022L97.3207 99.6268C97.2235 100.06 97.143 100.42 96.7711 100.76C96.2253 101.258 95.7258 100.647 95.4026 100.422C95.143 100.241 94.4681 100.968 94.2168 100.866C94.0498 100.799 93.8939 100.901 93.7137 100.858C93.542 100.817 93.3967 100.763 93.2293 100.746C91.5367 100.569 92.1767 98.2888 91.4719 97.3099C90.5907 96.0859 89.8691 94.7208 89.0079 93.4754C88.3161 92.4752 87.5484 91.5363 86.9924 90.4302C86.4777 89.4064 86.1019 88.2931 85.6019 87.2627C84.8229 85.6574 83.3521 88.4253 82.8088 86.6784C82.6195 86.07 81.1116 82.1134 81.3369 81.4164C81.571 80.6923 84.1936 78.5953 84.4004 77.8808C84.5745 77.2798 85.4911 77.4516 85.3969 76.9028Z" fill="white"/>
<path d="M85.3969 76.9028C85.7882 77.2571 85.6706 76.8994 86.1688 76.3743C86.906 75.5974 87.3239 74.7052 88.2051 74.0248C88.7208 73.6265 89.1279 73.1941 89.5728 72.7161C90.2749 71.9615 90.5849 72.2144 91.2794 72.6011C91.4354 72.6879 91.88 72.9263 91.922 73.1402C91.9401 73.2328 91.726 73.4864 91.6767 73.5709C91.4883 73.8939 91.3357 74.2141 91.3021 74.5585C91.238 75.2158 91.4039 76.1163 92.0155 76.3467C92.5459 76.5466 93.8607 74.677 94.4325 74.4605C96.6272 74.7513 96.7433 71.8274 97.5658 71.7799C98.3034 71.7373 97.4502 75.3999 98.1665 75.0906C100.551 70.259 100.049 74.3508 100.843 73.4979C100.985 73.3446 101.124 73.1835 101.273 73.0358C101.623 72.6875 103.213 68.6672 103.535 68.738C104.052 68.8513 103.649 73.5863 103.412 74.2282C103.202 74.8006 102.554 75.4719 102.21 76.0275C101.788 76.7102 102.255 77.2228 102.83 77.355C103.292 77.4612 103.738 77.0865 104.193 76.8933C105.044 76.5318 107.234 72.7376 108.046 72.7261C108.159 72.7245 108.766 75.8405 108.735 76.0605C108.693 76.3632 107.803 77.4191 107.656 77.7085C107.411 78.1911 107.094 78.6429 106.782 79.0954C106.281 79.8208 105.884 80.4143 105.164 80.9718C104.668 81.3556 103.974 81.5222 103.545 81.9828C102.944 82.6294 104.396 84.0708 105.051 83.9346C105.473 83.8469 107.467 82.8974 107.844 83.0182C108.121 83.1069 111.215 81.2163 111.396 81.425C111.617 81.679 110.576 84.7006 110.383 84.9762C110.653 87.2232 105.805 85.9278 105.173 86.316C105.102 86.3597 104.982 86.4925 104.906 86.5138C104.886 86.5193 104.863 86.5019 104.847 86.5173C103.883 87.4246 109.059 88.2945 108.162 89.2516C107.225 90.2507 112.23 90.4444 109.073 90.8466C108.578 90.9096 102.982 90.4819 104.097 92.8302C103.841 93.2215 100.318 92.4782 100.49 92.5104C100.896 92.5859 102.753 93.6716 103.104 93.8885C103.332 94.0293 101.698 94.4348 101.895 94.6128C102.262 94.9454 101.505 95.9945 101.105 96.4245C100.852 96.6968 100.695 96.7914 100.463 97.0766C100.109 97.5134 99.5578 96.86 99.1127 97.133C98.5922 97.4522 98.0484 98.1863 97.6499 98.6394C97.319 99.0157 97.418 99.1927 97.3262 99.6022C97.2265 100.047 97.15 100.414 96.7711 100.76C96.2253 101.258 95.7258 100.647 95.4026 100.422C95.143 100.241 94.4681 100.968 94.2168 100.866C94.0498 100.799 93.8939 100.901 93.7137 100.858C93.542 100.817 93.3967 100.763 93.2293 100.746C91.5367 100.569 92.1767 98.2888 91.4719 97.3099C90.5907 96.0859 89.8691 94.7208 89.0079 93.4754C88.3161 92.4752 87.5484 91.5363 86.9924 90.4302C86.4777 89.4064 86.1019 88.2931 85.6019 87.2627C84.8229 85.6574 83.3521 88.4253 82.8088 86.6784C82.6195 86.07 81.1116 82.1134 81.3369 81.4164C81.571 80.6923 84.1936 78.5953 84.4004 77.8808C84.5745 77.2798 85.4911 77.4516 85.3969 76.9028Z" stroke="#0085FF" stroke-linecap="round"/>
<path d="M73.4196 84.9478C74.1129 84.4664 74.4539 83.7338 74.9318 83.1629C75.5362 82.441 76.5025 81.6518 76.7717 80.8575C77.0234 80.1149 78.2863 81.7167 78.3973 82.0771C78.5568 82.5949 77.9986 82.6088 77.2632 82.739C76.2442 82.9194 75.4961 83.2009 74.5664 83.4753C74.0285 83.634 73.538 84.1284 73.4322 84.4718C73.26 85.0308 72.6061 85.4002 72.0587 85.8848" stroke="#118DFF" stroke-width="0.5" stroke-linecap="round"/>
<path d="M68.7522 83.2104C68.6009 81.6917 68.3204 80.1179 68.0496 78.55C67.8815 77.5763 68.3336 77.1627 68.6003 76.4448C68.8351 75.8128 68.426 74.622 69.0078 74.19C69.441 73.8683 70.5894 74.7308 71.1646 75.1338C71.793 75.5741 72.0328 76.4763 71.9367 76.8956C71.7909 77.5316 70.5857 77.1596 70.2254 77.6327C69.7795 78.2182 68.9552 79.3361 69.8769 80.4468" stroke="#118DFF" stroke-width="0.5" stroke-linecap="round"/>
<path d="M72.0587 80.6641C73.5022 80.2632 74.9096 79.8069 76.318 79.3552C77.1926 79.0747 77.939 79.1282 78.8636 79.0503C79.6775 78.9816 80.6014 78.5715 81.4595 78.6635C82.0983 78.7321 82.0392 79.3103 82.0392 79.5932C82.0392 79.9022 81.289 80.1898 80.7916 80.255C80.0374 80.354 79.5546 79.8704 78.8132 79.8609C77.8956 79.8491 76.163 79.8356 75.6879 80.3963" stroke="#118DFF" stroke-width="0.5" stroke-linecap="round"/>
<path d="M61.5094 84.847C62.7302 84.847 64.7531 84.4991 65.8443 84.2075C66.8874 83.9287 66.9533 84.3035 66.9533 84.914C66.9533 85.3716 64.0643 85.9975 63.4374 85.7097C62.3198 85.1967 60.3257 85.1859 59.0142 85.6502" stroke="#118DFF" stroke-width="0.5" stroke-linecap="round"/>
<path d="M70.9245 86.0186C72.1453 86.0186 74.1682 85.6706 75.2594 85.379C76.3025 85.1002 76.3684 85.475 76.3684 86.0855C76.3684 86.5431 73.4794 87.169 72.8525 86.8812C71.7349 86.3682 69.7408 86.3574 68.4293 86.8217" stroke="#118DFF" stroke-width="0.5" stroke-linecap="round"/>
<path d="M81.835 86.0186C83.0559 86.0186 85.0788 85.6706 86.17 85.379C87.2131 85.1002 87.279 85.475 87.279 86.0855C87.279 86.5431 84.39 87.169 83.7631 86.8812C82.6455 86.3682 80.6514 86.3574 79.3399 86.8217" stroke="#118DFF" stroke-width="0.5" stroke-linecap="round"/>
<path d="M50.3947 91.4065C50.7731 90.8482 50.4312 90.2867 50.6593 89.7257C51.019 88.8413 52.7196 88.3688 54.0744 88.2235C55.0069 88.1234 58.0291 88.7793 56.1789 89.2646C54.9161 89.5959 53.1847 89.0921 52.0959 89.5919C51.6215 89.8096 51.1045 89.9474 50.6215 90.1719C50.1898 90.3727 49.9424 90.7815 49.4874 90.871" stroke="white" stroke-width="0.5" stroke-linecap="round"/>
<path d="M49.0245 99.3245C49.1695 98.6659 48.6441 98.2707 48.6484 97.6652C48.6553 96.7104 50.0604 95.6422 51.2652 95.0059C52.0945 94.5678 55.1449 94.0589 53.6056 95.1944C52.555 95.9694 50.7601 96.1421 49.9335 97.0092C49.5733 97.3871 49.144 97.7064 48.7784 98.0937C48.4516 98.44 48.3731 98.9113 47.9835 99.1628" stroke="white" stroke-width="0.5" stroke-linecap="round"/>
<path d="M55.0245 98.3245C55.1695 97.6659 54.6441 97.2707 54.6484 96.6652C54.6553 95.7104 56.0604 94.6422 57.2652 94.0059C58.0945 93.5678 61.1449 93.0589 59.6056 94.1944C58.555 94.9694 56.7601 95.1421 55.9335 96.0092C55.5733 96.3871 55.144 96.7064 54.7784 97.0937C54.4516 97.44 54.3731 97.9113 53.9835 98.1628" stroke="white" stroke-width="0.5" stroke-linecap="round"/>
<path d="M49.2605 86.989C49.3913 86.217 51.0767 85.5327 52.2597 85.5165C52.9843 85.5065 54.281 85.0957 54.9313 85.2785C55.4981 85.4378 55.385 86.0887 55.385 86.3866C55.385 87.0714 53.2835 86.8551 52.5496 86.8551C50.5904 86.8551 49.9098 86.8928 48.3532 87.6583" stroke="white" stroke-width="0.5" stroke-linecap="round"/>
<path d="M58.1069 89.1308C58.2716 87.8188 60.4422 87.7922 62.1268 87.7922C62.9456 87.7922 63.96 87.6425 64.0045 88.2979C64.0207 88.5377 63.9406 88.6848 63.5382 88.7887C63.2599 88.8606 62.1458 88.9977 62.215 88.9895C63.0513 88.8908 63.9719 88.1938 62.6435 88.1938" stroke="white" stroke-width="0.5" stroke-linecap="round"/>
<path d="M54.2508 92.3435C56.1897 91.8015 58.3232 91.2726 60.4886 91.2726C60.8798 91.2726 62.0742 91.1075 61.9126 90.7669C61.6926 90.3032 60.1184 90.2017 59.4679 90.2017C57.1477 90.2017 55.5629 90.3853 53.6837 91.2726C53.0006 91.5951 52.8898 92.2719 52.8898 92.7451C52.8898 92.8965 52.8898 93.794 52.8898 93.2805" stroke="white" stroke-width="0.5" stroke-linecap="round"/>
<path d="M55.6117 87.6583C55.6117 87.2456 55.4287 86.6642 55.6243 86.2602C55.7144 86.074 57.3149 86.1858 57.6532 86.1858C58.15 86.1858 59.9757 86.0096 60.3247 86.2156C61.2613 86.7683 58.0053 87.3726 57.4012 87.398C56.0427 87.4553 54.6271 87.4393 54.2507 88.3276" stroke="#B7DDFF" stroke-width="0.5" stroke-linecap="round"/>
<path d="M50.6215 83.3746C51.0086 82.3181 50.7768 81.8105 52.3606 81.441C53.0756 81.2741 54.4607 80.7138 54.2382 81.5674C54.1485 81.9116 54.0796 82.3073 53.5451 82.5044C52.7071 82.8135 50.6215 82.4884 50.6215 83.3746Z" stroke="#B7DDFF" stroke-width="0.5" stroke-linecap="round"/>
<path d="M65.1386 88.0598C65.2849 87.1963 69.3379 84.8382 69.2216 86.6915C69.1756 87.4235 66.986 87.5127 66.1846 87.6583C65.1783 87.841 65.1386 88.1816 65.1386 88.7292" stroke="#B7DDFF" stroke-width="0.5" stroke-linecap="round"/>
<path d="M82.9692 80.6641C84.4128 80.2632 85.8202 79.8069 87.2286 79.3552C88.1032 79.0747 88.8496 79.1282 89.7742 79.0503C90.5881 78.9816 91.512 78.5715 92.3701 78.6635C93.0089 78.7321 92.9498 79.3103 92.9498 79.5932C92.9498 79.9022 92.1995 80.1898 91.7022 80.255C90.948 80.354 90.4652 79.8704 89.7237 79.8609C88.8062 79.8491 87.0736 79.8356 86.5985 80.3963" stroke="#118DFF" stroke-width="0.5" stroke-linecap="round"/>
<path d="M84.3302 84.9478C85.0235 84.4664 85.3644 83.7338 85.8424 83.1629C86.4468 82.441 87.4131 81.6518 87.6823 80.8575C87.9339 80.1149 89.1968 81.7167 89.3079 82.0771C89.4674 82.5949 88.9092 82.6088 88.1737 82.739C87.1548 82.9194 86.4067 83.2009 85.477 83.4753C84.9391 83.634 84.4486 84.1284 84.3428 84.4718C84.1706 85.0308 83.5166 85.4002 82.9692 85.8848" stroke="#118DFF" stroke-width="0.5" stroke-linecap="round"/>
<path d="M82.0504 92.387C81.8809 91.9725 81.9999 91.3727 82.0599 90.9295C82.1524 90.2465 83.6976 90.3439 84.2028 90.3021C84.8471 90.2488 86.1912 90.8248 86.7003 90.3501C86.9621 90.1059 86.4639 91.0438 86.1759 91.2612C85.6362 91.6687 85.102 92.0798 84.5368 92.4078C84.1095 92.6557 83.9553 92.6838 83.7326 93.1418C83.5801 93.4553 83.1094 93.228 82.8714 93.4077" stroke="#EEF3F7" stroke-linecap="round"/>
<path d="M77.014 101.54C76.3874 102.124 76.6011 99.9128 76.5858 99.8619C76.3505 99.0787 78.4474 98.7711 78.9031 98.5916C79.4989 98.3569 84.1582 96.8926 83.301 98.8451C83.0579 99.399 82.8616 100.275 82.1193 100.205C81.7265 100.168 81.1573 100.066 80.8177 100.34C80.1432 100.884 79.8235 102.083 79.4596 102.832" stroke="#EEF3F7" stroke-linecap="round"/>
<path d="M72.0074 97.9472C71.0146 98.1701 73.1393 95.3913 73.4126 95.1759C73.8852 94.8032 76.8563 94.3901 76.9118 95.1972C76.9732 96.0904 74.9962 96.5489 74.3865 96.7816C73.4701 97.1312 73.2386 97.5449 72.8467 98.3508C72.4185 99.2313 72.238 98.8584 71.4256 99.1435" stroke="white" stroke-width="0.5" stroke-linecap="round"/>
<path d="M78.0799 91.3898C78.5427 90.1486 77.9118 88.9527 78.5767 87.7063C79.2508 86.4426 83.0766 85.2041 82.0317 87.5226C81.3975 88.9299 80.4401 88.0235 79.3882 88.8178C78.5428 89.4561 78.0504 90.0935 77.316 90.8312" stroke="white" stroke-width="0.5" stroke-linecap="round"/>
<path d="M80.4781 95.5089C80.691 95.0711 81.0775 92.3266 81.6162 92.3995C82.3542 92.4993 85.1012 93.1036 85.1572 93.7841C85.3235 95.8055 82.7471 94.7769 81.8503 94.4026C81.4187 94.2225 80.4219 93.5627 79.8965 93.7471C79.1826 93.9977 78.5191 94.3775 77.7985 94.6304" stroke="white" stroke-width="0.5" stroke-linecap="round"/>
<path d="M83.5808 89.1285C83.2165 87.1733 83.345 85.4143 85.7971 85.8428C86.5182 85.9688 86.5932 85.8062 86.531 86.5222C86.4361 87.6154 83.5183 87.651 82.6773 87.792" stroke="white" stroke-width="0.5" stroke-linecap="round"/>
<path d="M76.6607 87.9194C77.133 86.9483 77.6052 85.9772 78.0774 85.0062C78.4295 84.2822 78.8305 83.5648 79.1386 82.8241C79.4412 82.0964 77.0521 82.0251 76.6449 82.0365C75.5539 82.0669 74.5724 83.0778 74.1871 83.9555C73.9094 84.588 77.049 85.3612 77.609 85.437" stroke="white" stroke-width="0.5" stroke-linecap="round"/>
<circle cx="84.5" cy="68.5" r="1.25" fill="white" stroke="#118DFF" stroke-width="0.5"/>
<circle cx="81" cy="78" r="1.75" fill="white" stroke="#0056A5" stroke-width="0.5"/>
<circle cx="78" cy="69" r="0.75" fill="white" stroke="#118DFF" stroke-width="0.5"/>
<circle cx="80" cy="72" r="0.75" fill="white" stroke="#118DFF" stroke-width="0.5"/>
<circle cx="88" cy="65" r="0.75" fill="white" stroke="#118DFF" stroke-width="0.5"/>
<path d="M75.3421 74.5914C75.3421 74.719 75.4023 74.8457 75.4042 74.978C75.4065 75.139 75.4042 75.3002 75.4042 75.4613C75.4042 75.6477 75.4042 75.8341 75.4042 76.0205" stroke="white" stroke-width="0.5" stroke-linecap="round"/>
<path d="M65.1983 89.9204C64.9876 89.7799 64.8843 88.6902 65.1096 88.4517C65.6414 87.8886 66.4786 87.6414 67.224 87.5349C67.9688 87.4285 68.0293 88.4122 68.7174 88.4122C68.9508 88.4122 69.4322 88.5204 69.5947 88.3137C69.7644 88.0976 69.9211 87.7179 70.1467 87.5645C70.3379 87.4345 70.7858 87.5125 70.8958 87.7025C71.2645 88.3394 70.3063 89.1979 69.6784 89.2945C68.9959 89.3995 68.3188 88.826 67.6577 88.7227C66.6611 88.567 65.5885 88.6784 64.5773 88.6784" stroke="white" stroke-width="0.5" stroke-linecap="round"/>
<path d="M61.3836 88.4123C61.3836 88.1055 61.4705 87.8636 61.561 87.5695C61.6615 87.243 61.7578 87.2927 62.0243 87.1308C62.4181 86.8918 62.8076 86.6691 63.1973 86.4211C63.3461 86.3264 63.5059 86.3223 63.6409 86.1944C63.7525 86.0887 63.8483 85.903 63.9958 85.8494C64.2658 85.7512 64.646 85.8304 64.8435 86.017C64.96 86.127 65.2105 86.5058 64.8829 86.5443C64.1584 86.6296 63.6847 86.852 63.0692 87.2787C62.6499 87.5693 62.194 87.832 61.7927 88.1461C61.4617 88.4051 61.4999 88.7353 61.4723 89.122" stroke="white" stroke-width="0.5" stroke-linecap="round"/>
<path d="M70.4325 92.5818C70.4325 92.0344 70.0973 90.0364 70.817 89.7873C71.5761 89.5246 72.0766 89.6282 72.6701 89.0135C72.9471 88.7266 73.2189 88.3163 73.5277 88.8952C73.7798 89.3679 74.0072 90.2394 73.5819 90.6646C73.3049 90.9417 73.2714 91.0342 73.2714 91.4286C73.2714 91.6201 73.4546 92.0948 73.3059 92.227C72.8394 92.6416 72.111 92.5526 71.5464 92.6903C70.8468 92.8609 70.0167 93.091 69.4567 93.5577" stroke="#98B9D7" stroke-width="0.5" stroke-linecap="round"/>
<path d="M66.1742 93.3802C66.1142 93.1201 65.6794 92.7902 65.7356 92.5374C65.8365 92.0831 67.1345 91.5599 67.5296 91.3989C67.814 91.2831 68.9409 91.1915 69.1018 91.3792C69.623 91.9873 67.9951 92.6705 67.5591 92.6705C67.0157 92.6705 67.1702 93.4528 67.1451 93.8041C67.1177 94.1879 66.5521 94.0936 66.2826 94.09C65.7433 94.0828 65.5991 93.674 65.4645 93.2028" stroke="#3FA3FF" stroke-width="0.5" stroke-linecap="round"/>
<path d="M72.0294 84.8637C72.304 84.8026 72.3613 84.04 72.3842 83.7991C72.4262 83.3587 72.7988 83.3555 73.1827 83.3555C73.6899 83.3555 73.5439 83.1737 73.7692 82.8232C74.0196 82.4337 74.4614 82.2762 73.9614 81.8671C73.6914 81.6461 73.3359 82.4036 73.2024 82.5176C72.8939 82.781 72.6522 82.7345 72.2512 82.7345C71.8002 82.7345 71.4078 82.3789 71.1964 83.0598C70.9994 83.6946 71.304 84.5871 71.8519 84.9524" stroke="#3FA3FF" stroke-width="0.5" stroke-linecap="round"/>
</svg>
