<svg width="128" height="128" viewBox="0 0 128 128" fill="none" xmlns="http://www.w3.org/2000/svg">
<g clip-path="url(#clip0_270_82)">
<rect width="128" height="128" fill="white"/>
<rect x="-3" y="27" width="134" height="76.0212" fill="#FFA800"/>
<path d="M15.0137 68.184C15.5137 68.1878 15.9121 67.9875 16.2089 67.5831C16.5058 67.1787 16.7 66.6868 16.7917 66.1075L17.4117 66.1121C17.3121 66.8314 17.0702 67.4429 16.6858 67.9467C16.4701 68.2251 16.2249 68.4332 15.9504 68.5712C15.6826 68.7025 15.3852 68.7869 15.0582 68.8244C14.7379 68.862 14.3177 68.8788 13.7977 68.8749C13.0644 68.8693 12.4684 68.7948 12.0096 68.6513C11.5575 68.5012 11.1696 68.2616 10.8457 67.9325C10.2113 67.2876 9.89887 66.4053 9.90852 65.2853C9.9187 64.1053 10.2129 63.2309 10.7912 62.6619C11.1677 62.2914 11.5865 62.0479 12.0475 61.9314C12.5085 61.8149 13.1124 61.7595 13.859 61.7651C14.5457 61.7703 15.1019 61.8245 15.5277 61.9278C15.9602 62.0244 16.3118 62.2304 16.5824 62.5458C16.8068 62.8075 16.9808 63.1221 17.1043 63.4897C17.2278 63.8574 17.298 64.2212 17.3149 64.5814L16.7449 64.5771C16.7208 64.2769 16.6501 63.9697 16.5328 63.6554C16.4222 63.3346 16.2446 63.0599 15.9999 62.8314C15.7553 62.5962 15.4429 62.4771 15.063 62.4743C14.703 62.4715 14.4116 62.626 14.1889 62.9377C13.9935 63.1828 13.8437 63.5451 13.7395 64.0243C13.663 64.3904 13.6227 64.8201 13.6184 65.3134C13.6117 66.0934 13.6996 66.7241 13.8821 67.2054C14.1165 67.8539 14.4937 68.1801 15.0137 68.184ZM19.7635 61.8698L22.6834 61.892L25.723 68.9152L21.9431 68.8865L20.9131 66.5587L18.7132 66.542L17.7932 68.8551L17.0632 68.8496L19.7635 61.8698ZM20.6384 65.9466L19.7459 63.9098L18.9384 65.9337L20.6384 65.9466ZM26.1784 61.9184L32.8682 61.9691C33.1949 61.9716 33.4941 62.0572 33.766 62.2259C34.0446 62.388 34.2627 62.6097 34.4203 62.8909C34.5846 63.1655 34.6654 63.4661 34.6625 63.7927C34.6588 64.2261 34.5221 64.6184 34.2524 64.9697C33.9827 65.321 33.6441 65.5451 33.2365 65.642C33.5957 65.7447 33.8874 65.9369 34.1116 66.2186C34.3425 66.5004 34.4564 66.8179 34.4534 67.1712L34.4378 68.9812L31.0879 68.9558L31.1066 66.7859C31.1084 66.5726 31.0699 66.4056 30.9909 66.285C30.8988 66.1443 30.793 66.0402 30.6736 65.9726C30.5409 65.8982 30.3914 65.8438 30.225 65.8092C30.0519 65.7745 29.8888 65.7533 29.7355 65.7455L29.4656 65.7334L29.4379 68.9433L26.118 68.9182L26.1784 61.9184ZM29.8206 65.1561C30.0606 65.1579 30.2811 65.1029 30.482 64.9911C30.6897 64.8727 30.8511 64.7139 30.9662 64.5148C31.088 64.309 31.1498 64.0895 31.1519 63.8562C31.1539 63.6162 31.0958 63.3957 30.9776 63.1948C30.866 62.9873 30.7074 62.8228 30.5018 62.7012C30.3028 62.5797 30.0834 62.518 29.8434 62.5162L29.4934 62.5136L29.4705 65.1635L29.8206 65.1561ZM34.6507 61.9826L38.0506 62.0083L40.3449 67.3159L42.3605 62.041L43.8605 62.0524L46.1158 67.2396L48.0803 62.0843L48.8503 62.0901L46.15 69.0699L43.1201 69.0469L41.6984 65.7561L40.4302 69.0266L37.6903 69.0058L34.6507 61.9826ZM49.6552 62.0962L52.5751 62.1184L55.6147 69.1416L51.8348 69.1129L50.8048 66.7851L48.6049 66.7684L47.6849 69.0815L46.9549 69.076L49.6552 62.0962ZM50.5301 66.173L49.6376 64.1362L48.8301 66.1601L50.5301 66.173ZM60.8986 64.6915C61.6901 64.9108 62.281 65.1986 62.6713 65.5549C63.0616 65.9046 63.2543 66.3594 63.2495 66.9193C63.2457 67.366 63.1022 67.7649 62.8192 68.1161C62.5361 68.4673 62.1204 68.7408 61.5721 68.9367C61.0303 69.1326 60.3728 69.2276 59.5995 69.2218C58.6862 69.2148 57.8806 69.0921 57.1826 68.8534C56.4914 68.6082 55.9506 68.3141 55.5602 67.9711L55.894 67.5236C56.2383 67.7996 56.673 68.0362 57.198 68.2335C57.7229 68.4309 58.2888 68.5318 58.8954 68.5364C59.2887 68.5394 59.5859 68.485 59.7869 68.3732C59.9945 68.2614 60.0992 68.1022 60.101 67.8955C60.1041 67.5355 59.7498 67.2528 59.0383 67.0474L57.7416 66.6576C57.0368 66.4389 56.4927 66.1381 56.1093 65.7552C55.7326 65.3724 55.5465 64.9209 55.5509 64.401C55.5547 63.9676 55.6947 63.5754 55.9711 63.2241C56.2475 62.8729 56.6465 62.5992 57.1682 62.4032C57.6967 62.2005 58.3275 62.1019 59.0609 62.1075C59.7608 62.1128 60.4035 62.1976 60.9887 62.3621C61.5807 62.5266 62.0623 62.7236 62.4337 62.953L62.0997 63.4105C61.788 63.2282 61.4126 63.072 60.9737 62.942C60.5415 62.812 60.0854 62.7453 59.6054 62.7416C59.1854 62.7384 58.8615 62.8027 58.6337 62.9343C58.4126 63.0593 58.3011 63.2351 58.2991 63.4617C58.2977 63.6351 58.3797 63.789 58.5452 63.9236C58.7107 64.0515 59.0263 64.1806 59.4919 64.3108L60.8986 64.6915ZM63.7945 62.2033L67.1944 62.2291L67.1674 65.359L69.3773 65.3757L69.4043 62.2458L72.8042 62.2716L72.7439 69.2713L69.344 69.2456L69.3716 66.0457L67.1616 66.0289L67.134 69.2288L63.7341 69.2031L63.7945 62.2033ZM78.6227 64.8257C79.4142 65.045 80.0051 65.3329 80.3954 65.6892C80.7857 66.0388 80.9784 66.4936 80.9736 67.0536C80.9698 67.5002 80.8263 67.8992 80.5433 68.2504C80.2602 68.6016 79.8445 68.8751 79.2962 69.0709C78.7545 69.2668 78.0969 69.3619 77.3236 69.356C76.4103 69.3491 75.6047 69.2263 74.9067 68.9877C74.2155 68.7424 73.6747 68.4483 73.2843 68.1054L73.6181 67.6579C73.9624 67.9338 74.3971 68.1705 74.9221 68.3678C75.447 68.5651 76.0129 68.6661 76.6195 68.6706C77.0128 68.6736 77.31 68.6192 77.511 68.5074C77.7186 68.3956 77.8233 68.2364 77.8251 68.0298C77.8282 67.6698 77.4739 67.3871 76.7624 67.1817L75.4657 66.7919C74.7609 66.5732 74.2168 66.2724 73.8334 65.8895C73.4567 65.5066 73.2706 65.0552 73.2751 64.5352C73.2788 64.1019 73.4188 63.7096 73.6952 63.3583C73.9716 63.0071 74.3706 62.7334 74.8923 62.5374C75.4208 62.3347 76.0516 62.2362 76.785 62.2417C77.4849 62.247 78.1276 62.3319 78.7128 62.4963C79.3048 62.6608 79.7864 62.8578 80.1578 63.0873L79.8238 63.5448C79.5121 63.3624 79.1367 63.2062 78.6978 63.0762C78.2656 62.9463 77.8095 62.8795 77.3295 62.8759C76.9095 62.8727 76.5856 62.9369 76.3578 63.0685C76.1367 63.1935 76.0252 63.3693 76.0233 63.596C76.0218 63.7693 76.1038 63.9233 76.2693 64.0579C76.4348 64.1858 76.7504 64.3148 77.216 64.445L78.6227 64.8257ZM81.5186 62.3376L84.7785 62.3623L84.7181 69.362L81.4582 69.3373L81.5186 62.3376ZM85.9164 64.7109L85.8762 69.3708L85.2863 69.3663L85.3466 62.3666L88.2665 62.3887L89.7013 65.3196L90.8865 62.4085L94.0864 62.4328L94.026 69.4325L90.8261 69.4083L90.8714 64.1585L88.7862 69.3928L87.9162 69.3862L85.9164 64.7109ZM94.653 62.4371L101.003 62.4851C101.589 62.4896 102.061 62.6632 102.418 63.0059C102.775 63.3419 102.952 63.7966 102.947 64.3699C102.944 64.7099 102.858 65.0259 102.688 65.318C102.519 65.6101 102.287 65.8416 101.992 66.0127C101.698 66.1838 101.364 66.268 100.99 66.2652L97.9402 66.2521L97.9125 69.4619L94.5926 69.4368L94.653 62.4371ZM98.2952 65.6747C98.5352 65.6765 98.7557 65.6215 98.9567 65.5097C99.1643 65.3913 99.3257 65.2325 99.4408 65.0334C99.5626 64.8276 99.6245 64.6081 99.6265 64.3748C99.6285 64.1348 99.5704 63.9143 99.4522 63.7134C99.3406 63.5059 99.182 63.3414 98.9764 63.2198C98.7774 63.0983 98.558 63.0366 98.318 63.0348L97.968 63.0322L97.9452 65.6721L98.2952 65.6747ZM103.452 62.5037L106.961 62.5303L106.906 68.93L110.706 68.9588L110.701 69.5588L103.391 69.5034L103.452 62.5037ZM111.332 62.5634L118.602 62.6184L118.597 63.2084L114.847 63.18L114.825 65.7699L116.665 65.7839L116.659 66.3838L114.82 66.3699L114.797 68.9898L118.547 69.0182L118.542 69.6182L111.272 69.5631L111.332 62.5634Z" fill="white"/>
<path d="M16.2089 67.5831L16.1283 67.524L16.1283 67.524L16.2089 67.5831ZM16.7917 66.1075L16.7925 66.0075L16.7064 66.0068L16.6929 66.0919L16.7917 66.1075ZM17.4117 66.1121L17.5107 66.1258L17.5263 66.013L17.4125 66.0122L17.4117 66.1121ZM16.6858 67.9467L16.7648 68.0079L16.7653 68.0073L16.6858 67.9467ZM15.9504 68.5712L15.9944 68.6609L15.9952 68.6605L15.9504 68.5712ZM15.0582 68.8244L15.0469 68.7251L15.0466 68.7251L15.0582 68.8244ZM12.0096 68.6513L11.978 68.7462L11.9796 68.7467L12.0096 68.6513ZM10.8457 67.9325L10.7744 68.0026L10.8457 67.9325ZM10.7912 62.6619L10.7211 62.5907L10.7211 62.5907L10.7912 62.6619ZM12.0475 61.9314L12.0231 61.8345L12.0231 61.8345L12.0475 61.9314ZM15.5277 61.9278L15.504 62.025L15.5058 62.0254L15.5277 61.9278ZM16.5824 62.5458L16.6583 62.4806L16.6583 62.4806L16.5824 62.5458ZM17.1043 63.4897L17.0095 63.5217L17.0095 63.5217L17.1043 63.4897ZM17.3149 64.5814L17.314 64.6814L17.4197 64.6822L17.4148 64.5766L17.3149 64.5814ZM16.7449 64.5771L16.6452 64.5852L16.6525 64.6764L16.744 64.6771L16.7449 64.5771ZM16.5328 63.6554L16.4382 63.6881L16.4391 63.6905L16.5328 63.6554ZM15.9999 62.8314L15.9306 62.9035L15.9316 62.9045L15.9999 62.8314ZM14.1889 62.9377L14.2672 63L14.2703 62.9957L14.1889 62.9377ZM13.7395 64.0243L13.6418 64.0031L13.6417 64.0039L13.7395 64.0243ZM13.8821 67.2054L13.9762 67.1714L13.9756 67.1699L13.8821 67.2054ZM15.0129 68.284C15.5451 68.2881 15.9737 68.0725 16.2895 67.6422L16.1283 67.524C15.8505 67.9026 15.4823 68.0876 15.0146 68.084L15.0129 68.284ZM16.2895 67.6422C16.5973 67.2229 16.7967 66.7154 16.8905 66.123L16.6929 66.0919C16.6033 66.6582 16.4142 67.1344 16.1283 67.524L16.2895 67.6422ZM16.7908 66.2074L17.4108 66.2121L17.4125 66.0122L16.7925 66.0075L16.7908 66.2074ZM17.3126 66.0985C17.2151 66.8033 16.9788 67.3979 16.6063 67.8861L16.7653 68.0073C17.1616 67.4879 17.4092 66.8596 17.5107 66.1258L17.3126 66.0985ZM16.6068 67.8855C16.3989 68.1538 16.1649 68.3515 15.9056 68.4818L15.9952 68.6605C16.2849 68.5149 16.5413 68.2964 16.7648 68.0079L16.6068 67.8855ZM15.9065 68.4814C15.6499 68.6072 15.3637 68.6887 15.0469 68.7251L15.0695 68.9237C15.4067 68.8851 15.7153 68.7978 15.9944 68.6609L15.9065 68.4814ZM15.0466 68.7251C14.7321 68.762 14.3166 68.7788 13.7986 68.7749L13.7969 68.9749C14.3188 68.9788 14.7436 68.962 15.0697 68.9237L15.0466 68.7251ZM13.7986 68.7749C13.0705 68.7693 12.4853 68.6953 12.0395 68.5559L11.9796 68.7467C12.4514 68.8943 13.0583 68.9693 13.7969 68.9749L13.7986 68.7749ZM12.0412 68.5564C11.6036 68.4111 11.2294 68.1798 10.917 67.8623L10.7744 68.0026C11.1097 68.3434 11.5114 68.5913 11.978 68.7462L12.0412 68.5564ZM10.917 67.8623C10.3054 67.2406 9.99903 66.3862 10.0085 65.2861L9.80853 65.2845C9.7987 66.4243 10.1172 67.3347 10.7744 68.0026L10.917 67.8623ZM10.0085 65.2861C10.0186 64.1205 10.3091 63.2765 10.8613 62.7332L10.7211 62.5907C10.1167 63.1853 9.81883 64.0901 9.80853 65.2845L10.0085 65.2861ZM10.8613 62.7332C11.2266 62.3737 11.63 62.14 12.0719 62.0284L12.0231 61.8345C11.543 61.9558 11.1089 62.2091 10.7211 62.5907L10.8613 62.7332ZM12.0719 62.0284C12.5214 61.9148 13.1158 61.8595 13.8582 61.8651L13.8599 61.6651C13.109 61.6594 12.4957 61.715 12.0231 61.8345L12.0719 62.0284ZM13.8582 61.8651C14.5409 61.8703 15.0887 61.9242 15.504 62.0249L15.5513 61.8306C15.1151 61.7248 14.5504 61.6704 13.8599 61.6651L13.8582 61.8651ZM15.5058 62.0254C15.9187 62.1176 16.2508 62.313 16.5065 62.6109L16.6583 62.4806C16.3727 62.1477 16.0017 61.9311 15.5496 61.8302L15.5058 62.0254ZM16.5064 62.6109C16.7215 62.8617 16.8896 63.1647 17.0095 63.5217L17.1991 63.4578C17.072 63.0795 16.8921 62.7532 16.6583 62.4806L16.5064 62.6109ZM17.0095 63.5217C17.1303 63.8812 17.1985 64.2359 17.215 64.5862L17.4148 64.5766C17.3974 64.2065 17.3253 63.8335 17.1991 63.4578L17.0095 63.5217ZM17.3157 64.4814L16.7457 64.4771L16.744 64.6771L17.314 64.6814L17.3157 64.4814ZM16.8446 64.569C16.8197 64.2586 16.7467 63.9423 16.6265 63.6204L16.4391 63.6905C16.5536 63.997 16.6219 64.2952 16.6452 64.5852L16.8446 64.569ZM16.6274 63.6228C16.5116 63.2867 16.325 62.9981 16.0682 62.7582L15.9316 62.9045C16.1642 63.1217 16.3329 63.3825 16.4383 63.6881L16.6274 63.6228ZM16.0693 62.7592C15.8039 62.5042 15.4661 62.3773 15.0638 62.3743L15.0621 62.5743C15.4198 62.577 15.7066 62.6882 15.9306 62.9035L16.0693 62.7592ZM15.0638 62.3743C14.6689 62.3713 14.3478 62.5434 14.1076 62.8796L14.2703 62.9957C14.4754 62.7086 14.737 62.5718 15.0621 62.5743L15.0638 62.3743ZM14.1108 62.8754C13.9018 63.1375 13.7476 63.5165 13.6418 64.0031L13.8373 64.0454C13.9398 63.5736 14.0851 63.2282 14.2671 62.9999L14.1108 62.8754ZM13.6417 64.0039C13.5635 64.3781 13.5227 64.8147 13.5184 65.3126L13.7184 65.3142C13.7226 64.8255 13.7626 64.4026 13.8374 64.0446L13.6417 64.0039ZM13.5184 65.3126C13.5116 66.0993 13.6 66.7436 13.7886 67.241L13.9756 67.1699C13.7991 66.7045 13.7117 66.0875 13.7184 65.3142L13.5184 65.3126ZM13.7881 67.2395C13.909 67.574 14.0698 67.8344 14.2754 68.0121C14.4827 68.1914 14.7302 68.2819 15.0129 68.284L15.0146 68.084C14.7772 68.0823 14.5761 68.0077 14.4063 67.8608C14.2346 67.7123 14.0897 67.4854 13.9762 67.1714L13.7881 67.2395ZM19.7635 61.8698L19.7644 61.7698L19.6952 61.7693L19.6702 61.8338L19.7635 61.8698ZM22.6834 61.892L22.7752 61.8522L22.7493 61.7925L22.6843 61.792L22.6834 61.892ZM25.723 68.9152L25.7221 69.0152L25.8757 69.0163L25.8147 68.8754L25.723 68.9152ZM21.9431 68.8865L21.8516 68.9271L21.8777 68.9861L21.9422 68.9865L21.9431 68.8865ZM20.9131 66.5587L21.0046 66.5181L20.9785 66.4592L20.914 66.4587L20.9131 66.5587ZM18.7132 66.542L18.714 66.442L18.6456 66.4415L18.6202 66.5051L18.7132 66.542ZM17.7932 68.8551L17.7923 68.9551L17.8608 68.9556L17.8861 68.892L17.7932 68.8551ZM17.0632 68.8496L16.9699 68.8136L16.9178 68.9485L17.0623 68.9496L17.0632 68.8496ZM20.6384 65.9466L20.6375 66.0466L20.7919 66.0477L20.73 65.9064L20.6384 65.9466ZM19.7459 63.9098L19.8375 63.8696L19.7416 63.6507L19.653 63.8728L19.7459 63.9098ZM18.9384 65.9337L18.8455 65.8967L18.7913 66.0326L18.9376 66.0337L18.9384 65.9337ZM19.7626 61.9698L22.6825 61.992L22.6843 61.792L19.7644 61.7698L19.7626 61.9698ZM22.5916 61.9318L25.6312 68.955L25.8147 68.8754L22.7752 61.8522L22.5916 61.9318ZM25.7238 68.8152L21.9439 68.7866L21.9422 68.9865L25.7221 69.0152L25.7238 68.8152ZM22.0345 68.846L21.0046 66.5181L20.8216 66.5992L21.8516 68.9271L22.0345 68.846ZM20.914 66.4587L18.714 66.442L18.7123 66.642L20.9122 66.6587L20.914 66.4587ZM18.6202 66.5051L17.7003 68.8182L17.8861 68.892L18.8061 66.5789L18.6202 66.5051ZM17.794 68.7551L17.0641 68.7496L17.0623 68.9496L17.7923 68.9551L17.794 68.7551ZM17.1565 68.8856L19.8568 61.9058L19.6702 61.8338L16.9699 68.8136L17.1565 68.8856ZM20.73 65.9064L19.8375 63.8696L19.6543 63.95L20.5468 65.9868L20.73 65.9064ZM19.653 63.8728L18.8455 65.8967L19.0313 65.9707L19.8388 63.9467L19.653 63.8728ZM18.9376 66.0337L20.6375 66.0466L20.6392 65.8466L18.9393 65.8337L18.9376 66.0337ZM26.1784 61.9184L26.1792 61.8184L26.0793 61.8177L26.0784 61.9177L26.1784 61.9184ZM33.766 62.2259L33.7132 62.3109L33.7157 62.3123L33.766 62.2259ZM34.4203 62.8909L34.333 62.9399L34.3345 62.9423L34.4203 62.8909ZM34.2524 64.9697L34.3317 65.0305L34.3317 65.0305L34.2524 64.9697ZM33.2365 65.642L33.2135 65.5447L32.8418 65.6331L33.2089 65.7381L33.2365 65.642ZM34.1116 66.2186L34.0333 66.281L34.0342 66.2821L34.1116 66.2186ZM34.4378 68.9812L34.4369 69.0812L34.5369 69.0819L34.5378 68.9819L34.4378 68.9812ZM31.0879 68.9558L30.9879 68.9551L30.987 69.055L31.087 69.0558L31.0879 68.9558ZM30.9909 66.285L30.9072 66.3398L30.9072 66.3398L30.9909 66.285ZM30.6736 65.9726L30.7229 65.8855L30.7225 65.8853L30.6736 65.9726ZM30.225 65.8092L30.2454 65.7113L30.2447 65.7111L30.225 65.8092ZM29.7355 65.7455L29.7407 65.6456L29.7401 65.6456L29.7355 65.7455ZM29.4656 65.7334L29.4702 65.6335L29.3665 65.6289L29.3656 65.7327L29.4656 65.7334ZM29.4379 68.9433L29.4371 69.0433L29.5371 69.0441L29.5379 68.9441L29.4379 68.9433ZM26.118 68.9182L26.018 68.9174L26.0172 69.0174L26.1172 69.0182L26.118 68.9182ZM29.8206 65.1561L29.8215 65.0561L29.8186 65.0561L29.8206 65.1561ZM30.482 64.9911L30.5306 65.0785L30.5315 65.078L30.482 64.9911ZM30.9662 64.5148L30.8801 64.4639L30.8796 64.4648L30.9662 64.5148ZM30.9776 63.1948L30.8894 63.2423L30.8914 63.2456L30.9776 63.1948ZM30.5018 62.7012L30.4496 62.7866L30.4508 62.7873L30.5018 62.7012ZM29.4934 62.5136L29.4942 62.4136L29.3942 62.4128L29.3934 62.5128L29.4934 62.5136ZM29.4705 65.1635L29.3705 65.1627L29.3696 65.2656L29.4725 65.2634L29.4705 65.1635ZM26.1775 62.0184L32.8673 62.0691L32.8691 61.8691L26.1792 61.8184L26.1775 62.0184ZM32.8673 62.0691C33.176 62.0714 33.4573 62.152 33.7132 62.3109L33.8188 62.1409C33.531 61.9623 33.2137 61.8717 32.8691 61.8691L32.8673 62.0691ZM33.7157 62.3123C33.9788 62.4655 34.1842 62.6742 34.3331 62.9398L34.5076 62.8419C34.3412 62.5452 34.1104 62.3105 33.8164 62.1395L33.7157 62.3123ZM34.3345 62.9423C34.4892 63.2008 34.5652 63.4833 34.5625 63.792L34.7625 63.7935C34.7655 63.4489 34.6801 63.1301 34.5061 62.8395L34.3345 62.9423ZM34.5625 63.792C34.559 64.2031 34.4298 64.5744 34.1731 64.9088L34.3317 65.0305C34.6143 64.6624 34.7586 64.2491 34.7625 63.7935L34.5625 63.792ZM34.1731 64.9088C33.9165 65.243 33.5973 65.4534 33.2135 65.5447L33.2596 65.7393C33.6908 65.6367 34.0488 65.3989 34.3317 65.0305L34.1731 64.9088ZM33.2089 65.7381C33.5489 65.8354 33.8225 66.0162 34.0333 66.281L34.1899 66.1563C33.9522 65.8577 33.6425 65.6541 33.2641 65.5458L33.2089 65.7381ZM34.0342 66.2821C34.2508 66.5464 34.3562 66.8414 34.3534 67.1705L34.5534 67.172C34.5566 66.7945 34.4342 66.4544 34.189 66.1552L34.0342 66.2821ZM34.3534 67.1705L34.3378 68.9804L34.5378 68.9819L34.5534 67.172L34.3534 67.1705ZM34.4387 68.8812L31.0887 68.8558L31.087 69.0558L34.4369 69.0812L34.4387 68.8812ZM31.1879 68.9566L31.2066 66.7866L31.0066 66.7851L30.9879 68.9551L31.1879 68.9566ZM31.2066 66.7866C31.2085 66.5625 31.1684 66.3734 31.0746 66.2302L30.9072 66.3398C30.9714 66.4378 31.0083 66.5826 31.0066 66.7851L31.2066 66.7866ZM31.0746 66.2302C30.9757 66.0791 30.859 65.9625 30.7229 65.8855L30.6243 66.0596C30.7271 66.1178 30.8219 66.2095 30.9072 66.3398L31.0746 66.2302ZM30.7225 65.8853C30.58 65.8055 30.4206 65.7477 30.2454 65.7113L30.2045 65.9071C30.3621 65.9398 30.5018 65.991 30.6246 66.0598L30.7225 65.8853ZM30.2447 65.7111C30.0676 65.6757 29.8995 65.6537 29.7407 65.6456L29.7303 65.8453C29.878 65.8529 30.0363 65.8734 30.2053 65.9072L30.2447 65.7111ZM29.7401 65.6456L29.4702 65.6335L29.461 65.8333L29.731 65.8454L29.7401 65.6456ZM29.3656 65.7327L29.3379 68.9426L29.5379 68.9441L29.5656 65.7342L29.3656 65.7327ZM29.4388 68.8433L26.1189 68.8182L26.1172 69.0182L29.4371 69.0433L29.4388 68.8433ZM26.218 68.9189L26.2784 61.9192L26.0784 61.9177L26.018 68.9174L26.218 68.9189ZM29.8197 65.2561C30.0762 65.258 30.3138 65.1991 30.5306 65.0785L30.4335 64.9037C30.2483 65.0068 30.045 65.0578 29.8215 65.0561L29.8197 65.2561ZM30.5315 65.078C30.754 64.9511 30.9285 64.7798 31.0527 64.5647L30.8796 64.4648C30.7738 64.6479 30.6255 64.7943 30.4326 64.9043L30.5315 65.078ZM31.0522 64.5656C31.1828 64.3451 31.2497 64.1083 31.2519 63.8569L31.0519 63.8554C31.05 64.0706 30.9931 64.2729 30.8801 64.4639L31.0522 64.5656ZM31.2519 63.8569C31.2541 63.5993 31.1915 63.361 31.0637 63.144L30.8914 63.2456C31.0002 63.4304 31.0538 63.633 31.0519 63.8554L31.2519 63.8569ZM31.0656 63.1474C30.9454 62.9236 30.7738 62.7458 30.5528 62.6151L30.4508 62.7873C30.641 62.8997 30.7867 63.051 30.8895 63.2422L31.0656 63.1474ZM30.554 62.6158C30.3391 62.4846 30.1018 62.4182 29.8442 62.4162L29.8425 62.6162C30.0649 62.6179 30.2666 62.6748 30.4496 62.7866L30.554 62.6158ZM29.8442 62.4162L29.4942 62.4136L29.4925 62.6135L29.8425 62.6162L29.8442 62.4162ZM29.3934 62.5128L29.3705 65.1627L29.5705 65.1642L29.5934 62.5143L29.3934 62.5128ZM29.4725 65.2634L29.8226 65.2561L29.8186 65.0561L29.4685 65.0635L29.4725 65.2634ZM34.6507 61.9826L34.6516 61.8826L34.4979 61.8814L34.5589 62.0224L34.6507 61.9826ZM38.0506 62.0083L38.1424 61.9686L38.1166 61.9088L38.0515 61.9084L38.0506 62.0083ZM40.3449 67.3159L40.2531 67.3556L40.3506 67.5811L40.4384 67.3515L40.3449 67.3159ZM42.3605 62.041L42.3614 61.941L42.2919 61.9405L42.2671 62.0054L42.3605 62.041ZM43.8605 62.0524L43.9522 62.0124L43.9263 61.9528L43.8613 61.9524L43.8605 62.0524ZM46.1158 67.2396L46.0241 67.2795L46.1219 67.5044L46.2093 67.2751L46.1158 67.2396ZM48.0803 62.0843L48.0812 61.9843L48.0117 61.9838L47.9869 62.0488L48.0803 62.0843ZM48.8503 62.0901L48.9436 62.1261L48.9958 61.9912L48.8512 61.9901L48.8503 62.0901ZM46.15 69.0699L46.1492 69.1699L46.2183 69.1704L46.2433 69.1059L46.15 69.0699ZM43.1201 69.0469L43.0283 69.0867L43.0541 69.1464L43.1193 69.1469L43.1201 69.0469ZM41.6984 65.7561L41.7903 65.7163L41.6935 65.4924L41.6052 65.72L41.6984 65.7561ZM40.4302 69.0266L40.4293 69.1266L40.4984 69.1271L40.5234 69.0626L40.4302 69.0266ZM37.6903 69.0058L37.5985 69.0456L37.6243 69.1053L37.6894 69.1058L37.6903 69.0058ZM34.6499 62.0826L38.0498 62.1083L38.0515 61.9084L34.6516 61.8826L34.6499 62.0826ZM37.9588 62.0481L40.2531 67.3556L40.4367 67.2761L38.1424 61.9686L37.9588 62.0481ZM40.4384 67.3515L42.4539 62.0766L42.2671 62.0054L40.2515 67.2803L40.4384 67.3515ZM42.3596 62.141L43.8596 62.1523L43.8613 61.9524L42.3614 61.941L42.3596 62.141ZM43.7687 62.0923L46.0241 67.2795L46.2075 67.1996L43.9522 62.0124L43.7687 62.0923ZM46.2093 67.2751L48.1738 62.1198L47.9869 62.0488L46.0224 67.2041L46.2093 67.2751ZM48.0795 62.1843L48.8495 62.1901L48.8512 61.9901L48.0812 61.9843L48.0795 62.1843ZM48.7571 62.0541L46.0568 69.0339L46.2433 69.1059L48.9436 62.1261L48.7571 62.0541ZM46.1509 68.9699L43.121 68.9469L43.1193 69.1469L46.1492 69.1699L46.1509 68.9699ZM43.2119 69.0072L41.7903 65.7163L41.6066 65.7958L43.0283 69.0867L43.2119 69.0072ZM41.6052 65.72L40.337 68.9905L40.5234 69.0626L41.7917 65.7922L41.6052 65.72ZM40.4311 68.9266L37.6911 68.9058L37.6894 69.1058L40.4293 69.1266L40.4311 68.9266ZM37.7821 68.966L34.7425 61.9428L34.5589 62.0224L37.5985 69.0456L37.7821 68.966ZM49.6552 62.0962L49.6561 61.9962L49.5869 61.9957L49.562 62.0602L49.6552 62.0962ZM52.5751 62.1184L52.6669 62.0786L52.6411 62.0189L52.576 62.0184L52.5751 62.1184ZM55.6147 69.1416L55.6138 69.2416L55.7675 69.2427L55.7065 69.1018L55.6147 69.1416ZM51.8348 69.1129L51.7433 69.1535L51.7694 69.2125L51.8339 69.2129L51.8348 69.1129ZM50.8048 66.7851L50.8963 66.7445L50.8702 66.6856L50.8057 66.6851L50.8048 66.7851ZM48.6049 66.7684L48.6058 66.6684L48.5373 66.6679L48.512 66.7315L48.6049 66.7684ZM47.6849 69.0815L47.684 69.1815L47.7525 69.182L47.7778 69.1184L47.6849 69.0815ZM46.9549 69.076L46.8617 69.04L46.8095 69.1749L46.9541 69.176L46.9549 69.076ZM50.5301 66.173L50.5292 66.273L50.6836 66.2741L50.6217 66.1328L50.5301 66.173ZM49.6376 64.1362L49.7292 64.096L49.6333 63.8771L49.5447 64.0992L49.6376 64.1362ZM48.8301 66.1601L48.7373 66.1231L48.6831 66.259L48.8293 66.2601L48.8301 66.1601ZM49.6544 62.1962L52.5743 62.2184L52.576 62.0184L49.6561 61.9962L49.6544 62.1962ZM52.4833 62.1582L55.5229 69.1814L55.7065 69.1018L52.6669 62.0786L52.4833 62.1582ZM55.6155 69.0416L51.8357 69.0129L51.8339 69.2129L55.6138 69.2416L55.6155 69.0416ZM51.9262 69.0724L50.8963 66.7445L50.7134 66.8256L51.7433 69.1535L51.9262 69.0724ZM50.8057 66.6851L48.6058 66.6684L48.604 66.8684L50.804 66.8851L50.8057 66.6851ZM48.512 66.7315L47.592 69.0446L47.7778 69.1184L48.6978 66.8053L48.512 66.7315ZM47.6858 68.9815L46.9558 68.976L46.9541 69.176L47.684 69.1815L47.6858 68.9815ZM47.0482 69.112L49.7485 62.1322L49.562 62.0602L46.8617 69.04L47.0482 69.112ZM50.6217 66.1328L49.7292 64.096L49.546 64.1764L50.4385 66.2132L50.6217 66.1328ZM49.5447 64.0992L48.7373 66.1231L48.923 66.1971L49.7305 64.1731L49.5447 64.0992ZM48.8293 66.2601L50.5292 66.273L50.531 66.073L48.831 66.0601L48.8293 66.2601ZM60.8986 64.6915L60.9254 64.5951L60.9249 64.5949L60.8986 64.6915ZM62.6713 65.5549L62.6038 65.6288L62.6045 65.6294L62.6713 65.5549ZM62.8192 68.1161L62.897 68.1788L62.897 68.1788L62.8192 68.1161ZM61.5721 68.9367L61.5385 68.8425L61.5381 68.8427L61.5721 68.9367ZM57.1826 68.8534L57.1491 68.9477L57.1502 68.9481L57.1826 68.8534ZM55.5602 67.9711L55.48 67.9114L55.4248 67.9854L55.4941 68.0463L55.5602 67.9711ZM55.894 67.5236L55.9566 67.4456L55.8759 67.3809L55.8139 67.4639L55.894 67.5236ZM57.198 68.2335L57.2332 68.1399L57.2332 68.1399L57.198 68.2335ZM59.7869 68.3732L59.7395 68.2851L59.7383 68.2858L59.7869 68.3732ZM59.0383 67.0474L59.0094 67.1432L59.0104 67.1435L59.0383 67.0474ZM57.7416 66.6576L57.7118 66.7531L57.7127 66.7534L57.7416 66.6576ZM56.1093 65.7552L56.038 65.8254L56.0386 65.826L56.1093 65.7552ZM55.9711 63.2241L56.0497 63.2859L56.0497 63.2859L55.9711 63.2241ZM57.1682 62.4032L57.2033 62.4968L57.204 62.4965L57.1682 62.4032ZM60.9887 62.3621L60.9616 62.4584L60.9619 62.4584L60.9887 62.3621ZM62.4337 62.953L62.5144 63.012L62.5781 62.9247L62.4863 62.868L62.4337 62.953ZM62.0997 63.4105L62.0492 63.4969L62.1272 63.5425L62.1805 63.4694L62.0997 63.4105ZM60.9737 62.942L60.9448 63.0378L60.9452 63.0379L60.9737 62.942ZM58.6337 62.9343L58.6829 63.0213L58.6837 63.0208L58.6337 62.9343ZM58.5452 63.9236L58.482 64.0013L58.484 64.0028L58.5452 63.9236ZM59.4919 64.3108L59.4648 64.4071L59.4657 64.4073L59.4919 64.3108ZM60.8718 64.7878C61.6557 65.0051 62.2298 65.2874 62.6038 65.6288L62.7387 65.481C62.3322 65.1099 61.7245 64.8165 60.9254 64.5951L60.8718 64.7878ZM62.6045 65.6294C62.9719 65.9585 63.1541 66.3851 63.1495 66.9186L63.3495 66.9201C63.3546 66.3336 63.1513 65.8506 62.738 65.4804L62.6045 65.6294ZM63.1495 66.9186C63.1459 67.3425 63.0104 67.7196 62.7413 68.0534L62.897 68.1788C63.1941 67.8102 63.3455 67.3895 63.3495 66.9201L63.1495 66.9186ZM62.7413 68.0534C62.4728 68.3866 62.0745 68.6511 61.5385 68.8425L61.6056 69.0309C62.1664 68.8306 62.5995 68.548 62.897 68.1788L62.7413 68.0534ZM61.5381 68.8427C61.0107 69.0334 60.3657 69.1276 59.6004 69.1218L59.5987 69.3218C60.38 69.3277 61.05 69.2318 61.606 69.0307L61.5381 68.8427ZM59.6004 69.1218C58.6954 69.1149 57.9008 68.9933 57.2151 68.7588L57.1502 68.9481C57.8604 69.1909 58.6771 69.3148 59.5987 69.3218L59.6004 69.1218ZM57.2161 68.7592C56.5323 68.5166 56.004 68.2279 55.6262 67.896L55.4941 68.0463C55.8971 68.4003 56.4504 68.6998 57.1491 68.9477L57.2161 68.7592ZM55.6403 68.0309L55.9742 67.5834L55.8139 67.4639L55.48 67.9114L55.6403 68.0309ZM55.8314 67.6017C56.1859 67.8858 56.6304 68.1271 57.1627 68.3272L57.2332 68.1399C56.7156 67.9454 56.2908 67.7134 55.9566 67.4456L55.8314 67.6017ZM57.1627 68.3272C57.6995 68.5289 58.2771 68.6317 58.8946 68.6364L58.8963 68.4364C58.3004 68.4319 57.7463 68.3328 57.2332 68.1399L57.1627 68.3272ZM58.8946 68.6364C59.2944 68.6394 59.6121 68.5848 59.8354 68.4605L59.7383 68.2858C59.5597 68.3852 59.2831 68.4393 58.8963 68.4364L58.8946 68.6364ZM59.8342 68.4612C60.0685 68.3351 60.1988 68.1453 60.201 67.8963L60.001 67.8948C59.9996 68.0591 59.9205 68.1877 59.7395 68.2851L59.8342 68.4612ZM60.201 67.8963C60.2029 67.6778 60.0943 67.4904 59.9001 67.3353C59.7082 67.1822 59.4275 67.0557 59.0661 66.9514L59.0104 67.1435C59.3606 67.2446 59.6128 67.3621 59.7752 67.4917C59.9352 67.6194 60.0022 67.7533 60.001 67.8948L60.201 67.8963ZM59.0671 66.9517L57.7705 66.5618L57.7127 66.7534L59.0094 67.1432L59.0671 66.9517ZM57.7713 66.5621C57.0766 66.3466 56.5485 66.0525 56.18 65.6844L56.0386 65.826C56.4368 66.2237 56.9969 66.5313 57.7118 66.7531L57.7713 66.5621ZM56.1806 65.6851C55.8218 65.3204 55.6467 64.8942 55.6509 64.4017L55.451 64.4002C55.4462 64.9477 55.6434 65.4243 56.038 65.8254L56.1806 65.6851ZM55.6509 64.4017C55.6545 63.9913 55.7866 63.6203 56.0497 63.2859L55.8925 63.1623C55.6029 63.5304 55.4549 63.944 55.451 64.4002L55.6509 64.4017ZM56.0497 63.2859C56.3122 62.9522 56.6945 62.688 57.2033 62.4968L57.1331 62.3095C56.5985 62.5105 56.1827 62.7935 55.8925 63.1623L56.0497 63.2859ZM57.204 62.4965C57.7178 62.2994 58.3357 62.202 59.06 62.2075L59.0617 62.0075C58.3194 62.0019 57.6755 62.1015 57.1325 62.3098L57.204 62.4965ZM59.06 62.2075C59.7524 62.2127 60.386 62.2967 60.9616 62.4584L61.0159 62.2658C60.4209 62.0986 59.7693 62.0128 59.0617 62.0075L59.06 62.2075ZM60.9619 62.4584C61.5481 62.6213 62.0202 62.8152 62.3811 63.0381L62.4863 62.868C62.1044 62.632 61.6132 62.4318 61.0156 62.2657L60.9619 62.4584ZM62.3529 62.8941L62.019 63.3516L62.1805 63.4694L62.5144 63.012L62.3529 62.8941ZM62.1503 63.3242C61.83 63.1369 61.4469 62.9778 61.0022 62.8461L60.9452 63.0379C61.3784 63.1662 61.7459 63.3195 62.0492 63.4969L62.1503 63.3242ZM61.0026 62.8462C60.5607 62.7134 60.0951 62.6453 59.6063 62.6416L59.6045 62.8416C60.0756 62.8452 60.5223 62.9107 60.9448 63.0378L61.0026 62.8462ZM59.6063 62.6416C59.1781 62.6384 58.8336 62.7033 58.5838 62.8477L58.6837 63.0208C58.8894 62.902 59.1928 62.8385 59.6045 62.8416L59.6063 62.6416ZM58.5846 62.8472C58.3368 62.9873 58.2015 63.1937 58.1992 63.461L58.3991 63.4625C58.4007 63.2765 58.4884 63.1312 58.6829 63.0213L58.5846 62.8472ZM58.1992 63.461C58.1973 63.6717 58.299 63.8524 58.482 64.0012L58.6083 63.846C58.4604 63.7257 58.398 63.5985 58.3991 63.4625L58.1992 63.461ZM58.484 64.0028C58.6664 64.1437 58.9989 64.2768 59.4648 64.4071L59.5189 64.2145C59.0537 64.0844 58.7551 63.9594 58.6064 63.8445L58.484 64.0028ZM59.4657 64.4073L60.8724 64.788L60.9249 64.5949L59.5181 64.2143L59.4657 64.4073ZM63.7945 62.2033L63.7954 62.1033L63.6954 62.1026L63.6945 62.2026L63.7945 62.2033ZM67.1944 62.2291L67.2944 62.2298L67.2953 62.1298L67.1953 62.1291L67.1944 62.2291ZM67.1674 65.359L67.0674 65.3582L67.0666 65.4582L67.1665 65.459L67.1674 65.359ZM69.3773 65.3757L69.3765 65.4757L69.4765 65.4765L69.4773 65.3765L69.3773 65.3757ZM69.4043 62.2458L69.4052 62.1458L69.3052 62.1451L69.3043 62.2451L69.4043 62.2458ZM72.8042 62.2716L72.9042 62.2723L72.9051 62.1723L72.8051 62.1716L72.8042 62.2716ZM72.7439 69.2713L72.743 69.3713L72.843 69.3721L72.8439 69.2721L72.7439 69.2713ZM69.344 69.2456L69.244 69.2448L69.2431 69.3448L69.3431 69.3456L69.344 69.2456ZM69.3716 66.0457L69.4716 66.0464L69.4724 65.9464L69.3724 65.9457L69.3716 66.0457ZM67.1616 66.0289L67.1625 65.9289L67.0625 65.9282L67.0616 66.0282L67.1616 66.0289ZM67.134 69.2288L67.1332 69.3288L67.2332 69.3296L67.234 69.2296L67.134 69.2288ZM63.7341 69.2031L63.6341 69.2023L63.6333 69.3023L63.7333 69.3031L63.7341 69.2031ZM63.7936 62.3033L67.1935 62.3291L67.1953 62.1291L63.7954 62.1033L63.7936 62.3033ZM67.0944 62.2283L67.0674 65.3582L67.2674 65.3597L67.2944 62.2298L67.0944 62.2283ZM67.1665 65.459L69.3765 65.4757L69.3782 65.2757L67.1683 65.259L67.1665 65.459ZM69.4773 65.3765L69.5043 62.2466L69.3043 62.2451L69.2774 65.3749L69.4773 65.3765ZM69.4035 62.3458L72.8034 62.3716L72.8051 62.1716L69.4052 62.1458L69.4035 62.3458ZM72.7042 62.2708L72.6439 69.2706L72.8439 69.2721L72.9042 62.2723L72.7042 62.2708ZM72.7447 69.1713L69.3448 69.1456L69.3431 69.3456L72.743 69.3713L72.7447 69.1713ZM69.444 69.2463L69.4716 66.0464L69.2716 66.0449L69.244 69.2448L69.444 69.2463ZM69.3724 65.9457L67.1625 65.9289L67.1608 66.1289L69.3707 66.1457L69.3724 65.9457ZM67.0616 66.0282L67.034 69.2281L67.234 69.2296L67.2616 66.0297L67.0616 66.0282ZM67.1349 69.1288L63.735 69.1031L63.7333 69.3031L67.1332 69.3288L67.1349 69.1288ZM63.8341 69.2038L63.8945 62.2041L63.6945 62.2026L63.6341 69.2023L63.8341 69.2038ZM78.6227 64.8257L78.6495 64.7293L78.649 64.7292L78.6227 64.8257ZM80.3954 65.6892L80.3279 65.763L80.3286 65.7637L80.3954 65.6892ZM80.5433 68.2504L80.6211 68.3131L80.6211 68.3131L80.5433 68.2504ZM79.2962 69.0709L79.2626 68.9768L79.2622 68.9769L79.2962 69.0709ZM74.9067 68.9877L74.8732 69.0819L74.8743 69.0823L74.9067 68.9877ZM73.2843 68.1054L73.2041 68.0456L73.1489 68.1196L73.2182 68.1805L73.2843 68.1054ZM73.6181 67.6579L73.6807 67.5798L73.6 67.5151L73.538 67.5981L73.6181 67.6579ZM74.9221 68.3678L74.9573 68.2742L74.9573 68.2742L74.9221 68.3678ZM77.511 68.5074L77.4636 68.4193L77.4624 68.42L77.511 68.5074ZM76.7624 67.1817L76.7335 67.2775L76.7345 67.2778L76.7624 67.1817ZM75.4657 66.7919L75.4359 66.8874L75.4368 66.8876L75.4657 66.7919ZM73.8334 65.8895L73.7621 65.9596L73.7627 65.9603L73.8334 65.8895ZM73.6952 63.3583L73.7738 63.4201L73.7738 63.4201L73.6952 63.3583ZM74.8923 62.5374L74.9274 62.631L74.9281 62.6308L74.8923 62.5374ZM78.7128 62.4963L78.6857 62.5926L78.686 62.5927L78.7128 62.4963ZM80.1578 63.0873L80.2385 63.1462L80.3022 63.0589L80.2104 63.0022L80.1578 63.0873ZM79.8238 63.5448L79.7733 63.6311L79.8513 63.6767L79.9046 63.6037L79.8238 63.5448ZM78.6978 63.0762L78.6689 63.172L78.6693 63.1721L78.6978 63.0762ZM76.3578 63.0685L76.407 63.1555L76.4078 63.1551L76.3578 63.0685ZM76.2693 64.0579L76.2061 64.1355L76.2081 64.137L76.2693 64.0579ZM77.216 64.445L77.1889 64.5414L77.1898 64.5416L77.216 64.445ZM78.5959 64.9221C79.3799 65.1393 79.9539 65.4216 80.3279 65.763L80.4628 65.6153C80.0563 65.2441 79.4486 64.9508 78.6495 64.7293L78.5959 64.9221ZM80.3286 65.7637C80.696 66.0927 80.8782 66.5193 80.8736 67.0528L81.0736 67.0543C81.0787 66.4679 80.8754 65.9848 80.4621 65.6146L80.3286 65.7637ZM80.8736 67.0528C80.87 67.4767 80.7345 67.8538 80.4654 68.1877L80.6211 68.3131C80.9182 67.9445 81.0696 67.5238 81.0736 67.0543L80.8736 67.0528ZM80.4654 68.1877C80.1969 68.5209 79.7986 68.7853 79.2626 68.9768L79.3297 69.1651C79.8905 68.9648 80.3236 68.6822 80.6211 68.3131L80.4654 68.1877ZM79.2622 68.9769C78.7348 69.1676 78.0898 69.2618 77.3245 69.256L77.3228 69.456C78.1041 69.4619 78.7741 69.366 79.3301 69.165L79.2622 68.9769ZM77.3245 69.256C76.4195 69.2491 75.6249 69.1275 74.9392 68.8931L74.8743 69.0823C75.5845 69.3251 76.4012 69.449 77.3228 69.456L77.3245 69.256ZM74.9402 68.8934C74.2564 68.6508 73.7281 68.3621 73.3503 68.0302L73.2182 68.1805C73.6212 68.5345 74.1745 68.8341 74.8732 69.0819L74.9402 68.8934ZM73.3644 68.1651L73.6983 67.7176L73.538 67.5981L73.2041 68.0456L73.3644 68.1651ZM73.5555 67.7359C73.91 68.02 74.3545 68.2613 74.8868 68.4614L74.9573 68.2742C74.4397 68.0796 74.0149 67.8477 73.6807 67.5798L73.5555 67.7359ZM74.8868 68.4614C75.4236 68.6632 76.0012 68.766 76.6187 68.7706L76.6204 68.5707C76.0245 68.5661 75.4705 68.467 74.9573 68.2742L74.8868 68.4614ZM76.6187 68.7706C77.0185 68.7737 77.3362 68.719 77.5595 68.5948L77.4624 68.42C77.2838 68.5194 77.0072 68.5736 76.6204 68.5707L76.6187 68.7706ZM77.5583 68.5954C77.7926 68.4693 77.9229 68.2795 77.9251 68.0305L77.7251 68.029C77.7237 68.1933 77.6446 68.322 77.4636 68.4194L77.5583 68.5954ZM77.9251 68.0305C77.927 67.812 77.8184 67.6246 77.6242 67.4696C77.4323 67.3165 77.1516 67.1899 76.7902 67.0856L76.7345 67.2778C77.0847 67.3788 77.3369 67.4963 77.4993 67.6259C77.6593 67.7536 77.7263 67.8875 77.7251 68.029L77.9251 68.0305ZM76.7912 67.0859L75.4946 66.6961L75.4368 66.8876L76.7335 67.2775L76.7912 67.0859ZM75.4954 66.6963C74.8007 66.4808 74.2726 66.1868 73.9041 65.8187L73.7627 65.9603C74.1609 66.358 74.721 66.6655 75.4359 66.8874L75.4954 66.6963ZM73.9047 65.8193C73.5459 65.4546 73.3708 65.0284 73.375 64.536L73.1751 64.5344C73.1703 65.0819 73.3675 65.5586 73.7621 65.9596L73.9047 65.8193ZM73.375 64.536C73.3786 64.1255 73.5107 63.7545 73.7738 63.4201L73.6166 63.2966C73.327 63.6647 73.179 64.0783 73.1751 64.5344L73.375 64.536ZM73.7738 63.4201C74.0364 63.0864 74.4186 62.8222 74.9274 62.631L74.8572 62.4438C74.3226 62.6447 73.9068 62.9278 73.6166 63.2966L73.7738 63.4201ZM74.9281 62.6308C75.4419 62.4337 76.0598 62.3362 76.7841 62.3417L76.7858 62.1417C76.0435 62.1361 75.3996 62.2358 74.8566 62.444L74.9281 62.6308ZM76.7841 62.3417C77.4765 62.347 78.1101 62.4309 78.6857 62.5926L78.74 62.4001C78.145 62.2329 77.4934 62.1471 76.7858 62.1417L76.7841 62.3417ZM78.686 62.5927C79.2722 62.7556 79.7443 62.9494 80.1052 63.1724L80.2104 63.0022C79.8285 62.7662 79.3373 62.566 78.7397 62.4L78.686 62.5927ZM80.077 63.0284L79.7431 63.4859L79.9046 63.6037L80.2385 63.1462L80.077 63.0284ZM79.8744 63.4584C79.5541 63.2711 79.171 63.112 78.7263 62.9803L78.6693 63.1721C79.1025 63.3004 79.47 63.4537 79.7733 63.6311L79.8744 63.4584ZM78.7267 62.9805C78.2848 62.8476 77.8193 62.7796 77.3304 62.7759L77.3286 62.9759C77.7997 62.9794 78.2464 63.045 78.6689 63.172L78.7267 62.9805ZM77.3304 62.7759C76.9022 62.7726 76.5577 62.8376 76.3079 62.9819L76.4078 63.1551C76.6135 63.0362 76.9169 62.9727 77.3286 62.9759L77.3304 62.7759ZM76.3087 62.9815C76.0609 63.1215 75.9256 63.3279 75.9233 63.5952L76.1232 63.5967C76.1249 63.4107 76.2125 63.2655 76.407 63.1555L76.3087 62.9815ZM75.9233 63.5952C75.9214 63.8059 76.0231 63.9866 76.2061 64.1355L76.3324 63.9803C76.1845 63.8599 76.1221 63.7327 76.1232 63.5967L75.9233 63.5952ZM76.2081 64.137C76.3905 64.2779 76.723 64.4111 77.1889 64.5414L77.243 64.3487C76.7778 64.2186 76.4792 64.0937 76.3305 63.9787L76.2081 64.137ZM77.1898 64.5416L78.5965 64.9222L78.649 64.7292L77.2422 64.3485L77.1898 64.5416ZM81.5186 62.3376L81.5195 62.2376L81.4195 62.2368L81.4186 62.3368L81.5186 62.3376ZM84.7785 62.3623L84.8785 62.363L84.8794 62.263L84.7794 62.2623L84.7785 62.3623ZM84.7181 69.362L84.7173 69.462L84.8173 69.4628L84.8181 69.3628L84.7181 69.362ZM81.4582 69.3373L81.3582 69.3366L81.3574 69.4366L81.4574 69.4373L81.4582 69.3373ZM81.5177 62.4376L84.7776 62.4623L84.7794 62.2623L81.5195 62.2376L81.5177 62.4376ZM84.6785 62.3615L84.6181 69.3612L84.8181 69.3628L84.8785 62.363L84.6785 62.3615ZM84.719 69.262L81.4591 69.2373L81.4574 69.4373L84.7173 69.462L84.719 69.262ZM81.5582 69.3381L81.6186 62.3383L81.4186 62.3368L81.3582 69.3366L81.5582 69.3381ZM85.9164 64.7109L86.0084 64.6715L85.8164 64.7102L85.9164 64.7109ZM85.8762 69.3708L85.8754 69.4708L85.9754 69.4715L85.9762 69.3715L85.8762 69.3708ZM85.2863 69.3663L85.1863 69.3655L85.1854 69.4655L85.2854 69.4663L85.2863 69.3663ZM85.3466 62.3666L85.3475 62.2666L85.2475 62.2658L85.2466 62.3658L85.3466 62.3666ZM88.2665 62.3887L88.3564 62.3446L88.3292 62.2892L88.2674 62.2887L88.2665 62.3887ZM89.7013 65.3196L89.6115 65.3637L89.7097 65.5642L89.7939 65.3573L89.7013 65.3196ZM90.8865 62.4085L90.8873 62.3085L90.8194 62.308L90.7938 62.3709L90.8865 62.4085ZM94.0864 62.4328L94.1864 62.4335L94.1872 62.3335L94.0872 62.3328L94.0864 62.4328ZM94.026 69.4325L94.0251 69.5325L94.1251 69.5333L94.126 69.4333L94.026 69.4325ZM90.8261 69.4083L90.7261 69.4075L90.7252 69.5075L90.8252 69.5083L90.8261 69.4083ZM90.8714 64.1585L90.9714 64.1592L90.7785 64.1215L90.8714 64.1585ZM88.7862 69.3928L88.7853 69.4928L88.8537 69.4933L88.8791 69.4297L88.7862 69.3928ZM87.9162 69.3862L87.8242 69.4256L87.8499 69.4857L87.9153 69.4862L87.9162 69.3862ZM85.8164 64.7102L85.7762 69.37L85.9762 69.3715L86.0164 64.7117L85.8164 64.7102ZM85.8771 69.2708L85.2871 69.2663L85.2854 69.4663L85.8754 69.4708L85.8771 69.2708ZM85.3863 69.3671L85.4466 62.3673L85.2466 62.3658L85.1863 69.3655L85.3863 69.3671ZM85.3458 62.4666L88.2657 62.4887L88.2674 62.2887L85.3475 62.2666L85.3458 62.4666ZM88.1767 62.4327L89.6115 65.3637L89.7911 65.2756L88.3564 62.3446L88.1767 62.4327ZM89.7939 65.3573L90.9791 62.4461L90.7938 62.3709L89.6087 65.282L89.7939 65.3573ZM90.8856 62.5085L94.0855 62.5328L94.0872 62.3328L90.8873 62.3085L90.8856 62.5085ZM93.9864 62.432L93.926 69.4317L94.126 69.4333L94.1864 62.4335L93.9864 62.432ZM94.0269 69.3325L90.827 69.3083L90.8252 69.5083L94.0251 69.5325L94.0269 69.3325ZM90.9261 69.409L90.9714 64.1592L90.7714 64.1577L90.7261 69.4075L90.9261 69.409ZM90.7785 64.1215L88.6933 69.3559L88.8791 69.4297L90.9643 64.1954L90.7785 64.1215ZM88.787 69.2928L87.917 69.2862L87.9153 69.4862L88.7853 69.4928L88.787 69.2928ZM88.0081 69.3468L86.0084 64.6715L85.8245 64.7504L87.8242 69.4256L88.0081 69.3468ZM94.653 62.4371L94.6539 62.3371L94.5539 62.3363L94.553 62.4363L94.653 62.4371ZM102.418 63.0059L102.349 63.0781L102.35 63.0787L102.418 63.0059ZM102.688 65.318L102.775 65.3681L102.775 65.3681L102.688 65.318ZM101.992 66.0127L102.043 66.0992L102.043 66.0992L101.992 66.0127ZM100.99 66.2652L100.991 66.1652L100.991 66.1652L100.99 66.2652ZM97.9402 66.2521L97.9407 66.1521L97.8411 66.1516L97.8402 66.2513L97.9402 66.2521ZM97.9125 69.4619L97.9117 69.5619L98.0117 69.5627L98.0125 69.4627L97.9125 69.4619ZM94.5926 69.4368L94.4926 69.436L94.4918 69.536L94.5918 69.5368L94.5926 69.4368ZM98.9567 65.5097L99.0052 65.5971L99.0061 65.5966L98.9567 65.5097ZM99.4408 65.0334L99.3547 64.9825L99.3542 64.9834L99.4408 65.0334ZM99.4522 63.7134L99.364 63.7609L99.366 63.7642L99.4522 63.7134ZM98.9764 63.2198L98.9242 63.3052L98.9254 63.3059L98.9764 63.2198ZM97.968 63.0322L97.9688 62.9322L97.8688 62.9314L97.868 63.0314L97.968 63.0322ZM97.9452 65.6721L97.8452 65.6713L97.8444 65.7713L97.9444 65.7721L97.9452 65.6721ZM94.6521 62.537L101.002 62.5851L101.004 62.3851L94.6539 62.3371L94.6521 62.537ZM101.002 62.5851C101.568 62.5894 102.014 62.7562 102.349 63.0781L102.488 62.9337C102.109 62.5701 101.611 62.3897 101.004 62.3851L101.002 62.5851ZM102.35 63.0787C102.683 63.3925 102.851 63.8186 102.847 64.3692L103.047 64.3707C103.052 63.7746 102.868 63.2914 102.487 62.933L102.35 63.0787ZM102.847 64.3692C102.844 64.692 102.762 64.991 102.602 65.2679L102.775 65.3681C102.953 65.0609 103.044 64.7278 103.047 64.3707L102.847 64.3692ZM102.602 65.2679C102.442 65.5447 102.222 65.7638 101.942 65.9263L102.043 66.0992C102.352 65.9194 102.597 65.6754 102.775 65.3681L102.602 65.2679ZM101.942 65.9263C101.664 66.0875 101.348 66.1679 100.991 66.1652L100.989 66.3652C101.379 66.3681 101.731 66.2802 102.043 66.0992L101.942 65.9263ZM100.991 66.1652L97.9407 66.1521L97.9397 66.3521L100.99 66.3652L100.991 66.1652ZM97.8402 66.2513L97.8125 69.4612L98.0125 69.4627L98.0402 66.2528L97.8402 66.2513ZM97.9134 69.3619L94.5935 69.3368L94.5918 69.5368L97.9117 69.5619L97.9134 69.3619ZM94.6926 69.4376L94.753 62.4378L94.553 62.4363L94.4926 69.436L94.6926 69.4376ZM98.2943 65.7747C98.5508 65.7767 98.7884 65.7177 99.0052 65.5971L98.9081 65.4224C98.7229 65.5254 98.5196 65.5764 98.2961 65.5747L98.2943 65.7747ZM99.0061 65.5966C99.2286 65.4697 99.4031 65.2985 99.5274 65.0833L99.3542 64.9834C99.2484 65.1666 99.1001 65.3129 98.9072 65.4229L99.0061 65.5966ZM99.5268 65.0843C99.6574 64.8637 99.7243 64.6269 99.7265 64.3755L99.5265 64.374C99.5246 64.5893 99.4678 64.7916 99.3547 64.9825L99.5268 65.0843ZM99.7265 64.3755C99.7287 64.118 99.6661 63.8796 99.5384 63.6626L99.366 63.7642C99.4748 63.9491 99.5284 64.1516 99.5265 64.374L99.7265 64.3755ZM99.5403 63.666C99.42 63.4422 99.2484 63.2644 99.0274 63.1337L98.9254 63.3059C99.1156 63.4183 99.2613 63.5696 99.3641 63.7609L99.5403 63.666ZM99.0286 63.1345C98.8137 63.0032 98.5764 62.9368 98.3188 62.9348L98.3171 63.1348C98.5395 63.1365 98.7412 63.1934 98.9242 63.3052L99.0286 63.1345ZM98.3188 62.9348L97.9688 62.9322L97.9671 63.1322L98.3171 63.1348L98.3188 62.9348ZM97.868 63.0314L97.8452 65.6713L98.0452 65.6728L98.068 63.0329L97.868 63.0314ZM97.9444 65.7721L98.2943 65.7747L98.2961 65.5747L97.9461 65.5721L97.9444 65.7721ZM103.452 62.5037L103.452 62.4037L103.352 62.4029L103.352 62.5029L103.452 62.5037ZM106.961 62.5303L107.061 62.531L107.062 62.431L106.962 62.4303L106.961 62.5303ZM106.906 68.93L106.806 68.9293L106.805 69.0293L106.905 69.03L106.906 68.93ZM110.706 68.9588L110.806 68.9596L110.807 68.8596L110.707 68.8588L110.706 68.9588ZM110.701 69.5588L110.7 69.6588L110.8 69.6596L110.801 69.5596L110.701 69.5588ZM103.391 69.5034L103.291 69.5027L103.29 69.6027L103.39 69.6034L103.391 69.5034ZM103.451 62.6037L106.961 62.6303L106.962 62.4303L103.452 62.4037L103.451 62.6037ZM106.861 62.5295L106.806 68.9293L107.006 68.9308L107.061 62.531L106.861 62.5295ZM106.905 69.03L110.705 69.0588L110.707 68.8588L106.907 68.83L106.905 69.03ZM110.606 68.9581L110.601 69.558L110.801 69.5596L110.806 68.9596L110.606 68.9581ZM110.702 69.4588L103.392 69.4034L103.39 69.6034L110.7 69.6588L110.702 69.4588ZM103.491 69.5042L103.552 62.5045L103.352 62.5029L103.291 69.5027L103.491 69.5042ZM111.332 62.5634L111.333 62.4634L111.233 62.4626L111.232 62.5626L111.332 62.5634ZM118.602 62.6184L118.702 62.6192L118.703 62.5192L118.603 62.5184L118.602 62.6184ZM118.597 63.2084L118.596 63.3084L118.696 63.3092L118.697 63.2092L118.597 63.2084ZM114.847 63.18L114.848 63.08L114.748 63.0793L114.747 63.1793L114.847 63.18ZM114.825 65.7699L114.725 65.7692L114.724 65.8692L114.824 65.8699L114.825 65.7699ZM116.665 65.7839L116.765 65.7846L116.765 65.6846L116.665 65.6839L116.665 65.7839ZM116.659 66.3838L116.659 66.4838L116.759 66.4846L116.759 66.3846L116.659 66.3838ZM114.82 66.3699L114.82 66.2699L114.72 66.2691L114.72 66.3691L114.82 66.3699ZM114.797 68.9898L114.697 68.989L114.696 69.089L114.796 69.0898L114.797 68.9898ZM118.547 69.0182L118.647 69.019L118.648 68.919L118.548 68.9182L118.547 69.0182ZM118.542 69.6182L118.541 69.7182L118.641 69.7189L118.642 69.6189L118.542 69.6182ZM111.272 69.5631L111.172 69.5624L111.171 69.6624L111.271 69.6631L111.272 69.5631ZM111.331 62.6634L118.601 62.7184L118.603 62.5184L111.333 62.4634L111.331 62.6634ZM118.502 62.6177L118.497 63.2077L118.697 63.2092L118.702 62.6192L118.502 62.6177ZM118.598 63.1084L114.848 63.08L114.846 63.28L118.596 63.3084L118.598 63.1084ZM114.747 63.1793L114.725 65.7692L114.925 65.7707L114.947 63.1808L114.747 63.1793ZM114.824 65.8699L116.664 65.8839L116.665 65.6839L114.826 65.6699L114.824 65.8699ZM116.565 65.7831L116.559 66.3831L116.759 66.3846L116.765 65.7846L116.565 65.7831ZM116.66 66.2838L114.82 66.2699L114.819 66.4699L116.659 66.4838L116.66 66.2838ZM114.72 66.3691L114.697 68.989L114.897 68.9906L114.92 66.3707L114.72 66.3691ZM114.796 69.0898L118.546 69.1182L118.548 68.9182L114.798 68.8898L114.796 69.0898ZM118.447 69.0174L118.442 69.6174L118.642 69.6189L118.647 69.019L118.447 69.0174ZM118.542 69.5182L111.273 69.4631L111.271 69.6631L118.541 69.7182L118.542 69.5182ZM111.372 69.5639L111.432 62.5641L111.232 62.5626L111.172 69.5624L111.372 69.5639Z" fill="#ACACAC"/>
<g filter="url(#filter0_d_270_82)">
<mask id="path-4-inside-1_270_82" fill="white">
<path fill-rule="evenodd" clip-rule="evenodd" d="M66.7434 103.065C66.7534 103.046 66.7633 103.026 66.7733 103.007L34.7679 81.6096C31.296 85.7846 26.5035 88.3705 21.2143 88.3772C10.641 88.3905 2.087 78.0917 2.10835 65.3742C2.1297 52.6566 10.7183 42.3362 21.2916 42.3229C26.3243 42.3166 30.8995 44.6465 34.3102 48.4615L65.4047 27.6417L-2.35614 27.4953L-2.65924 102.915L66.7434 103.065Z"/>
</mask>
<path fill-rule="evenodd" clip-rule="evenodd" d="M66.7434 103.065C66.7534 103.046 66.7633 103.026 66.7733 103.007L34.7679 81.6096C31.296 85.7846 26.5035 88.3705 21.2143 88.3772C10.641 88.3905 2.087 78.0917 2.10835 65.3742C2.1297 52.6566 10.7183 42.3362 21.2916 42.3229C26.3243 42.3166 30.8995 44.6465 34.3102 48.4615L65.4047 27.6417L-2.35614 27.4953L-2.65924 102.915L66.7434 103.065Z" fill="#283D5B"/>
<path d="M66.7733 103.007L67.6647 103.461L68.0672 102.67L67.3285 102.176L66.7733 103.007ZM66.7434 103.065L66.7423 104.065L67.3558 104.067L67.6344 103.52L66.7434 103.065ZM34.7679 81.6096L35.3231 80.7784L34.5742 80.2777L33.9988 80.9697L34.7679 81.6096ZM21.2143 88.3772L21.212 87.3772L21.212 87.3772L21.2143 88.3772ZM2.10835 65.3742L3.10834 65.3768L3.10834 65.3768L2.10835 65.3742ZM21.2916 42.3229L21.2893 41.3229L21.2893 41.3229L21.2916 42.3229ZM34.3102 48.4615L33.565 49.1276L34.1449 49.7763L34.8671 49.2927L34.3102 48.4615ZM65.4047 27.6417L65.9616 28.4728L68.6858 26.6487L65.4059 26.6416L65.4047 27.6417ZM-2.35614 27.4953L-2.35499 26.4953L-3.35212 26.4931L-3.35613 27.4902L-2.35614 27.4953ZM-2.65924 102.915L-3.65922 102.91L-3.66325 103.913L-2.66039 103.915L-2.65924 102.915ZM65.8819 102.553C65.8719 102.572 65.8622 102.591 65.8525 102.61L67.6344 103.52C67.6446 103.5 67.6548 103.48 67.6647 103.461L65.8819 102.553ZM34.2127 82.4407L66.2181 103.838L67.3285 102.176L35.3231 80.7784L34.2127 82.4407ZM21.2166 89.3772C26.8482 89.3701 31.9072 86.6144 35.537 82.2494L33.9988 80.9697C30.6848 84.9548 26.1587 87.3709 21.212 87.3772L21.2166 89.3772ZM1.10836 65.3715C1.08639 78.461 9.92358 89.3914 21.2166 89.3772L21.212 87.3772C11.3585 87.3896 3.08762 77.7224 3.10834 65.3768L1.10836 65.3715ZM21.2893 41.3229C10.0014 41.3371 1.13033 52.2829 1.10836 65.3715L3.10834 65.3768C3.12906 53.0303 11.4353 43.3353 21.2939 43.3229L21.2893 41.3229ZM35.0554 47.7954C31.4831 43.7997 26.6476 41.3161 21.2893 41.3229L21.2939 43.3229C26.0009 43.317 30.3158 45.4933 33.565 49.1276L35.0554 47.7954ZM64.8478 26.8105L33.7533 47.6304L34.8671 49.2927L65.9616 28.4728L64.8478 26.8105ZM-2.3573 28.4953L65.4035 28.6417L65.4059 26.6416L-2.35499 26.4953L-2.3573 28.4953ZM-1.65926 102.92L-1.35616 27.5003L-3.35613 27.4902L-3.65922 102.91L-1.65926 102.92ZM66.7446 102.065L-2.65808 101.915L-2.66039 103.915L66.7423 104.065L66.7446 102.065Z" fill="#737373" mask="url(#path-4-inside-1_270_82)"/>
</g>
<g filter="url(#filter1_d_270_82)">
<mask id="path-6-inside-2_270_82" fill="white">
<path fill-rule="evenodd" clip-rule="evenodd" d="M62.8469 27.492C62.8364 27.5138 62.8259 27.5356 62.8154 27.5575L94.073 48.7518C97.41 44.5253 102.043 41.8827 107.179 41.8266C117.447 41.7143 125.839 51.9795 125.923 64.7547C126.008 77.5299 117.753 87.9772 107.486 88.0895C102.599 88.1429 98.1364 85.8453 94.7927 82.0451L64.7779 103.244L130.573 102.764L130.237 27L62.8469 27.492Z"/>
</mask>
<path fill-rule="evenodd" clip-rule="evenodd" d="M62.8469 27.492C62.8364 27.5138 62.8259 27.5356 62.8154 27.5575L94.073 48.7518C97.41 44.5253 102.043 41.8827 107.179 41.8266C117.447 41.7143 125.839 51.9795 125.923 64.7547C126.008 77.5299 117.753 87.9772 107.486 88.0895C102.599 88.1429 98.1364 85.8453 94.7927 82.0451L64.7779 103.244L130.573 102.764L130.237 27L62.8469 27.492Z" fill="#283D5B"/>
<path d="M62.8154 27.5575L61.9142 27.124L61.5404 27.9012L62.2542 28.3851L62.8154 27.5575ZM62.8469 27.492L62.8396 26.492L62.2168 26.4966L61.9462 27.0576L62.8469 27.492ZM94.073 48.7518L93.5118 49.5794L94.2816 50.1014L94.8579 49.3714L94.073 48.7518ZM107.179 41.8266L107.168 40.8266L107.168 40.8266L107.179 41.8266ZM125.923 64.7547L124.923 64.7613L125.923 64.7547ZM107.486 88.0895L107.475 87.0895L107.475 87.0895L107.486 88.0895ZM94.7927 82.0451L95.5434 81.3845L94.9498 80.7098L94.2158 81.2282L94.7927 82.0451ZM64.7779 103.244L64.201 102.427L61.5957 104.267L64.7852 104.244L64.7779 103.244ZM130.573 102.764L130.58 103.764L131.577 103.756L131.573 102.759L130.573 102.764ZM130.237 27L131.237 26.9956L131.233 25.9927L130.23 26L130.237 27ZM63.7166 27.9909C63.7269 27.9695 63.7372 27.948 63.7476 27.9264L61.9462 27.0576C61.9356 27.0796 61.9249 27.1018 61.9142 27.124L63.7166 27.9909ZM94.6342 47.9241L63.3766 26.7298L62.2542 28.3851L93.5118 49.5794L94.6342 47.9241ZM107.168 40.8266C101.676 40.8867 96.7762 43.7142 93.2881 48.1321L94.8579 49.3714C98.0437 45.3364 102.41 42.8788 107.19 42.8265L107.168 40.8266ZM126.923 64.7481C126.836 51.6354 118.184 40.7061 107.168 40.8266L107.19 42.8265C116.709 42.7224 124.841 52.3237 124.923 64.7613L126.923 64.7481ZM107.497 89.0894C118.507 88.969 127.01 77.8602 126.923 64.7481L124.923 64.7613C125.006 77.1995 117 86.9854 107.475 87.0895L107.497 89.0894ZM94.0419 82.7056C97.5445 86.6864 102.271 89.1466 107.497 89.0894L107.475 87.0895C102.926 87.1393 98.7284 85.0043 95.5434 81.3845L94.0419 82.7056ZM65.3548 104.061L95.3696 82.8619L94.2158 81.2282L64.201 102.427L65.3548 104.061ZM130.566 101.764L64.7706 102.244L64.7852 104.244L130.58 103.764L130.566 101.764ZM129.238 27.0044L129.573 102.768L131.573 102.759L131.237 26.9956L129.238 27.0044ZM62.8542 28.492L130.245 28L130.23 26L62.8396 26.492L62.8542 28.492Z" fill="#737373" mask="url(#path-6-inside-2_270_82)"/>
</g>
</g>
<defs>
<filter id="filter0_d_270_82" x="-6.65924" y="27.4954" width="77.4325" height="83.5701" filterUnits="userSpaceOnUse" color-interpolation-filters="sRGB">
<feFlood flood-opacity="0" result="BackgroundImageFix"/>
<feColorMatrix in="SourceAlpha" type="matrix" values="0 0 0 0 0 0 0 0 0 0 0 0 0 0 0 0 0 0 127 0" result="hardAlpha"/>
<feOffset dy="4"/>
<feGaussianBlur stdDeviation="2"/>
<feComposite in2="hardAlpha" operator="out"/>
<feColorMatrix type="matrix" values="0 0 0 0 0 0 0 0 0 0 0 0 0 0 0 0 0 0 0.25 0"/>
<feBlend mode="normal" in2="BackgroundImageFix" result="effect1_dropShadow_270_82"/>
<feBlend mode="normal" in="SourceGraphic" in2="effect1_dropShadow_270_82" result="shape"/>
</filter>
<filter id="filter1_d_270_82" x="58.8154" y="27" width="75.7575" height="84.2439" filterUnits="userSpaceOnUse" color-interpolation-filters="sRGB">
<feFlood flood-opacity="0" result="BackgroundImageFix"/>
<feColorMatrix in="SourceAlpha" type="matrix" values="0 0 0 0 0 0 0 0 0 0 0 0 0 0 0 0 0 0 127 0" result="hardAlpha"/>
<feOffset dy="4"/>
<feGaussianBlur stdDeviation="2"/>
<feComposite in2="hardAlpha" operator="out"/>
<feColorMatrix type="matrix" values="0 0 0 0 0 0 0 0 0 0 0 0 0 0 0 0 0 0 0.25 0"/>
<feBlend mode="normal" in2="BackgroundImageFix" result="effect1_dropShadow_270_82"/>
<feBlend mode="normal" in="SourceGraphic" in2="effect1_dropShadow_270_82" result="shape"/>
</filter>
<clipPath id="clip0_270_82">
<rect width="128" height="128" fill="white"/>
</clipPath>
</defs>
</svg>
